<svg width="32" height="32" viewBox="0 0 32 32" fill="none" xmlns="http://www.w3.org/2000/svg">
<path fill-rule="evenodd" clip-rule="evenodd" d="M16.3905 26.2762C15.8698 25.7555 15.8698 24.9112 16.3905 24.3905L23.4477 17.3334L5.33333 17.3334C4.59695 17.3334 4 16.7364 4 16C4 15.2636 4.59695 14.6667 5.33333 14.6667L23.4477 14.6667L16.3905 7.60949C15.8698 7.0888 15.8698 6.24458 16.3905 5.72388C16.9112 5.20318 17.7554 5.20318 18.2761 5.72388L27.609 15.0567C27.6092 15.0569 27.6093 15.057 27.6095 15.0572C27.6104 15.0582 27.6114 15.0591 27.6123 15.06C27.7387 15.1872 27.8342 15.3335 27.8988 15.4896C27.964 15.6469 28 15.8192 28 16C28 16.3668 27.8519 16.6989 27.6123 16.94C27.6114 16.9409 27.6104 16.9419 27.6095 16.9428C27.6093 16.943 27.6092 16.9432 27.609 16.9433L18.2761 26.2762C17.7554 26.7969 16.9112 26.7969 16.3905 26.2762Z" fill="black"/>
</svg>
