<svg width="32" height="32" viewBox="0 0 32 32" fill="none" xmlns="http://www.w3.org/2000/svg">
<path fill-rule="evenodd" clip-rule="evenodd" d="M15.6095 5.72387C16.1302 6.24457 16.1302 7.08879 15.6095 7.60949L8.55228 14.6667H26.6667C27.403 14.6667 28 15.2636 28 16C28 16.7364 27.403 17.3333 26.6667 17.3333H8.55228L15.6095 24.3905C16.1302 24.9112 16.1302 25.7555 15.6095 26.2762C15.0888 26.7969 14.2446 26.7969 13.7239 26.2762L4.39101 16.9433C4.39085 16.9431 4.39069 16.943 4.39052 16.9428C4.38958 16.9419 4.38864 16.9409 4.3877 16.94C4.26127 16.8128 4.16576 16.6665 4.10117 16.5104C4.03598 16.3532 4 16.1808 4 16C4 15.6333 4.14807 15.3011 4.3877 15.06C4.38864 15.0591 4.38958 15.0581 4.39052 15.0572C4.39069 15.057 4.39085 15.0569 4.39101 15.0567L13.7239 5.72387C14.2446 5.20317 15.0888 5.20317 15.6095 5.72387Z" fill="#FFE7A6"/>
</svg>
