<svg width="744" height="1133" viewBox="0 0 744 1133" fill="none" xmlns="http://www.w3.org/2000/svg">
<g clip-path="url(#clip0_56_636)">
<path d="M0 0H744V1133H0V0Z" fill="#D9D9D9"/>
<path d="M0 0H744V1133H0V0Z" fill="url(#paint0_radial_56_636)"/>
<g opacity="0.5">
<path fill-rule="evenodd" clip-rule="evenodd" d="M627.962 207.919C627.138 207.919 626.332 207.673 625.647 207.214C624.961 206.754 624.428 206.1 624.113 205.336C623.798 204.571 623.717 203.73 623.879 202.92C624.042 202.109 624.44 201.364 625.024 200.781C625.609 200.198 626.352 199.801 627.162 199.642C627.971 199.483 628.809 199.569 629.569 199.888C630.33 200.207 630.979 200.745 631.434 201.435C631.889 202.124 632.13 202.934 632.127 203.761C632.127 204.308 632.019 204.851 631.809 205.356C631.6 205.862 631.293 206.321 630.906 206.708C630.519 207.094 630.06 207.4 629.554 207.608C629.049 207.816 628.508 207.921 627.962 207.919Z" fill="#37C4FF"/>
<path fill-rule="evenodd" clip-rule="evenodd" d="M203.175 325.241C202.351 325.245 201.545 325.004 200.858 324.548C200.171 324.092 199.634 323.442 199.316 322.68C198.997 321.918 198.911 321.079 199.068 320.268C199.225 319.457 199.618 318.711 200.198 318.124C200.777 317.537 201.518 317.136 202.325 316.971C203.132 316.806 203.969 316.885 204.732 317.197C205.494 317.51 206.147 318.043 206.608 318.727C207.068 319.412 207.316 320.219 207.32 321.045C207.323 321.594 207.217 322.137 207.01 322.645C206.803 323.153 206.499 323.615 206.114 324.004C205.729 324.394 205.271 324.704 204.767 324.916C204.263 325.128 203.722 325.239 203.175 325.241Z" fill="#2451FF"/>
<path fill-rule="evenodd" clip-rule="evenodd" d="M466.958 912.094C466.133 912.098 465.326 911.856 464.639 911.4C463.952 910.943 463.415 910.292 463.097 909.529C462.779 908.766 462.694 907.925 462.852 907.114C463.011 906.302 463.406 905.556 463.987 904.97C464.569 904.384 465.311 903.984 466.119 903.821C466.928 903.659 467.766 903.74 468.528 904.056C469.29 904.372 469.942 904.907 470.4 905.594C470.859 906.282 471.103 907.09 471.103 907.917C471.103 909.022 470.667 910.081 469.89 910.864C469.113 911.647 468.059 912.089 466.958 912.094Z" fill="#2451FF"/>
<path fill-rule="evenodd" clip-rule="evenodd" d="M68.6019 981.107C67.7767 981.11 66.9689 980.868 66.2811 980.411C65.5934 979.953 65.0567 979.301 64.7391 978.537C64.4216 977.773 64.3375 976.931 64.4976 976.119C64.6577 975.307 65.0547 974.561 65.6383 973.975C66.2218 973.39 66.9656 972.992 67.7751 972.831C68.5847 972.671 69.4236 972.755 70.1853 973.074C70.947 973.392 71.5973 973.931 72.0534 974.62C72.5095 975.31 72.751 976.121 72.7473 976.948C72.7473 978.051 72.3106 979.109 71.5332 979.889C70.7557 980.669 69.7013 981.107 68.6019 981.107Z" fill="#B11AFF"/>
<path d="M665.822 48.5319C665.822 50.2388 667.201 51.6225 668.902 51.6225C670.604 51.6225 671.983 50.2388 671.983 48.5319C671.983 46.8251 670.604 45.4414 668.902 45.4414C667.201 45.4414 665.822 46.8251 665.822 48.5319Z" fill="#37C4FF"/>
<path d="M452.049 23.8112C452.049 25.5181 453.428 26.9018 455.13 26.9018C456.831 26.9018 458.211 25.5181 458.211 23.8112C458.211 22.1044 456.831 20.7207 455.13 20.7207C453.428 20.7207 452.049 22.1044 452.049 23.8112Z" fill="#B11AFF"/>
<path fill-rule="evenodd" clip-rule="evenodd" d="M482.759 41.5318C482.286 41.5318 481.822 41.3909 481.428 41.1267C481.034 40.8626 480.727 40.4872 480.546 40.048C480.364 39.6088 480.317 39.1254 480.409 38.6592C480.502 38.1929 480.73 37.7646 481.065 37.4284C481.4 37.0922 481.827 36.8633 482.292 36.7706C482.757 36.6778 483.239 36.7254 483.676 36.9073C484.114 37.0893 484.489 37.3974 484.752 37.7927C485.015 38.188 485.156 38.6527 485.156 39.1281C485.151 39.7641 484.897 40.3726 484.448 40.8223C484 41.272 483.393 41.5269 482.759 41.5318Z" fill="#FF6DFF"/>
<path fill-rule="evenodd" clip-rule="evenodd" d="M210.248 306.74C209.612 306.74 209.003 306.487 208.554 306.036C208.104 305.585 207.852 304.974 207.852 304.336C207.852 303.699 208.104 303.087 208.554 302.636C209.003 302.186 209.612 301.932 210.248 301.932C210.884 301.932 211.493 302.186 211.942 302.636C212.392 303.087 212.644 303.699 212.644 304.336C212.644 304.974 212.392 305.585 211.942 306.036C211.493 306.487 210.884 306.74 210.248 306.74Z" fill="#FF6DFF"/>
<path fill-rule="evenodd" clip-rule="evenodd" d="M66.2434 1036.61C65.7695 1036.61 65.3061 1036.47 64.912 1036.21C64.518 1035.95 64.2109 1035.57 64.0295 1035.13C63.8481 1034.69 63.8006 1034.21 63.8931 1033.74C63.9856 1033.28 64.2138 1032.85 64.5489 1032.51C64.8841 1032.17 65.3111 1031.95 65.7759 1031.85C66.2407 1031.76 66.7225 1031.81 67.1604 1031.99C67.5983 1032.17 67.9725 1032.48 68.2358 1032.88C68.4991 1033.27 68.6396 1033.74 68.6396 1034.21C68.6396 1034.85 68.3872 1035.46 67.9378 1035.91C67.4884 1036.36 66.8789 1036.61 66.2434 1036.61Z" fill="#FF6DFF"/>
<path d="M469.182 1072.02C469.182 1072.91 469.906 1073.64 470.799 1073.64C471.692 1073.64 472.415 1072.91 472.415 1072.02C472.415 1071.12 471.692 1070.39 470.799 1070.39C469.906 1070.39 469.182 1071.12 469.182 1072.02Z" fill="#2451FF"/>
<path d="M68.4301 19.4811C68.4301 20.8087 69.503 21.8849 70.8264 21.8849C72.1498 21.8849 73.2227 20.8087 73.2227 19.4811C73.2227 18.1536 72.1498 17.0774 70.8264 17.0774C69.503 17.0774 68.4301 18.1536 68.4301 19.4811Z" fill="#FF6DFF"/>
<path fill-rule="evenodd" clip-rule="evenodd" d="M73.1844 252.916C72.8666 252.916 72.5619 252.79 72.3372 252.564C72.1125 252.339 71.9863 252.033 71.9863 251.715C71.9863 251.396 72.1125 251.09 72.3372 250.865C72.5619 250.639 72.8666 250.513 73.1844 250.513C73.5022 250.513 73.8069 250.639 74.0316 250.865C74.2563 251.09 74.3826 251.396 74.3826 251.715C74.3826 252.033 74.2563 252.339 74.0316 252.564C73.8069 252.79 73.5022 252.916 73.1844 252.916Z" fill="#FF6DFF"/>
<path fill-rule="evenodd" clip-rule="evenodd" d="M208.233 1112.72C207.896 1112.73 207.566 1112.63 207.285 1112.44C207.004 1112.26 206.784 1111.99 206.653 1111.68C206.523 1111.37 206.488 1111.03 206.553 1110.7C206.617 1110.37 206.779 1110.06 207.017 1109.82C207.255 1109.58 207.558 1109.42 207.888 1109.36C208.218 1109.29 208.56 1109.33 208.87 1109.46C209.18 1109.59 209.444 1109.81 209.629 1110.09C209.813 1110.37 209.91 1110.71 209.906 1111.04C209.909 1111.26 209.867 1111.48 209.784 1111.69C209.701 1111.89 209.578 1112.08 209.422 1112.24C209.266 1112.39 209.08 1112.52 208.876 1112.6C208.672 1112.68 208.453 1112.72 208.233 1112.72Z" fill="#FF6DFF"/>
<path fill-rule="evenodd" clip-rule="evenodd" d="M647.415 267.528C646.944 267.527 646.484 267.388 646.092 267.127C645.699 266.866 645.392 266.495 645.209 266.061C645.026 265.626 644.974 265.146 645.06 264.682C645.147 264.218 645.368 263.79 645.695 263.451C646.023 263.112 646.443 262.877 646.902 262.776C647.362 262.675 647.841 262.712 648.28 262.882C648.719 263.052 649.099 263.349 649.371 263.734C649.643 264.119 649.796 264.576 649.811 265.048C649.824 265.37 649.771 265.692 649.656 265.994C649.542 266.296 649.367 266.571 649.143 266.803C648.919 267.035 648.65 267.219 648.353 267.343C648.056 267.468 647.737 267.531 647.415 267.528Z" fill="#FF6DFF"/>
<path d="M319.359 865.953C319.359 867.281 320.432 868.357 321.755 868.357C323.079 868.357 324.151 867.281 324.151 865.953C324.151 864.625 323.079 863.549 321.755 863.549C320.432 863.549 319.359 864.625 319.359 865.953Z" fill="#FF6DFF"/>
<path d="M474.411 1088.23C474.411 1089.4 475.356 1090.35 476.522 1090.35C477.688 1090.35 478.633 1089.4 478.633 1088.23C478.633 1087.06 477.688 1086.11 476.522 1086.11C475.356 1086.11 474.411 1087.06 474.411 1088.23Z" fill="#B11AFF"/>
<path d="M92.0661 33.2148C92.0661 34.5423 93.139 35.6185 94.4624 35.6185C95.7858 35.6185 96.8586 34.5423 96.8586 33.2148C96.8586 31.8872 95.7858 30.811 94.4624 30.811C93.139 30.811 92.0661 31.8872 92.0661 33.2148Z" fill="#2451FF"/>
<path d="M577.475 23.7922C577.475 25.1197 578.548 26.1959 579.872 26.1959C581.195 26.1959 582.268 25.1197 582.268 23.7922C582.268 22.4646 581.195 21.3884 579.872 21.3884C578.548 21.3884 577.475 22.4646 577.475 23.7922Z" fill="#B11AFF"/>
<path d="M655.953 1046.17C655.953 1047.5 657.025 1048.57 658.349 1048.57C659.672 1048.57 660.745 1047.5 660.745 1046.17C660.745 1044.84 659.672 1043.77 658.349 1043.77C657.025 1043.77 655.953 1044.84 655.953 1046.17Z" fill="#2451FF"/>
<path d="M674.207 1000.32C674.207 1001.64 675.28 1002.72 676.604 1002.72C677.927 1002.72 679 1001.64 679 1000.32C679 998.988 677.927 997.911 676.604 997.911C675.28 997.911 674.207 998.988 674.207 1000.32Z" fill="#B11AFF"/>
<path fill-rule="evenodd" clip-rule="evenodd" d="M625.3 223.599C624.82 223.61 624.347 223.478 623.943 223.219C623.538 222.96 623.22 222.585 623.028 222.144C622.837 221.702 622.781 221.213 622.867 220.74C622.954 220.266 623.179 219.829 623.515 219.484C623.85 219.14 624.28 218.903 624.75 218.805C625.22 218.707 625.709 218.751 626.153 218.933C626.598 219.115 626.979 219.425 627.247 219.824C627.515 220.224 627.658 220.695 627.658 221.176C627.663 221.811 627.418 222.421 626.976 222.875C626.535 223.329 625.932 223.589 625.3 223.599Z" fill="#B11AFF"/>
<path d="M599.287 207.995C599.287 211.166 601.85 213.737 605.011 213.737C608.172 213.737 610.734 211.166 610.734 207.995C610.734 204.824 608.172 202.254 605.011 202.254C601.85 202.254 599.287 204.824 599.287 207.995Z" fill="#B11AFF"/>
<path fill-rule="evenodd" clip-rule="evenodd" d="M100.243 26.4628C99.7087 26.4628 99.1959 26.2498 98.8179 25.8706C98.4398 25.4913 98.2274 24.977 98.2274 24.4407C98.2274 23.9043 98.4398 23.39 98.8179 23.0107C99.1959 22.6315 99.7087 22.4185 100.243 22.4185C100.778 22.4185 101.291 22.6315 101.669 23.0107C102.047 23.39 102.259 23.9043 102.259 24.4407C102.259 24.977 102.047 25.4913 101.669 25.8706C101.291 26.2498 100.778 26.4628 100.243 26.4628Z" fill="#B11AFF"/>
<path d="M672.876 67.6826C672.876 68.515 673.549 69.1898 674.379 69.1898C675.209 69.1898 675.881 68.515 675.881 67.6826C675.881 66.8503 675.209 66.1755 674.379 66.1755C673.549 66.1755 672.876 66.8503 672.876 67.6826Z" fill="#B11AFF"/>
<path fill-rule="evenodd" clip-rule="evenodd" d="M78.984 887.412C78.7738 887.436 78.561 887.415 78.3594 887.351C78.1579 887.286 77.9721 887.18 77.8143 887.039C77.6566 886.897 77.5303 886.724 77.4439 886.531C77.3575 886.337 77.3129 886.127 77.3129 885.915C77.3129 885.703 77.3575 885.493 77.4439 885.299C77.5303 885.105 77.6566 884.932 77.8143 884.791C77.9721 884.649 78.1579 884.543 78.3594 884.479C78.561 884.414 78.7738 884.393 78.984 884.417C79.1942 884.393 79.4071 884.414 79.6087 884.479C79.8103 884.543 79.996 884.649 80.1538 884.791C80.3115 884.932 80.4377 885.105 80.5242 885.299C80.6106 885.493 80.6553 885.703 80.6553 885.915C80.6553 886.127 80.6106 886.337 80.5242 886.531C80.4377 886.724 80.3115 886.897 80.1538 887.039C79.996 887.18 79.8103 887.286 79.6087 887.351C79.4071 887.415 79.1942 887.436 78.984 887.412Z" fill="#B11AFF"/>
<path fill-rule="evenodd" clip-rule="evenodd" d="M650.476 1075.55C650.123 1075.55 649.777 1075.44 649.483 1075.24C649.189 1075.05 648.96 1074.77 648.825 1074.44C648.69 1074.11 648.654 1073.75 648.723 1073.4C648.792 1073.05 648.962 1072.73 649.212 1072.48C649.462 1072.23 649.781 1072.06 650.128 1071.99C650.474 1071.92 650.834 1071.96 651.161 1072.1C651.487 1072.23 651.766 1072.46 651.963 1072.76C652.159 1073.05 652.264 1073.4 652.264 1073.75C652.264 1074.23 652.076 1074.68 651.741 1075.02C651.405 1075.36 650.951 1075.55 650.476 1075.55Z" fill="#37C4FF"/>
<path fill-rule="evenodd" clip-rule="evenodd" d="M322.687 367.473C322.333 367.473 321.988 367.368 321.694 367.171C321.4 366.974 321.171 366.694 321.035 366.366C320.9 366.038 320.865 365.678 320.934 365.33C321.003 364.982 321.173 364.663 321.423 364.412C321.673 364.161 321.991 363.99 322.338 363.921C322.685 363.852 323.044 363.887 323.371 364.023C323.698 364.159 323.977 364.389 324.173 364.683C324.37 364.978 324.475 365.325 324.475 365.68C324.475 366.155 324.286 366.611 323.951 366.948C323.616 367.284 323.161 367.473 322.687 367.473Z" fill="#B11AFF"/>
<path d="M660.555 1084.47C660.555 1087 662.598 1089.05 665.119 1089.05C667.639 1089.05 669.682 1087 669.682 1084.47C669.682 1081.94 667.639 1079.89 665.119 1079.89C662.598 1079.89 660.555 1081.94 660.555 1084.47Z" fill="#FF6DFF"/>
<path fill-rule="evenodd" clip-rule="evenodd" d="M486.487 1066.5C485.708 1066.51 484.945 1066.28 484.295 1065.85C483.645 1065.42 483.138 1064.8 482.837 1064.08C482.536 1063.36 482.455 1062.56 482.605 1061.8C482.755 1061.03 483.128 1060.32 483.678 1059.77C484.228 1059.22 484.929 1058.84 485.693 1058.68C486.457 1058.53 487.249 1058.61 487.97 1058.91C488.69 1059.2 489.306 1059.71 489.739 1060.36C490.173 1061.01 490.404 1061.77 490.404 1062.56C490.404 1063.6 489.992 1064.6 489.258 1065.34C488.524 1066.08 487.528 1066.5 486.487 1066.5Z" fill="#FF6DFF"/>
</g>
</g>
<path opacity="0.8" d="M0 415.598C0 415.598 244.185 397.559 446.4 415.598C648.615 433.637 744 415.598 744 415.598V1133H0V415.598Z" fill="#3B3570"/>
<path opacity="0.5" d="M744 390C744 390 621.908 404.557 408.246 423.625C194.585 442.694 0 390 0 390V1133H744V390Z" fill="#3B3570"/>
<defs>
<radialGradient id="paint0_radial_56_636" cx="0" cy="0" r="1" gradientUnits="userSpaceOnUse" gradientTransform="translate(372) rotate(90) scale(566.5 805.046)">
<stop stop-color="#37246F"/>
<stop offset="1" stop-color="#271E43"/>
</radialGradient>
<clipPath id="clip0_56_636">
<rect width="744" height="1133" fill="white"/>
</clipPath>
</defs>
</svg>
