<svg width="390" height="91" viewBox="0 0 390 91" fill="none" xmlns="http://www.w3.org/2000/svg">
<path d="M390 28.7369C341.527 10.5301 260.753 0.0572934 190.014 1.0669C119.274 2.07651 42.6554 16.0557 0.00010516 29.7361L0.0517081 91H390V28.7369Z" fill="#FFEBA3"/>
<path d="M390 32.7973C341.521 15.7918 253.014 7.07408 194.932 5.1881C136.851 3.30212 48.4792 15.8197 0 32.7973V91H390V32.7973Z" fill="#FED63E"/>
<path opacity="0.7" d="M328.5 24.4732C319.328 24.4732 319.5 36.2072 333 36.2073C349.193 36.2074 377.914 52.6008 384.234 49.8454C392.121 46.4067 385.501 40.9108 382.461 38.2073C376.969 33.3221 345.5 24.4731 328.5 24.4732Z" fill="#FFE7A6"/>
<path opacity="0.7" d="M307.001 28.4175C307.001 35.0243 318 35.291 318 28.4175C318 21.5441 306.886 19.5046 307.001 28.4175Z" fill="#FFE7A6"/>
</svg>
