<?xml version="1.0" encoding="utf-8"?>
<!-- Generator: Adobe Illustrator 26.3.1, SVG Export Plug-In . SVG Version: 6.00 Build 0)  -->
<svg version="1.1" id="圖層_1" xmlns="http://www.w3.org/2000/svg" xmlns:xlink="http://www.w3.org/1999/xlink" x="0px" y="0px"
	 viewBox="0 0 310 110" style="enable-background:new 0 0 310 110;" xml:space="preserve">
<style type="text/css">
	.st0{fill:#FFEBA3;}
	.st1{fill:#FED63E;}
	.st2{opacity:0.7;fill:#FFE7A6;enable-background:new    ;}
</style>
<path class="st0" d="M147.7,104.5c67,0,73.9,3,112.8-5.3c38.5-8.2,46.2-28.6,42.7-50.7c-3.5-22.1-16.6-28-32.9-33.4
	C245,6.5,190.5,7.5,141,6C91.5,4.5,44.7,11.5,29.5,19.5c-30.6,16.1-26,49.6-11.8,65.9C32,101.7,80.8,104.5,147.7,104.5z"/>
<path class="st1" d="M148,103.5c66,0,72.8,2.9,111.2-5.1c37.9-8,45.5-27.7,42-49.1c-3.5-21.4-16.4-27.1-32.4-32.4
	c-25-8.2-78.7-7.2-127.5-8.7C92.6,6.7,46.4,13.5,31.5,21.3C1.3,36.9,5.8,69.3,19.9,85C33.9,100.8,82,103.5,148,103.5z"/>
<path class="st2" d="M249.1,18c-8.6,0.2-11.9,14.8,9.5,14.2c15.2-0.4,25.6,18.8,32,17.7c7.9-1.4,0-10.7-2.2-13.9
	C284.5,30.3,266.1,17.6,249.1,18z"/>
<path class="st2" d="M227.6,21.9c-0.8,6.6,10,8.2,10.9,1.4C239.4,16.5,228.6,13,227.6,21.9z"/>
</svg>
