<svg width="212" height="79" viewBox="0 0 212 79" fill="none" xmlns="http://www.w3.org/2000/svg">
<path d="M1.19678 40.129C1.19678 21.0753 18.4197 5.90142 37.4425 6.98799C53.8286 7.92396 76.2575 8.69434 105.697 8.69434C135.136 8.69434 157.565 7.92396 173.951 6.98799C192.974 5.90142 210.197 21.0753 210.197 40.129C210.197 58.5365 194.145 73.0024 175.773 71.8531C157.766 70.7266 133.641 69.6943 105.697 69.6943C77.7524 69.6943 53.6275 70.7266 35.6206 71.8531C17.2491 73.0024 1.19678 58.5365 1.19678 40.129Z" fill="#EB4452"/>
<path opacity="0.4" d="M1.28631 43.6233C0.649119 24.5802 17.355 8.83887 36.4035 9.28868C52.8117 9.67614 75.2538 9.69603 104.677 8.71153C134.099 7.72702 156.49 6.20702 172.836 4.7236C191.811 3.00147 209.532 17.5909 210.169 36.634C210.785 55.0311 195.225 70.0258 176.826 69.4915C158.791 68.9679 134.645 68.7429 106.717 69.6774C78.7878 70.6119 54.711 72.4504 36.7518 74.1785C18.429 75.9415 1.90189 62.0205 1.28631 43.6233Z" fill="#EB4494"/>
<path opacity="0.4" d="M1.22949 36.4117C1.90719 17.3699 19.6589 2.81827 38.631 4.58075C54.9735 6.09895 77.3608 7.66658 106.781 8.71367C136.202 9.76076 158.644 9.78862 175.053 9.43607C194.103 9.02678 210.775 24.8036 210.097 43.8453C209.443 62.2411 192.886 76.127 174.567 74.325C156.611 72.5587 132.539 70.669 104.612 69.6751C76.6851 68.6812 52.5388 68.8547 34.5032 69.3401C16.1024 69.8352 0.574775 54.8075 1.22949 36.4117Z" fill="#EB7644"/>
<path opacity="0.7" d="M179.624 12.6514C175.571 12.7598 174.034 19.624 184.09 19.356C191.247 19.1653 196.182 28.2369 199.186 27.7006C202.935 27.0313 199.168 22.637 198.149 21.1356C196.307 18.4226 187.639 12.4371 179.624 12.6514Z" fill="#FFA6AB"/>
<path opacity="0.7" d="M169.497 14.4761C169.106 17.5679 174.237 18.3442 174.644 15.1277C175.051 11.9112 169.971 10.2984 169.497 14.4761Z" fill="#FFA6AB"/>
</svg>
