<svg id="eEPVHay4wtR1" xmlns="http://www.w3.org/2000/svg" xmlns:xlink="http://www.w3.org/1999/xlink" viewBox="0 0 346 138" shape-rendering="geometricPrecision" text-rendering="geometricPrecision">
<style><![CDATA[
#eEPVHay4wtR2_to {animation: eEPVHay4wtR2_to__to 5000ms linear infinite normal forwards}@keyframes eEPVHay4wtR2_to__to { 0% {transform: translate(174.500111px,72.999984px)} 20% {transform: translate(176.500111px,70.999984px)} 40% {transform: translate(176.000111px,71.499984px)} 60% {transform: translate(171.500111px,71.999984px)} 80% {transform: translate(173.000111px,72.499984px)} 100% {transform: translate(174.500111px,72.999984px)}} #eEPVHay4wtR2_tr {animation: eEPVHay4wtR2_tr__tr 5000ms linear infinite normal forwards}@keyframes eEPVHay4wtR2_tr__tr { 0% {transform: rotate(0deg)} 20% {transform: rotate(-1deg)} 40% {transform: rotate(1deg)} 60% {transform: rotate(1deg)} 80% {transform: rotate(2deg)} 100% {transform: rotate(0deg)}} #eEPVHay4wtR2_ts {animation: eEPVHay4wtR2_ts__ts 5000ms linear infinite normal forwards}@keyframes eEPVHay4wtR2_ts__ts { 0% {transform: scale(1,1)} 20% {transform: scale(0.99,0.99)} 40% {transform: scale(0.9925,1)} 60% {transform: scale(1.01,0.99)} 80% {transform: scale(1.005,0.995)} 100% {transform: scale(1,1)}} #eEPVHay4wtR3_to {animation: eEPVHay4wtR3_to__to 5000ms linear infinite normal forwards}@keyframes eEPVHay4wtR3_to__to { 0% {transform: translate(172.877525px,68.106473px)} 20% {transform: translate(175.877525px,66.106473px)} 40% {transform: translate(175.877525px,68.106473px)} 60% {transform: translate(169.877525px,70.106473px)} 80% {transform: translate(171.877525px,69.106473px)} 100% {transform: translate(172.88px,68.106473px)}} #eEPVHay4wtR3_tr {animation: eEPVHay4wtR3_tr__tr 5000ms linear infinite normal forwards}@keyframes eEPVHay4wtR3_tr__tr { 0% {transform: rotate(0deg)} 20% {transform: rotate(-1deg)} 40% {transform: rotate(1deg)} 60% {transform: rotate(-1deg)} 80% {transform: rotate(1deg)} 100% {transform: rotate(0deg)}} #eEPVHay4wtR3_ts {animation: eEPVHay4wtR3_ts__ts 5000ms linear infinite normal forwards}@keyframes eEPVHay4wtR3_ts__ts { 0% {transform: scale(1,1)} 20% {transform: scale(0.98,0.98)} 40% {transform: scale(0.99,0.98)} 60% {transform: scale(0.98,0.986667)} 80% {transform: scale(0.99,0.993334)} 100% {transform: scale(1,1)}} #eEPVHay4wtR4_to {animation: eEPVHay4wtR4_to__to 5000ms linear infinite normal forwards}@keyframes eEPVHay4wtR4_to__to { 0% {transform: translate(296.181671px,41.784649px)} 28% {transform: translate(309.461361px,42.740203px)} 52% {transform: translate(309.40911px,46.898867px)} 76% {transform: translate(304.118134px,48.74277px)} 100% {transform: translate(296.181671px,41.784649px)}} #eEPVHay4wtR4_ts {animation: eEPVHay4wtR4_ts__ts 5000ms linear infinite normal forwards}@keyframes eEPVHay4wtR4_ts__ts { 0% {transform: scale(1,1)} 28% {transform: scale(0.9,1)} 52% {transform: scale(0.8,1)} 76% {transform: scale(0.9,1)} 100% {transform: scale(1,1)}} #eEPVHay4wtR5_to {animation: eEPVHay4wtR5_to__to 5000ms linear infinite normal forwards}@keyframes eEPVHay4wtR5_to__to { 0% {transform: translate(255.499908px,32.552107px)} 28% {transform: translate(270.597117px,31.532561px)} 52% {transform: translate(264.935664px,36.000453px)} 76% {transform: translate(257.499893px,34.621115px)} 100% {transform: translate(255.499908px,32.552107px)}} #eEPVHay4wtR6_to {animation: eEPVHay4wtR6_to__to 5000ms linear infinite normal forwards}@keyframes eEPVHay4wtR6_to__to { 0% {transform: translate(32.877382px,108.335423px)} 28% {transform: translate(27.877382px,106.335423px)} 52% {transform: translate(24.499004px,102.984072px)} 76% {transform: translate(34.188193px,105.659748px)} 100% {transform: translate(32.877382px,108.335423px)}} #eEPVHay4wtR6_ts {animation: eEPVHay4wtR6_ts__ts 5000ms linear infinite normal forwards}@keyframes eEPVHay4wtR6_ts__ts { 0% {transform: scale(1,1)} 28% {transform: scale(0.8,0.9)} 52% {transform: scale(0.864865,1.1)} 76% {transform: scale(1.1,1.1)} 100% {transform: scale(1,1)}} #eEPVHay4wtR7_to {animation: eEPVHay4wtR7_to__to 5000ms linear infinite normal forwards}@keyframes eEPVHay4wtR7_to__to { 0% {transform: translate(52.22476px,117.497189px)} 28% {transform: translate(43.22476px,115.497189px)} 52% {transform: translate(40.22476px,112.497189px)} 76% {transform: translate(54.22476px,113.997189px)} 100% {transform: translate(52.22476px,117.497189px)}} #eEPVHay4wtR7_ts {animation: eEPVHay4wtR7_ts__ts 5000ms linear infinite normal forwards}@keyframes eEPVHay4wtR7_ts__ts { 0% {transform: scale(1,1)} 28% {transform: scale(1.1,1.1)} 52% {transform: scale(1,1)} 76% {transform: scale(1,1.1)} 100% {transform: scale(1,1)}}
]]></style>
<g id="eEPVHay4wtR2_to" transform="translate(174.500111,72.999984)"><g id="eEPVHay4wtR2_tr" transform="rotate(0)"><g id="eEPVHay4wtR2_ts" transform="scale(1,1)"><path d="M254.264,22.8897c-60.309-6.3387-153.3-22.916874-197.296-10.2395C13.5213,25.1693,1.02594,56.806,4.56807,86.7641C6.90657,106.542,20.2667,119.756,38.615,128.038c55.8092,25.19,135.231-6.076,195.37,0c16.807,1.698,41.831,4.421,61.159,4.503c13.679-.422,26.854-6.383,36.127-16.306c4.63-4.955,8.219-10.771,10.559-17.1119c6.732-18.2453,2.585-39.8496-10.943-54.0515-8.831-9.2707-16.314-15.8432-76.623-22.1819Z" transform="translate(-174.500111,-72.999984)" fill="#ffeba3"/></g></g></g><g id="eEPVHay4wtR3_to" transform="translate(172.877525,68.106473)"><g id="eEPVHay4wtR3_tr" transform="rotate(0)"><g id="eEPVHay4wtR3_ts" transform="scale(1,1)"><path d="M224,11.5C147.5,11.4999,98.4998,-8.00001,53.9998,5C10.0556,17.8377,-2.58282,50.2794,0.999871,81C3.36515,101.282,16.9415,117.508,35.4998,126c56.4483,25.831,137.7272-8.906,198.5552-2.676c17,1.741,41.298,4.534,60.848,4.618c13.836-.433,27.162-6.546,36.541-16.721c4.683-5.081,8.313-11.045,10.679-17.5475c6.809-18.7097,2.616-40.8637-11.068-55.427C322.123,28.7399,300.5,11.5,224,11.5Z" transform="translate(-172.877525,-68.106473)" fill="#fed63e"/></g></g></g><g id="eEPVHay4wtR4_to" transform="translate(296.181671,41.784649)"><g id="eEPVHay4wtR4_ts" transform="scale(1,1)"><path d="M273.569,28.0447C264.5,29.4167,263,44.9999,285.5,41.5978c16.011-2.421,29.669,16.2266,36.26,14.2031c8.225-2.5252-1.48-11.1734-4.194-14.2032-4.905-5.4746-26.066-16.2659-43.997-13.553Z" transform="translate(-296.61821,-41.740203)" opacity="0.7" fill="#ffe7a6"/></g></g><g id="eEPVHay4wtR5_to" transform="translate(255.499908,32.552107)"><path d="M248.001,33.1778c0,9.3024,14.999,9.6779,14.999,0c0-9.6778-15.155-12.5494-14.999,0Z" transform="translate(-255.499908,-32.552107)" opacity="0.7" fill="#ffe7a6"/></g><g id="eEPVHay4wtR6_to" transform="translate(32.877382,108.335423)"><g id="eEPVHay4wtR6_ts" transform="scale(1,1)"><path d="M22.2729,100.494c-4.9689,3.54,5.4311,14.621,16.9866,16.072c7.7405.971,7.2222-5.048-1.04-7.253-8.2622-2.204-12.1911-11.5455-15.9466-8.819Z" transform="translate(-32.877382,-108.335423)" opacity="0.5" fill="#ffe7a6"/></g></g><g id="eEPVHay4wtR7_to" transform="translate(52.22476,117.497189)"><g id="eEPVHay4wtR7_ts" transform="scale(1,1)"><path d="M48.4926,115.445c-2.8724,3.799,4.4402,7.424,7.4261,4.371s-4.4454-8.309-7.4261-4.371Z" transform="translate(-52.22476,-117.497189)" opacity="0.4" fill="#ffe7a6"/></g></g></svg>
