<svg width="57" height="61" viewBox="0 0 57 61" fill="none" xmlns="http://www.w3.org/2000/svg">
<g clip-path="url(#clip0_5_12528)">
<path d="M56.6295 23.5157C54.7984 12.8933 47.601 4.50049 37.2767 1.32124C30.9689 -0.590465 23.4736 -0.447088 18.8385 1.86981C14.2701 3.98931 10.1725 6.64908 6.84146 10.3894C-1.52251 19.8274 -2.37036 34.6618 5.14784 44.8707C6.48071 46.6731 8.03038 48.3054 9.76208 49.731C9.22254 50.77 6.1186 54.8697 3.37922 55.944C2.38346 56.3347 2.05848 57.1576 2.20014 57.9077C1.38978 59.1939 1.34603 60.9997 3.38963 60.9997C7.81431 60.9997 14.5951 58.6952 16.6387 57.4048C17.8886 56.6131 19.0156 55.7757 19.9718 55.2271C26.3359 57.1887 33.3312 57.0433 39.5141 54.2422C51.0445 49.0203 58.8127 36.2244 56.6191 23.5157" fill="#E65642"/>
<path d="M28.6416 17.4135C27.0073 15.0145 24.5272 13.3221 21.6984 12.6755C19.0194 12.0898 15.3259 12.367 12.9157 13.7574C7.96398 16.7652 4.83088 22.1785 5.31834 28.1067C5.55582 30.9916 6.94947 33.6618 8.84725 35.863C10.5892 37.88 13.025 39.1686 15.6718 39.4732C18.4111 39.7859 21.3338 38.8229 23.6607 37.4138C25.8457 36.0964 27.6735 34.2618 28.9833 32.0714C31.5977 27.6648 31.6206 21.6783 28.6416 17.4135ZM16.5259 33.495C12.7074 32.8384 10.0201 27.7003 12.2907 22.9811C13.2282 21.0238 15.453 17.3864 18.4361 17.3009C22.915 17.18 24.1086 21.3031 24.2878 23.2145C24.7211 27.8462 22.1838 34.4685 16.5259 33.495Z" fill="white"/>
<path d="M23.4004 35.7816C24.4566 36.5988 25.5919 37.5597 26.8064 38.1412C28.3125 38.8625 29.902 39.1293 32.0769 38.3372C33.5184 37.814 34.8996 36.1027 33.7434 33.8827C32.8601 32.1776 30.9061 32.632 29.902 32.8988C28.8417 33.1761 27.4126 32.5049 26.1898 31.544C24.7185 30.3531 23.1404 29.3009 21.4755 28.4006C20.409 27.8128 18.8424 27.4438 18.2445 28.5736C17.6696 29.6659 18.2737 30.8269 19.0778 31.8504C20.2569 33.3512 22.4484 35.0458 23.4004 35.7816Z" fill="white"/>
<g clip-path="url(#clip1_5_12528)">
<path d="M41.6124 18.4292C39.2853 21.2574 37.1695 24.2602 35.2829 27.4123C34.3458 28.9868 35.8962 30.9711 37.6017 30.4937C39.5421 29.951 46.884 27.8781 46.111 32.2218C45.5296 35.4941 41.259 37.9932 38.3747 36.2627C36.0946 34.8979 34.022 38.5219 36.3044 39.8821C41.5965 43.0496 49.0911 39.0576 50.1377 32.9694C50.6849 29.7856 49.0934 26.9139 46.0974 25.8542C42.9805 24.7409 39.5786 25.591 36.5096 26.4528L38.8261 29.5318C40.5194 26.6775 42.4203 23.9573 44.5127 21.3941C45.2218 20.5277 45.3449 19.2793 44.5127 18.4292C43.7808 17.6839 42.3238 17.5581 41.6101 18.4292H41.6124Z" fill="white"/>
<path d="M43.223 21.2203C45.8223 21.1706 48.4208 21.1853 51.0186 21.2645C53.6612 21.346 53.6589 17.1537 51.0186 17.0722C48.4223 16.993 45.8238 16.9783 43.223 17.028C40.5849 17.0769 40.5781 21.2692 43.223 21.2203Z" fill="white"/>
</g>
</g>
<defs>
<clipPath id="clip0_5_12528">
<rect width="57" height="61" fill="white"/>
</clipPath>
<clipPath id="clip1_5_12528">
<rect width="19" height="25" fill="white" transform="translate(34 17)"/>
</clipPath>
</defs>
</svg>
