<svg width="57" height="61" viewBox="0 0 57 61" fill="none" xmlns="http://www.w3.org/2000/svg">
<g clip-path="url(#clip0_5_10425)">
<path d="M56.6295 23.5157C54.7983 12.8933 47.601 4.50049 37.2767 1.32124C30.9688 -0.590465 23.4736 -0.447088 18.8385 1.86981C14.2701 3.98931 10.1724 6.64908 6.84143 10.3894C-1.52254 19.8274 -2.37039 34.6618 5.14781 44.8707C6.48068 46.6731 8.03035 48.3054 9.76205 49.731C9.22251 50.77 6.11857 54.8697 3.37919 55.944C2.38343 56.3347 2.05845 57.1576 2.20011 57.9077C1.38975 59.1939 1.346 60.9997 3.3896 60.9997C7.81428 60.9997 14.595 58.6952 16.6386 57.4048C17.8885 56.6131 19.0155 55.7757 19.9717 55.2271C26.3358 57.1887 33.3312 57.0433 39.514 54.2422C51.0444 49.0203 58.8126 36.2244 56.619 23.5157" fill="#E65642"/>
<path d="M28.6416 17.4135C27.0073 15.0145 24.5272 13.3221 21.6984 12.6755C19.0194 12.0898 15.3259 12.367 12.9157 13.7574C7.96398 16.7652 4.83088 22.1785 5.31834 28.1067C5.55582 30.9916 6.94947 33.6618 8.84725 35.863C10.5892 37.88 13.025 39.1686 15.6718 39.4732C18.4111 39.7859 21.3338 38.8229 23.6607 37.4138C25.8457 36.0964 27.6735 34.2618 28.9833 32.0714C31.5977 27.6648 31.6206 21.6783 28.6416 17.4135ZM16.5259 33.495C12.7074 32.8384 10.0201 27.7003 12.2907 22.9811C13.2282 21.0238 15.453 17.3864 18.4361 17.3009C22.915 17.18 24.1086 21.3031 24.2878 23.2145C24.7211 27.8462 22.1838 34.4685 16.5259 33.495Z" fill="white"/>
<path d="M23.4004 35.7816C24.4566 36.5988 25.5919 37.5597 26.8064 38.1412C28.3125 38.8625 29.902 39.1293 32.0769 38.3372C33.5184 37.814 34.8996 36.1027 33.7434 33.8827C32.8601 32.1776 30.9061 32.632 29.902 32.8988C28.8417 33.1761 27.4126 32.5049 26.1898 31.544C24.7185 30.3531 23.1404 29.3009 21.4755 28.4006C20.409 27.8128 18.8424 27.4438 18.2445 28.5736C17.6696 29.6659 18.2737 30.8269 19.0778 31.8504C20.2569 33.3512 22.4484 35.0458 23.4004 35.7816Z" fill="white"/>
<path d="M41.355 25.1847C39.5598 30.6883 38.63 36.4362 38.5989 42.2238C38.5781 45.4342 43.5777 45.4384 43.5986 42.2238C43.6346 36.8835 44.5047 31.5814 46.1776 26.5083C46.5942 25.2283 45.688 23.7862 44.4298 23.4413C43.0799 23.0652 41.7758 23.8964 41.355 25.1847Z" fill="white"/>
</g>
<defs>
<clipPath id="clip0_5_10425">
<rect width="57" height="61" fill="white"/>
</clipPath>
</defs>
</svg>
