<svg width="57" height="62" viewBox="0 0 57 62" fill="none" xmlns="http://www.w3.org/2000/svg">
<g clip-path="url(#clip0_5_14247)">
<path d="M56.6295 23.5896C54.7983 12.9339 47.601 4.51475 37.2767 1.32554C30.9688 -0.592161 23.4736 -0.448334 18.8385 1.87583C14.2701 4.00197 10.1724 6.67007 6.84143 10.4221C-1.52254 19.8897 -2.37039 34.7706 5.14781 45.0115C6.48068 46.8195 8.03035 48.4569 9.76205 49.887C9.22251 50.9292 6.11857 55.0419 3.37919 56.1195C2.38343 56.5114 2.05845 57.3369 2.20011 58.0893C1.38975 59.3796 1.346 61.191 3.3896 61.191C7.81428 61.191 14.595 58.8794 16.6386 57.5849C17.8885 56.7907 19.0155 55.9507 19.9717 55.4004C26.3358 57.3681 33.3312 57.2222 39.514 54.4124C51.0444 49.1741 58.8126 36.3381 56.619 23.5896" fill="#E65642"/>
<path d="M28.6416 17.4135C27.0073 15.0145 24.5272 13.3221 21.6984 12.6756C19.0194 12.0898 15.3259 12.3671 12.9157 13.7574C7.96398 16.7653 4.83088 22.1786 5.31834 28.1068C5.55582 30.9916 6.94947 33.6618 8.84725 35.863C10.5892 37.8801 13.025 39.1686 15.6718 39.4733C18.4111 39.7859 21.3338 38.8229 23.6607 37.4138C25.8457 36.0965 27.6735 34.2618 28.9833 32.0714C31.5977 27.6649 31.6206 21.6783 28.6416 17.4135ZM16.5259 33.4951C12.7074 32.8385 10.0201 27.7003 12.2907 22.9811C13.2282 21.0238 15.453 17.3864 18.4361 17.301C22.915 17.1801 24.1086 21.3031 24.2878 23.2145C24.7211 27.8462 22.1838 34.4685 16.5259 33.4951Z" fill="white"/>
<path d="M23.4004 35.7817C24.4566 36.5988 25.5919 37.5597 26.8064 38.1413C28.3125 38.8625 29.902 39.1293 32.0769 38.3372C33.5184 37.814 34.8996 36.1027 33.7434 33.8828C32.8601 32.1777 30.9061 32.6321 29.902 32.8989C28.8417 33.1761 27.4126 32.5049 26.1898 31.544C24.7185 30.3532 23.1404 29.3009 21.4755 28.4007C20.409 27.8128 18.8424 27.4439 18.2445 28.5737C17.6696 29.6659 18.2737 30.827 19.0778 31.8504C20.2569 33.3512 22.4484 35.0459 23.4004 35.7817Z" fill="white"/>
<path d="M40.2054 26.656C40.3366 25.1239 42.8406 25.4491 43.728 25.718C44.2252 25.873 44.7122 26.0588 45.1863 26.2745C45.3571 26.3517 46.2278 26.8999 46.3466 26.8415C46.457 26.9103 46.4278 26.8081 46.2612 26.5309C46.2299 26.1682 46.1716 26.114 46.082 26.3516C45.9195 26.4475 45.7779 26.8728 45.6654 27.0541C45.4279 27.4231 45.1738 27.7837 44.9009 28.1297C42.4677 31.2043 39.1471 33.4388 36.6036 36.4175C35.5974 37.5952 36.2036 39.6546 37.9285 39.6213L49.6693 39.3962C52.0774 39.3503 52.0858 35.5983 49.6693 35.6441L37.9243 35.8713L39.2513 39.0731C41.0511 36.9657 43.2093 35.2189 45.1946 33.3033C46.2637 32.2878 47.2501 31.1886 48.1444 30.0161C49.0172 28.8613 49.9963 27.5148 49.8588 25.9994C49.7151 24.3985 48.4006 23.6273 47.0778 23.0332C45.5883 22.3599 44.0905 21.7825 42.4385 21.7033C39.4471 21.5762 36.7202 23.6148 36.4598 26.6539C36.3723 27.6649 37.3827 28.5299 38.3347 28.5299C39.42 28.5299 40.122 27.6669 40.2095 26.6539L40.2054 26.656Z" fill="white"/>
</g>
<defs>
<clipPath id="clip0_5_14247">
<rect width="57" height="61.1912" fill="white"/>
</clipPath>
</defs>
</svg>
