<?xml version="1.0" encoding="UTF-8"?>
<svg id="_層_1" data-name="圖層 1" xmlns="http://www.w3.org/2000/svg" xmlns:xlink="http://www.w3.org/1999/xlink" viewBox="0 0 1200 200">
  <defs>
    <style>
      .cls-1 {
        fill: url(#_命名漸層_4-7);
      }

      .cls-1, .cls-2, .cls-3, .cls-4, .cls-5, .cls-6, .cls-7, .cls-8, .cls-9, .cls-10, .cls-11, .cls-12, .cls-13, .cls-14, .cls-15, .cls-16, .cls-17, .cls-18, .cls-19, .cls-20, .cls-21, .cls-22, .cls-23, .cls-24, .cls-25, .cls-26, .cls-27, .cls-28, .cls-29, .cls-30, .cls-31, .cls-32, .cls-33, .cls-34, .cls-35, .cls-36, .cls-37, .cls-38, .cls-39, .cls-40, .cls-41, .cls-42, .cls-43, .cls-44, .cls-45, .cls-46, .cls-47, .cls-48, .cls-49, .cls-50, .cls-51, .cls-52, .cls-53, .cls-54, .cls-55, .cls-56, .cls-57, .cls-58, .cls-59, .cls-60, .cls-61, .cls-62, .cls-63, .cls-64, .cls-65, .cls-66, .cls-67, .cls-68, .cls-69 {
        isolation: isolate;
      }

      .cls-1, .cls-7, .cls-11, .cls-14, .cls-15, .cls-17, .cls-18, .cls-21, .cls-23, .cls-24, .cls-25, .cls-33, .cls-35, .cls-41, .cls-43, .cls-46, .cls-47, .cls-48, .cls-49, .cls-50, .cls-56, .cls-61, .cls-65, .cls-68, .cls-69 {
        opacity: .39;
      }

      .cls-2 {
        fill: url(#_命名漸層-10);
      }

      .cls-2, .cls-20, .cls-27, .cls-36, .cls-45, .cls-51, .cls-54 {
        opacity: .35;
      }

      .cls-70 {
        fill: url(#_命名漸層-25);
      }

      .cls-3 {
        fill: url(#_命名漸層-7);
      }

      .cls-3, .cls-10, .cls-13, .cls-19, .cls-28, .cls-29, .cls-42, .cls-44, .cls-52, .cls-55, .cls-62 {
        opacity: .49;
      }

      .cls-71, .cls-8, .cls-53, .cls-57 {
        opacity: .31;
      }

      .cls-4 {
        fill: url(#_命名漸層-3);
      }

      .cls-4, .cls-9, .cls-12, .cls-22, .cls-72, .cls-31, .cls-38, .cls-40, .cls-58, .cls-59, .cls-60, .cls-63, .cls-67 {
        opacity: .7;
      }

      .cls-73 {
        fill: url(#_命名漸層_4-37);
      }

      .cls-5 {
        fill: url(#_命名漸層_2-3);
      }

      .cls-5, .cls-32, .cls-34, .cls-37 {
        opacity: .6;
      }

      .cls-6 {
        fill: url(#_命名漸層_4-30);
      }

      .cls-6, .cls-26, .cls-66 {
        opacity: .33;
      }

      .cls-74 {
        fill: url(#_命名漸層_4-13);
      }

      .cls-7 {
        fill: url(#_命名漸層_4-38);
      }

      .cls-75 {
        fill: url(#_命名漸層-22);
      }

      .cls-8 {
        fill: url(#_命名漸層_3-4);
      }

      .cls-9 {
        fill: url(#_命名漸層-16);
      }

      .cls-10 {
        fill: url(#_命名漸層-6);
      }

      .cls-11 {
        fill: url(#_命名漸層_4-42);
      }

      .cls-76 {
        fill: url(#_命名漸層_4-25);
      }

      .cls-77 {
        fill: url(#_命名漸層-27);
      }

      .cls-12 {
        fill: url(#_命名漸層-36);
      }

      .cls-78 {
        fill: url(#_命名漸層_4-14);
      }

      .cls-13 {
        fill: url(#_命名漸層_4-41);
      }

      .cls-79 {
        fill: url(#_命名漸層_6);
      }

      .cls-14 {
        fill: url(#_命名漸層_4-6);
      }

      .cls-15 {
        fill: url(#_命名漸層_4-23);
      }

      .cls-16 {
        fill: url(#_命名漸層_7);
      }

      .cls-16, .cls-39, .cls-64 {
        opacity: .56;
      }

      .cls-80 {
        fill: url(#_命名漸層_3-12);
      }

      .cls-17 {
        fill: url(#_命名漸層_4-12);
      }

      .cls-18 {
        fill: url(#_命名漸層_4-26);
      }

      .cls-19 {
        fill: url(#_命名漸層-40);
      }

      .cls-20 {
        fill: url(#_命名漸層-14);
      }

      .cls-21 {
        fill: url(#_命名漸層_4-18);
      }

      .cls-22 {
        fill: url(#_命名漸層-4);
      }

      .cls-23 {
        fill: url(#_命名漸層_4-8);
      }

      .cls-81 {
        fill: url(#_命名漸層_4-39);
      }

      .cls-24 {
        fill: url(#_命名漸層_4-22);
      }

      .cls-25 {
        fill: url(#_命名漸層_4-2);
      }

      .cls-26 {
        fill: url(#_命名漸層_4-31);
      }

      .cls-27 {
        fill: url(#_命名漸層-11);
      }

      .cls-28 {
        fill: url(#_命名漸層-41);
      }

      .cls-82 {
        fill: url(#_命名漸層_4-27);
      }

      .cls-83 {
        fill: url(#_命名漸層_4-34);
      }

      .cls-84 {
        fill: url(#_命名漸層_4-24);
      }

      .cls-29 {
        fill: url(#_命名漸層-39);
      }

      .cls-30 {
        fill: url(#_命名漸層_3-11);
        opacity: .41;
      }

      .cls-85 {
        fill: url(#_命名漸層-32);
      }

      .cls-31 {
        fill: url(#_命名漸層-15);
      }

      .cls-32 {
        fill: url(#_命名漸層_2-4);
      }

      .cls-86 {
        fill: url(#_命名漸層_3-6);
      }

      .cls-87 {
        fill: url(#_命名漸層-30);
      }

      .cls-88 {
        fill: url(#_命名漸層_4-16);
      }

      .cls-89 {
        fill: url(#_命名漸層_5);
      }

      .cls-33 {
        fill: url(#_命名漸層_4-33);
      }

      .cls-34 {
        fill: url(#_命名漸層_2);
      }

      .cls-35 {
        fill: url(#_命名漸層_4-28);
      }

      .cls-36 {
        fill: url(#_命名漸層-8);
      }

      .cls-90 {
        fill: url(#_命名漸層_4-5);
      }

      .cls-91 {
        fill: url(#_命名漸層_3-8);
      }

      .cls-92 {
        fill: url(#_命名漸層-31);
      }

      .cls-93 {
        fill: url(#_命名漸層-23);
      }

      .cls-37 {
        fill: url(#_命名漸層_2-2);
      }

      .cls-38 {
        fill: url(#_命名漸層);
      }

      .cls-94 {
        fill: url(#_命名漸層-26);
      }

      .cls-39 {
        fill: url(#_命名漸層_3-3);
      }

      .cls-40 {
        fill: url(#_命名漸層-19);
      }

      .cls-41 {
        fill: url(#_命名漸層_4-36);
      }

      .cls-42 {
        fill: url(#_命名漸層-21);
      }

      .cls-95 {
        fill: url(#_命名漸層_4-17);
      }

      .cls-43 {
        fill: url(#_命名漸層_4-44);
      }

      .cls-96 {
        fill: url(#_命名漸層_4-21);
      }

      .cls-44 {
        fill: url(#_命名漸層-28);
      }

      .cls-45 {
        fill: url(#_命名漸層-9);
      }

      .cls-46 {
        fill: url(#_命名漸層_4-11);
      }

      .cls-47 {
        fill: url(#_命名漸層_4-9);
      }

      .cls-48 {
        fill: url(#_命名漸層_4-35);
      }

      .cls-49 {
        fill: url(#_命名漸層_4-43);
      }

      .cls-50 {
        fill: url(#_命名漸層_4-10);
      }

      .cls-51 {
        fill: url(#_命名漸層-12);
      }

      .cls-97 {
        fill: url(#_命名漸層-33);
      }

      .cls-98 {
        fill: url(#_命名漸層_4-4);
      }

      .cls-52 {
        fill: url(#_命名漸層-5);
      }

      .cls-99 {
        fill: url(#_命名漸層_3-7);
      }

      .cls-53 {
        fill: url(#_命名漸層_3);
      }

      .cls-100 {
        fill: url(#_命名漸層-24);
      }

      .cls-54 {
        fill: url(#_命名漸層-13);
      }

      .cls-55 {
        fill: url(#_命名漸層-38);
      }

      .cls-56 {
        fill: url(#_命名漸層_4-40);
      }

      .cls-57 {
        fill: url(#_命名漸層_3-2);
      }

      .cls-58 {
        fill: url(#_命名漸層-29);
      }

      .cls-59 {
        fill: url(#_命名漸層-18);
      }

      .cls-60 {
        fill: url(#_命名漸層-35);
      }

      .cls-101 {
        fill: url(#_命名漸層-17);
      }

      .cls-61 {
        fill: url(#_命名漸層_4-3);
      }

      .cls-102 {
        fill: url(#_命名漸層-20);
      }

      .cls-62 {
        fill: url(#_命名漸層-37);
      }

      .cls-103 {
        fill: url(#_命名漸層_4-15);
      }

      .cls-63 {
        fill: url(#_命名漸層-34);
      }

      .cls-64 {
        fill: url(#_命名漸層_3-5);
      }

      .cls-104 {
        fill: url(#_命名漸層_4-29);
      }

      .cls-65 {
        fill: url(#_命名漸層_4);
      }

      .cls-66 {
        fill: url(#_命名漸層_4-32);
      }

      .cls-67 {
        fill: url(#_命名漸層-2);
      }

      .cls-68 {
        fill: url(#_命名漸層_4-20);
      }

      .cls-105 {
        fill: url(#_命名漸層_3-9);
      }

      .cls-69 {
        fill: url(#_命名漸層_4-19);
      }

      .cls-106 {
        fill: url(#_命名漸層_3-10);
      }
    </style>
    <linearGradient id="_命名漸層" data-name="未命名漸層" x1="46.23" y1="-401.63" x2="168.74" y2="-634.39" gradientTransform="translate(0 -402) scale(1 -1)" gradientUnits="userSpaceOnUse">
      <stop offset="0" stop-color="#37ffff"/>
      <stop offset="1" stop-color="#c248f4"/>
    </linearGradient>
    <linearGradient id="_命名漸層_2" data-name="未命名漸層 2" x1="46.12" y1="-401.69" x2="168.64" y2="-634.44" gradientTransform="translate(0 -402) scale(1 -1)" gradientUnits="userSpaceOnUse">
      <stop offset="0" stop-color="#37ffff"/>
      <stop offset="1" stop-color="#bf86d1"/>
    </linearGradient>
    <linearGradient id="_命名漸層_3" data-name="未命名漸層 3" x1="57.98" y1="-417.2" x2="164.53" y2="-612.9" gradientTransform="translate(0 -402) scale(1 -1)" gradientUnits="userSpaceOnUse">
      <stop offset="0" stop-color="#c7ffff"/>
      <stop offset="1" stop-color="#ff7cd9"/>
    </linearGradient>
    <linearGradient id="_命名漸層_4" data-name="未命名漸層 4" x1="57.8" y1="-394.54" x2="109.86" y2="-538.67" gradientTransform="translate(0 -402) scale(1 -1)" gradientUnits="userSpaceOnUse">
      <stop offset="0" stop-color="#c7ffff"/>
      <stop offset="1" stop-color="#61b5d9"/>
    </linearGradient>
    <linearGradient id="_命名漸層_5" data-name="未命名漸層 5" x1="60.4" y1="-428.54" x2="80.59" y2="-465.59" gradientTransform="translate(0 -402) scale(1 -1)" gradientUnits="userSpaceOnUse">
      <stop offset="0" stop-color="#c7ffff"/>
      <stop offset="1" stop-color="#61b5d9"/>
    </linearGradient>
    <linearGradient id="_命名漸層_6" data-name="未命名漸層 6" x1="116.34" y1="-426.4" x2="127.33" y2="-446.63" gradientTransform="translate(0 -402) scale(1 -1)" gradientUnits="userSpaceOnUse">
      <stop offset="0" stop-color="#c7ffff"/>
      <stop offset="1" stop-color="#61b5d9"/>
    </linearGradient>
    <linearGradient id="_命名漸層_7" data-name="未命名漸層 7" x1="94.56" y1="-519.8" x2="140.6" y2="-607.27" gradientTransform="translate(0 -402) scale(1 -1)" gradientUnits="userSpaceOnUse">
      <stop offset="0" stop-color="#c7ffff"/>
      <stop offset="1" stop-color="#ff7cd9"/>
    </linearGradient>
    <linearGradient id="_命名漸層-2" data-name="未命名漸層" x1="254.17" y1="-419.02" x2="360.72" y2="-614.15" xlink:href="#_命名漸層"/>
    <linearGradient id="_命名漸層_4-2" data-name="未命名漸層 4" x1="287.58" y1="-476.1" x2="314.65" y2="-525.67" xlink:href="#_命名漸層_4"/>
    <linearGradient id="_命名漸層_3-2" data-name="未命名漸層 3" x1="254.88" y1="-418.61" x2="361.44" y2="-613.74" xlink:href="#_命名漸層_3"/>
    <linearGradient id="_命名漸層_2-2" data-name="未命名漸層 2" x1="254.17" y1="-419.02" x2="360.72" y2="-614.15" xlink:href="#_命名漸層_2"/>
    <linearGradient id="_命名漸層_4-3" data-name="未命名漸層 4" x1="234.37" y1="-364.9" x2="323.29" y2="-539.13" xlink:href="#_命名漸層_4"/>
    <linearGradient id="_命名漸層_4-4" data-name="未命名漸層 4" x1="256.24" y1="-431.59" x2="272.99" y2="-462.22" xlink:href="#_命名漸層_4"/>
    <linearGradient id="_命名漸層_4-5" data-name="未命名漸層 4" x1="310.28" y1="-429.39" x2="320.36" y2="-447.84" xlink:href="#_命名漸層_4"/>
    <linearGradient id="_命名漸層_3-3" data-name="未命名漸層 3" x1="290.84" y1="-517.1" x2="337.37" y2="-602.25" xlink:href="#_命名漸層_3"/>
    <linearGradient id="_命名漸層-3" data-name="未命名漸層" x1="442.59" y1="-408.98" x2="563.54" y2="-631.34" xlink:href="#_命名漸層"/>
    <linearGradient id="_命名漸層_3-4" data-name="未命名漸層 3" x1="448.89" y1="-271.67" x2="561.75" y2="-962.75" xlink:href="#_命名漸層_3"/>
    <linearGradient id="_命名漸層_2-3" data-name="未命名漸層 2" x1="442.59" y1="-408.98" x2="563.54" y2="-631.34" xlink:href="#_命名漸層_2"/>
    <linearGradient id="_命名漸層_4-6" data-name="未命名漸層 4" x1="446.36" y1="-423.02" x2="490.19" y2="-522.53" xlink:href="#_命名漸層_4"/>
    <linearGradient id="_命名漸層_4-7" data-name="未命名漸層 4" x1="537.45" y1="-445.53" x2="544.63" y2="-488.72" xlink:href="#_命名漸層_4"/>
    <linearGradient id="_命名漸層_4-8" data-name="未命名漸層 4" x1="441.05" y1="-416.05" x2="450.52" y2="-465.47" xlink:href="#_命名漸層_4"/>
    <linearGradient id="_命名漸層_4-9" data-name="未命名漸層 4" x1="572.59" y1="-450.85" x2="581.82" y2="-503.85" xlink:href="#_命名漸層_4"/>
    <linearGradient id="_命名漸層_4-10" data-name="未命名漸層 4" x1="561.33" y1="-561.15" x2="523.87" y2="-595.71" xlink:href="#_命名漸層_4"/>
    <linearGradient id="_命名漸層_4-11" data-name="未命名漸層 4" x1="413.82" y1="-554.69" x2="453.41" y2="-587.02" xlink:href="#_命名漸層_4"/>
    <linearGradient id="_命名漸層_4-12" data-name="未命名漸層 4" x1="475.34" y1="-466.3" x2="532.26" y2="-583.17" xlink:href="#_命名漸層_4"/>
    <linearGradient id="_命名漸層_3-5" data-name="未命名漸層 3" x1="422.96" y1="-469.66" x2="756.36" y2="-742.04" xlink:href="#_命名漸層_3"/>
    <linearGradient id="_命名漸層_4-13" data-name="未命名漸層 4" x1="452.11" y1="-431.56" x2="473.71" y2="-509.77" xlink:href="#_命名漸層_4"/>
    <linearGradient id="_命名漸層_4-14" data-name="未命名漸層 4" x1="495.62" y1="-430.59" x2="502.84" y2="-474.71" xlink:href="#_命名漸層_4"/>
    <linearGradient id="_命名漸層_3-6" data-name="未命名漸層 3" x1="445.33" y1="-419.09" x2="443.81" y2="-440.09" xlink:href="#_命名漸層_3"/>
    <linearGradient id="_命名漸層_4-15" data-name="未命名漸層 4" x1="421.8" y1="-551.07" x2="427" y2="-582.86" xlink:href="#_命名漸層_4"/>
    <linearGradient id="_命名漸層_4-16" data-name="未命名漸層 4" x1="548.47" y1="-559.87" x2="554.69" y2="-597.93" xlink:href="#_命名漸層_4"/>
    <linearGradient id="_命名漸層_4-17" data-name="未命名漸層 4" x1="573.76" y1="-447.26" x2="577.58" y2="-470.73" xlink:href="#_命名漸層_4"/>
    <linearGradient id="_命名漸層-4" data-name="未命名漸層" x1="643.72" y1="-409.57" x2="765.78" y2="-633.78" xlink:href="#_命名漸層"/>
    <linearGradient id="_命名漸層_3-7" data-name="未命名漸層 3" x1="638.67" y1="-396.63" x2="658.62" y2="-654.91" xlink:href="#_命名漸層_3"/>
    <linearGradient id="_命名漸層_3-8" data-name="未命名漸層 3" x1="696.86" y1="-388.97" x2="717.2" y2="-652.06" xlink:href="#_命名漸層_3"/>
    <linearGradient id="_命名漸層_3-9" data-name="未命名漸層 3" x1="670.54" y1="-391.02" x2="690.89" y2="-654.11" xlink:href="#_命名漸層_3"/>
    <linearGradient id="_命名漸層_2-4" data-name="未命名漸層 2" x1="643.72" y1="-409.57" x2="765.78" y2="-633.78" xlink:href="#_命名漸層_2"/>
    <linearGradient id="_命名漸層_4-18" data-name="未命名漸層 4" x1="673.79" y1="-457.79" x2="735.1" y2="-570.43" xlink:href="#_命名漸層_4"/>
    <linearGradient id="_命名漸層_4-19" data-name="未命名漸層 4" x1="643.68" y1="-413.43" x2="653.01" y2="-462.01" xlink:href="#_命名漸層_4"/>
    <linearGradient id="_命名漸層_3-10" data-name="未命名漸層 3" x1="648.24" y1="-416.32" x2="646.58" y2="-439.29" xlink:href="#_命名漸層_3"/>
    <linearGradient id="_命名漸層_4-20" data-name="未命名漸層 4" x1="773.99" y1="-450.02" x2="796.3" y2="-495.27" xlink:href="#_命名漸層_4"/>
    <linearGradient id="_命名漸層_4-21" data-name="未命名漸層 4" x1="775.24" y1="-446.95" x2="782.26" y2="-468.16" xlink:href="#_命名漸層_4"/>
    <linearGradient id="_命名漸層_4-22" data-name="未命名漸層 4" x1="662.34" y1="-428.83" x2="673.36" y2="-505.63" xlink:href="#_命名漸層_4"/>
    <linearGradient id="_命名漸層_4-23" data-name="未命名漸層 4" x1="720.2" y1="-428.88" x2="708.19" y2="-489.67" xlink:href="#_命名漸層_4"/>
    <linearGradient id="_命名漸層_4-24" data-name="未命名漸層 4" x1="661.44" y1="-433.59" x2="675.32" y2="-483.72" xlink:href="#_命名漸層_4"/>
    <linearGradient id="_命名漸層_4-25" data-name="未命名漸層 4" x1="710.52" y1="-433.12" x2="712.25" y2="-466.35" xlink:href="#_命名漸層_4"/>
    <linearGradient id="_命名漸層_4-26" data-name="未命名漸層 4" x1="613.93" y1="-555.83" x2="643.64" y2="-593.71" xlink:href="#_命名漸層_4"/>
    <linearGradient id="_命名漸層_4-27" data-name="未命名漸層 4" x1="622.35" y1="-553.3" x2="620.55" y2="-583.55" xlink:href="#_命名漸層_4"/>
    <linearGradient id="_命名漸層_3-11" data-name="未命名漸層 3" x1="705.81" y1="-538.94" x2="740.83" y2="-603.29" xlink:href="#_命名漸層_3"/>
    <linearGradient id="_命名漸層_4-28" data-name="未命名漸層 4" x1="760.47" y1="-560.44" x2="734.53" y2="-600.63" xlink:href="#_命名漸層_4"/>
    <linearGradient id="_命名漸層_4-29" data-name="未命名漸層 4" x1="748.57" y1="-564.41" x2="762.69" y2="-596.56" xlink:href="#_命名漸層_4"/>
    <linearGradient id="_命名漸層-5" data-name="未命名漸層" x1="890.85" y1="-376.95" x2="969.86" y2="-628.08" xlink:href="#_命名漸層"/>
    <linearGradient id="_命名漸層_4-30" data-name="未命名漸層 4" x1="897.53" y1="-412.47" x2="951.22" y2="-546.55" xlink:href="#_命名漸層_4"/>
    <linearGradient id="_命名漸層-6" data-name="未命名漸層" x1="907.69" y1="-371.61" x2="986.71" y2="-622.8" xlink:href="#_命名漸層"/>
    <linearGradient id="_命名漸層-7" data-name="未命名漸層" x1="899.69" y1="-374.12" x2="978.73" y2="-625.31" xlink:href="#_命名漸層"/>
    <linearGradient id="_命名漸層-8" data-name="未命名漸層" x1="806.89" y1="-403.03" x2="905.79" y2="-651.42" xlink:href="#_命名漸層"/>
    <linearGradient id="_命名漸層-9" data-name="未命名漸層" x1="794.98" y1="-407.8" x2="893.88" y2="-656.13" xlink:href="#_命名漸層"/>
    <linearGradient id="_命名漸層-10" data-name="未命名漸層" x1="827.18" y1="-394.9" x2="926.11" y2="-643.4" xlink:href="#_命名漸層"/>
    <linearGradient id="_命名漸層-11" data-name="未命名漸層" x1="861.47" y1="-381.26" x2="960.4" y2="-629.76" xlink:href="#_命名漸層"/>
    <linearGradient id="_命名漸層-12" data-name="未命名漸層" x1="904.05" y1="-364.33" x2="1002.98" y2="-612.76" xlink:href="#_命名漸層"/>
    <linearGradient id="_命名漸層-13" data-name="未命名漸層" x1="906.04" y1="-363.55" x2="1004.94" y2="-611.95" xlink:href="#_命名漸層"/>
    <linearGradient id="_命名漸層-14" data-name="未命名漸層" x1="874.06" y1="-376.28" x2="972.96" y2="-624.68" xlink:href="#_命名漸層"/>
    <linearGradient id="_命名漸層-15" data-name="未命名漸層" x1="824.06" y1="-376.22" x2="952.36" y2="-683.3" xlink:href="#_命名漸層"/>
    <linearGradient id="_命名漸層-16" data-name="未命名漸層" x1="824.11" y1="-376.2" x2="952.41" y2="-683.29" xlink:href="#_命名漸層"/>
    <linearGradient id="_命名漸層-17" data-name="未命名漸層" x1="835.23" y1="-371.54" x2="963.53" y2="-678.69" xlink:href="#_命名漸層"/>
    <linearGradient id="_命名漸層-18" data-name="未命名漸層" x1="930.88" y1="-331.57" x2="1059.18" y2="-638.69" xlink:href="#_命名漸層"/>
    <linearGradient id="_命名漸層-19" data-name="未命名漸層" x1="930.88" y1="-331.57" x2="1059.18" y2="-638.69" xlink:href="#_命名漸層"/>
    <linearGradient id="_命名漸層-20" data-name="未命名漸層" x1="786.18" y1="-392.02" x2="914.48" y2="-699.14" xlink:href="#_命名漸層"/>
    <linearGradient id="_命名漸層-21" data-name="未命名漸層" x1="810.94" y1="-402.13" x2="889.92" y2="-653.19" xlink:href="#_命名漸層"/>
    <linearGradient id="_命名漸層_4-31" data-name="未命名漸層 4" x1="822.24" y1="-441.13" x2="865.3" y2="-578.06" xlink:href="#_命名漸層_4"/>
    <linearGradient id="_命名漸層-22" data-name="未命名漸層" x1="899.22" y1="-344.8" x2="1027.52" y2="-651.92" xlink:href="#_命名漸層"/>
    <linearGradient id="_命名漸層-23" data-name="未命名漸層" x1="877.98" y1="-382.59" x2="956.6" y2="-627.01" xlink:href="#_命名漸層"/>
    <linearGradient id="_命名漸層-24" data-name="未命名漸層" x1="861.29" y1="-360.64" x2="989.59" y2="-667.76" xlink:href="#_命名漸層"/>
    <linearGradient id="_命名漸層-25" data-name="未命名漸層" x1="861.3" y1="-360.64" x2="989.6" y2="-667.76" xlink:href="#_命名漸層"/>
    <linearGradient id="_命名漸層-26" data-name="未命名漸層" x1="750.2" y1="-407.08" x2="878.5" y2="-714.16" xlink:href="#_命名漸層"/>
    <linearGradient id="_命名漸層-27" data-name="未命名漸層" x1="750.2" y1="-407.08" x2="878.5" y2="-714.16" xlink:href="#_命名漸層"/>
    <linearGradient id="_命名漸層-28" data-name="未命名漸層" x1="846.58" y1="-390.94" x2="925.56" y2="-641.97" xlink:href="#_命名漸層"/>
    <linearGradient id="_命名漸層_4-32" data-name="未命名漸層 4" x1="867.02" y1="-461.84" x2="910.64" y2="-600.5" xlink:href="#_命名漸層_4"/>
    <linearGradient id="_命名漸層_4-33" data-name="未命名漸層 4" x1="981.29" y1="-445.26" x2="1003.14" y2="-489.72" xlink:href="#_命名漸層_4"/>
    <linearGradient id="_命名漸層_4-34" data-name="未命名漸層 4" x1="982.57" y1="-442.24" x2="989.4" y2="-463.04" xlink:href="#_命名漸層_4"/>
    <linearGradient id="_命名漸層_4-35" data-name="未命名漸層 4" x1="840.2" y1="-406.31" x2="849.33" y2="-453.99" xlink:href="#_命名漸層_4"/>
    <linearGradient id="_命名漸層_3-12" data-name="未命名漸層 3" x1="844.87" y1="-409.15" x2="843.25" y2="-431.7" xlink:href="#_命名漸層_3"/>
    <linearGradient id="_命名漸層_4-36" data-name="未命名漸層 4" x1="966.77" y1="-569.02" x2="940.52" y2="-609.8" xlink:href="#_命名漸層_4"/>
    <linearGradient id="_命名漸層_4-37" data-name="未命名漸層 4" x1="954.75" y1="-573.33" x2="967.13" y2="-601.6" xlink:href="#_命名漸層_4"/>
    <linearGradient id="_命名漸層_4-38" data-name="未命名漸層 4" x1="806.47" y1="-560.51" x2="835.63" y2="-597.77" xlink:href="#_命名漸層_4"/>
    <linearGradient id="_命名漸層_4-39" data-name="未命名漸層 4" x1="814.47" y1="-558.46" x2="812.73" y2="-588.19" xlink:href="#_命名漸層_4"/>
    <linearGradient id="_命名漸層_4-40" data-name="未命名漸層 4" x1="850.75" y1="-396.55" x2="873.38" y2="-466.84" xlink:href="#_命名漸層_4"/>
    <linearGradient id="_命名漸層-29" data-name="未命名漸層" x1="997.66" y1="-286.89" x2="1124.16" y2="-671.43" xlink:href="#_命名漸層"/>
    <linearGradient id="_命名漸層-30" data-name="未命名漸層" x1="1000.64" y1="-294.8" x2="1163.64" y2="-690.47" xlink:href="#_命名漸層"/>
    <linearGradient id="_命名漸層-31" data-name="未命名漸層" x1="948.06" y1="-316.41" x2="1111.12" y2="-712.21" xlink:href="#_命名漸層"/>
    <linearGradient id="_命名漸層-32" data-name="未命名漸層" x1="1024.13" y1="-284.91" x2="1187.26" y2="-680.9" xlink:href="#_命名漸層"/>
    <linearGradient id="_命名漸層-33" data-name="未命名漸層" x1="1074.87" y1="-264.15" x2="1237.93" y2="-659.95" xlink:href="#_命名漸層"/>
    <linearGradient id="_命名漸層-34" data-name="未命名漸層" x1="1117.65" y1="-247.43" x2="1244.15" y2="-631.97" xlink:href="#_命名漸層"/>
    <linearGradient id="_命名漸層-35" data-name="未命名漸層" x1="1051.2" y1="-269.28" x2="1177.66" y2="-653.79" xlink:href="#_命名漸層"/>
    <linearGradient id="_命名漸層-36" data-name="未命名漸層" x1="930.05" y1="-309.14" x2="1056.52" y2="-693.65" xlink:href="#_命名漸層"/>
    <linearGradient id="_命名漸層-37" data-name="未命名漸層" x1="1100.34" y1="-404.7" x2="1147.63" y2="-555.13" xlink:href="#_命名漸層"/>
    <linearGradient id="_命名漸層-38" data-name="未命名漸層" x1="1123.49" y1="-416.79" x2="1171.88" y2="-570.75" xlink:href="#_命名漸層"/>
    <linearGradient id="_命名漸層-39" data-name="未命名漸層" x1="1119.82" y1="-437.71" x2="1164.7" y2="-580.54" xlink:href="#_命名漸層"/>
    <linearGradient id="_命名漸層-40" data-name="未命名漸層" x1="1022.04" y1="-442.87" x2="1062.57" y2="-571.79" xlink:href="#_命名漸層"/>
    <linearGradient id="_命名漸層-41" data-name="未命名漸層" x1="1069.93" y1="-468.42" x2="1110.65" y2="-597.9" xlink:href="#_命名漸層"/>
    <linearGradient id="_命名漸層_4-41" data-name="未命名漸層 4" x1="1038.58" y1="-409" x2="1040.98" y2="-416.31" xlink:href="#_命名漸層_4"/>
    <linearGradient id="_命名漸層_4-42" data-name="未命名漸層 4" x1="1181.91" y1="-441.8" x2="1197.32" y2="-473.18" xlink:href="#_命名漸層_4"/>
    <linearGradient id="_命名漸層_4-43" data-name="未命名漸層 4" x1="1164.51" y1="-570.24" x2="1144.68" y2="-608.02" xlink:href="#_命名漸層_4"/>
    <linearGradient id="_命名漸層_4-44" data-name="未命名漸層 4" x1="1008.19" y1="-563.67" x2="1029.29" y2="-590.66" xlink:href="#_命名漸層_4"/>
  </defs>
  <path class="cls-38" d="M28.44,39.55C8.33,63.26,10.47,91.98,12.03,116.6c1.36,15.67,7.65,30.5,17.97,42.37,10.32,11.87,24.14,20.16,39.46,23.68,36.64,8.53,77.95,1.64,94.98-19.45,21.87-27.24,30.61-51.57,20.88-90.26-8.21-32.17-41.36-47.84-52.43-51.33C121.82,18.13,63.89-1.93,28.44,39.55Z"/>
  <path class="cls-34" d="M185.12,73.07c-8.2-32.17-41.36-47.84-52.43-51.33C121.61,18.26,63.89-1.93,28.44,39.55,8.33,63.26,10.47,91.98,12.03,116.6c1.36,15.67,7.65,30.5,17.97,42.37,10.32,11.87,24.14,20.16,39.46,23.68,36.64,8.53,77.95,1.64,94.98-19.45,21.66-27.16,30.4-51.49,20.68-90.14Zm-23.14,88.38c-11.04,13.74-34.01,21.95-61.54,21.95-10.29,0-20.54-1.17-30.57-3.49-14.65-3.45-27.84-11.42-37.7-22.78-9.87-11.36-15.91-25.54-17.27-40.53v-1.07c-1.56-24.21-3.28-51.66,15.8-73.85,14.03-16.41,33.4-24.62,57.44-24.62,14.5,.29,28.86,2.82,42.59,7.51l1.07,.33c14.28,4.55,43.24,20.51,50.46,49.24,10.01,39.18-.33,62.49-20.27,87.31Z"/>
  <path class="cls-53" d="M161.37,166.45c-10.05,0-14.48-1.64-19.32-12.31-13.87-30.4,9.76-70.04-17.97-98.14-24.62-24.86,7.55-35.94,37.5-18.55-6.69-5.3-14.02-9.72-21.83-13.17l-1.56-.66-1.31-.53-1.15-.45h-.25l-1.39-.41h-.25l-1.15-.37-.53-.21-2.67-.82-.78-.25-.74-.21-.78-.25-.86-.25-.9-.25-.9-.25h-.21l-.98-.25-1.07-.29-2.22-.74-1.15-.29-1.15-.29-1.23-.29-1.44-.29-1.48-.33-1.52-.29-1.52-.29c-19.08-3.45-45.95-4.1-68.31,11.53l-1.81,1.31-1.76,1.39c-.62,.49-1.19,.94-1.76,1.48l-1.72,1.52c-.62,.53-1.15,1.11-1.72,1.64-.57,.53-1.15,1.11-1.68,1.72,16.99-3.45,37.05-10.34,57.56,13.99,40.66,48.91,63.26,124.85,4.1,131.29-12.93,.55-25.88-.83-38.4-4.1l3.24,1.4h.29l3,1.11h.57c.93,.33,1.87,.62,2.83,.86l.78,.25,3.57,.94c34.67,8.41,73.64,2.63,92.02-15.96Z"/>
  <path class="cls-65" d="M54.74,25.68c-12.7,5.62-22.76,15.9-28.1,28.72-8.25,20.76-15.22,41.4,5.66,59.12,24.62,21.05,56.74,18.63,93.09-1.39,34.59-19.12,38.85-57.44,19.28-75.9-19.57-18.46-63.14-23.67-89.93-10.54Z"/>
  <path class="cls-89" d="M92.32,23.92c-2.98-1-6.13-1.46-9.27-1.35-8.62,.29-28.27,2.71-41.6,18.59-17.52,20.8,18.18,27.08,41.97,12.55,21.42-13.09,22.36-25.11,8.9-29.79Z"/>
  <path class="cls-79" d="M113.98,26.91s-5.46-.53-4.1,5.62c1.35,6.15,19.49,10.71,22.11,3.86,2.63-6.85-10.91-11.94-18.01-9.48Z"/>
  <path class="cls-16" d="M100.4,179.66c-24.55,1.26-48.84-5.49-69.21-19.24,10.12,11.15,23.4,18.93,38.07,22.32,36.64,8.53,77.95,1.64,94.98-19.45,9.15-10.72,16.26-23.03,20.96-36.31-8.23,15.49-20.41,28.52-35.3,37.77-14.89,9.25-31.97,14.4-49.5,14.91Z"/>
  <path class="cls-67" d="M369.47,45.2c-13.82-14.13-28.5-17.62-40.31-20.79-11.82-3.17-69.5-19.36-93.33,8.09-18.77,21.53-22.16,47.78-20.74,78.75,1.43,30.97,16.45,61.95,41.78,66.13,18.43,3.48,37.12,5.41,55.87,5.77,24.75,.89,43.98-8.4,55.02-29.15,30.62-57.53,17.26-93.08,1.7-108.8Zm-54.06,56.72c.85,6.04-2.59,12.08-10.04,7.2-5.79-3.87-7.72-.31-11.58,2.01-1.2,.7-2.54,1.12-3.92,1.23-1.38,.11-2.77-.09-4.06-.59-1.29-.5-2.46-1.28-3.41-2.29-.95-1.01-1.67-2.22-2.09-3.54-2.32-6.89,1.93-6.85,4.56-10.07,5.44-6.62-7.45-15.49,3.17-16.96,7.1-.97,8.03,4.88,14.33,4.3,6.29-.58,12.94-3.87,17.22,2.9,4.29,6.78-5.06,9.64-4.21,15.8h.04Z"/>
  <path class="cls-25" d="M318.73,104.36c1.43-9.22,2.2-11.62,6.49-16.88,4.29-5.27-3.47-9.87-13.48-7.74-10,2.13-10.81-.31-14.44-2.87-1.51-1.22-3.35-1.94-5.28-2.09-1.93-.15-3.86,.3-5.53,1.28,0,0-6.37,.5-5.41,5.92,.57,2.84,.39,5.79-.5,8.55-.89,2.76-2.48,5.24-4.6,7.21-4.44,3.48-5.21,16.88,5.71,18.31,10.93,1.43,8.92-4.65,20.97-3.37,12.05,1.28,14.63,.93,16.06-8.32Zm-13.4,4.76c-5.79-3.87-7.72-.31-11.58,2.01-1.2,.7-2.54,1.12-3.92,1.23s-2.77-.09-4.06-.59c-1.29-.5-2.46-1.28-3.41-2.29-.95-1.01-1.67-2.22-2.09-3.54-2.32-6.89,1.93-6.85,4.56-10.07,5.44-6.62-7.45-15.49,3.17-16.96,7.1-.97,8.03,4.88,14.33,4.3,6.29-.58,12.94-3.87,17.22,2.9,4.29,6.78-4.87,9.76-3.86,15.8,1,6.04-2.9,12.08-10.35,7.2Z"/>
  <path class="cls-57" d="M341.32,147.11c-9.11-31.52,17.34-67.14-8.69-90.33-26.03-23.19,.77-30.05,29.58-18-9.89-7.06-21.15-11.95-33.05-14.36-11.82-3.17-69.5-19.36-93.33,8.09-3.06,3.51-5.81,7.28-8.22,11.27,6.72-3.45,18.65-5.11,39.73,.54,46.34,12.47,67.34,40.23,57.03,81.66-10.31,41.43-37.61,52.62-62.82,50.33-5.4-.56-10.76-1.41-16.06-2.56,3.61,1.96,7.53,3.27,11.58,3.87,18.43,3.48,37.12,5.41,55.87,5.77,24.48,.85,43.56-8.21,54.64-28.46-9.65,6.66-21.12,9.99-26.26-7.82Z"/>
  <path class="cls-37" d="M369.47,45.2c-13.82-14.13-28.5-17.62-40.31-20.79-11.82-3.17-69.5-19.36-93.33,8.09-18.77,21.53-22.16,47.78-20.74,78.75,1.43,30.97,16.45,61.95,41.78,66.13,18.43,3.48,37.12,5.41,55.87,5.77,24.75,.89,43.98-8.4,55.02-29.15,30.62-57.53,17.26-93.08,1.7-108.8Zm-4.13,107.6c-9.81,18.43-26.3,27.76-49.46,27.76h-3.05c-18.64-.4-37.21-2.34-55.53-5.81-13.94-2.21-22.9-12.93-27.92-21.57-7.09-12.87-11.05-27.24-11.55-41.93-1.24-26.6,.35-54.21,20.08-76.93,8.53-9.8,22.78-14.75,42.47-14.75,16.08,.41,32.04,2.89,47.49,7.36l2.12,.54c11.58,3.14,24.91,6.66,37.65,19.67,9.35,10.13,14.86,23.23,15.56,37.01,1.62,20.21-4.4,43.29-17.88,68.65Z"/>
  <path class="cls-61" d="M270.31,22.82s-28.54,3.64-38.84,25.55c-10.31,21.91-19.27,57.54,9.69,62.88,27.3,4.84,16.99-13.98,37.03-34.85,20.04-20.87,27.34-3.06,57.69,.62,30.35,3.68,32.17-27.45,10.89-38.99-21.28-11.54-50.2-18.89-76.45-15.22Z"/>
  <path class="cls-98" d="M287.57,26.35c-2.8-.93-5.74-1.35-8.69-1.24-8.15,.23-26.64,2.56-39.19,17.5-8.22,9.83-6.29,19.79,2.82,22.19s21.43-6.39,32.63-13.28c20.19-12.51,24.94-20.71,12.43-25.17Z"/>
  <path class="cls-90" d="M307.84,29.21c-1.2,.21-2.28,.88-3,1.87-.72,.99-1.03,2.22-.86,3.44,.77,5.89,18.34,10.11,20.81,3.64,2.47-6.47-10.16-11.27-16.95-8.94Z"/>
  <path class="cls-39" d="M367.77,154.08c5.26-9.76,9.62-19.99,13.01-30.55-6.21,14.43-15.58,27.26-27.41,37.56-20.27,16.88-36.49,18.12-77.23,12.82-27.34-3.56-42.94-14.68-50.47-21.91,7.14,13.47,17.76,23.23,31.32,25.48,18.43,3.48,37.12,5.41,55.87,5.77,24.64,.89,43.86-8.4,54.91-29.16Z"/>
  <g>
    <path class="cls-4" d="M572.81,45.77c-11.52,.74-15.84,2.87-31.65-3.54-17.34-6.3-35.47-10.21-53.87-11.61-11.13-.35-24.42-.71-32.32-12.53-7.9-11.82-31.19-3.54-28.35,10.02,2.52,12.21,3.93,22.97-2.16,38.94-6.1,15.97-10.42,29.77-7.09,48.78,3.33,19.01,9.36,25.84,.74,35.4-8.61,9.56-8.65,23.33,2.48,28.32,11.13,4.99,17.72-5.38,34.88-4.67,17.15,.71,35.23,6.83,54.26,5.77,19.03-1.06,18.68-4.32,27.33,3.54,8.65,7.86,24.07,1.45,20.49-13.63-3.58-15.08,3.23-29.1,9.32-41.28,6.1-12.18,3.83-46.16,16.13-57.38,13.89-12.92,1.31-26.9-10.17-26.12Zm-48.66,52.43c-3.12,6.44-4.15,7.08-3.9,15.47,.25,8.39-9.29,11.65-16.27,8.28-6.98-3.36-12.69-1.03-19.14,1.56-6.45,2.58-15.28,6.51-21.51-4.07-6.24-10.58,0-14.55,3.54-20.74,2.79-4.31,4.9-9.03,6.24-13.98,0,0,2.87-12.14,13.72-9.56,10.85,2.58,6.52,8.14,16.34,7.61,9.82-.53,10.85-6.73,18.32-2.19,8.93,5.45,5.74,11.22,2.66,17.63Z"/>
    <path class="cls-8" d="M537.22,138.48c1.77-14.97,16.76-36.57-.89-56.64-17.65-20.07-28.35-24.21-16.3-34.8,4.37-3.92,9.92-6.29,15.77-6.73-15.74-5.13-32.02-8.39-48.52-9.7-3.54,0-7.09-.21-10.63-.64h-2.06c-27.36,2.19-41.89,25.1-41.89,25.1-18.54,32.74-12.37,49.06-12.37,47.72,5.12-18.42,17.12-34.19,33.53-44.04,25.31-15.19,54.69,2.73,69.15,22.8,1.28,.75,2.35,1.81,3.11,3.09,.76,1.28,1.18,2.72,1.22,4.2,9.46,20.74-2.23,48-16.59,67.26-9.29,12.5-26.44,18.23-39.27,20.64,12.26,1.98,24.81,4.67,38.07,3.93,6.41-.39,10.63-.99,13.72-1.31,4.34-1.04,8.43-2.94,12.04-5.57,3.61-2.63,6.66-5.95,8.98-9.76,3.65-4.81,8.15-8.9,13.29-12.07,.72-3.1,1.68-6.14,2.87-9.1-10.85,12.64-24.81,9.1-23.22-4.39Z"/>
    <path class="cls-5" d="M572.81,45.77c-11.52,.74-15.84,2.87-31.65-3.54-17.34-6.3-35.47-10.21-53.87-11.61-11.13-.35-24.42-.71-32.32-12.53-7.9-11.82-31.19-3.54-28.35,10.02,2.52,12.21,3.93,22.97-2.16,38.94-6.1,15.97-10.42,29.77-7.09,48.78,3.33,19.01,9.36,25.84,.74,35.4-8.61,9.56-8.65,23.33,2.48,28.32,11.13,4.99,17.72-5.38,34.88-4.67,17.15,.71,35.23,6.83,54.26,5.77,19.03-1.06,18.68-4.32,27.33,3.54,8.65,7.86,24.07,1.45,20.49-13.63-3.58-15.08,3.23-29.1,9.32-41.28,6.1-12.18,3.83-46.16,16.13-57.38,13.89-12.92,1.31-26.9-10.17-26.12Zm8.36,24.35c-8.08,7.5-10.28,23.19-12.37,37.13-.57,7.15-2.08,14.2-4.5,20.96-5.99,11.93-13.4,26.76-9.53,42.98,.53,1.73,.65,3.56,.36,5.34-.29,1.79-.98,3.48-2.03,4.96-.94,1.13-2.12,2.04-3.46,2.65-1.34,.61-2.8,.92-4.27,.89-2.62,.02-5.16-.96-7.09-2.73-4.4-4.04-7.09-5.81-11.63-5.81-2,.05-4,.22-5.99,.5-2.87,.35-6.49,.78-11.52,1.06h-4.43c-9.17-.26-18.29-1.27-27.29-3.04-7.36-1.43-14.81-2.37-22.29-2.83h-1.81c-6.09,.15-12.1,1.42-17.72,3.75-2.89,1.29-5.99,2.07-9.14,2.3-1.75,0-3.48-.39-5.07-1.13-1.77-.7-3.35-1.82-4.59-3.27-1.24-1.45-2.1-3.18-2.5-5.04-.33-2.9,0-5.84,.98-8.6,.98-2.75,2.57-5.25,4.65-7.3,7.09-7.96,5.42-14.48,2.87-24.35-.99-3.75-2.09-8.04-2.98-13.24-3.19-18.8,1.31-32.64,7.09-47.51,6.38-16.5,4.82-27.97,2.27-40.18-.26-1.24-.22-2.53,.11-3.76,.33-1.23,.93-2.36,1.77-3.32,1.59-1.75,3.52-3.15,5.68-4.11,2.16-.96,4.5-1.45,6.86-1.45,1.82-.08,3.64,.29,5.28,1.08,1.65,.79,3.07,1.98,4.14,3.45,8.58,12.85,22.75,13.31,34.13,13.66h.11c18.15,1.34,36.04,5.14,53.17,11.29,6.14,2.93,12.81,4.58,19.6,4.85,2.45,0,4.86-.21,7.37-.46,1.74-.18,3.54-.35,5.53-.46h.71c2.58,.04,5.1,.82,7.26,2.24,2.16,1.42,3.87,3.41,4.94,5.76,1.77,4.39,.11,9.27-4.68,13.66v.07Z"/>
    <path class="cls-14" d="M465.42,36.17c-7.33,.34-14.38,2.9-20.24,7.32-5.85,4.42-10.23,10.51-12.55,17.46-8.83,24.78-16.69,43.86,.35,51.72,17.05,7.86,22.61-12.11,26.19-28.82,3.58-16.71,3.54-27.15,32.43-23.22,28.89,3.93,30.8-14.73,18.36-19.65-12.44-4.92-35.05-5.17-44.55-4.81Z"/>
    <path class="cls-1" d="M532.9,49.59s-8.19,0-.99,8.5c7.19,8.5,17.05,3.93,17.72-.64,.67-4.57-8.86-9.17-16.73-7.86Z"/>
    <path class="cls-23" d="M443.8,18.51s-9.18-1.31-11.16,6.02c-1.98,7.33,14.43,8.5,19.67,3.93,5.25-4.57-2.62-9.63-8.51-9.95Z"/>
    <path class="cls-47" d="M568.8,51.22s-7.55,1.63-1.99,6.23c5.56,4.6,13.43,8.18,15.74,2.27,2.3-5.91-7.41-10.8-13.75-8.5Z"/>
    <path class="cls-50" d="M547.54,163.43s-7.55-1.27-4.25,6.23c3.3,7.51,3.26,11.79,8.51,9.49,5.25-2.3,2.09-13.74-4.25-15.72Z"/>
    <path class="cls-46" d="M429.55,153.49c-1.15-.27-2.35-.27-3.51,0-1.15,.28-2.22,.82-3.12,1.59-2.91,2.34-7.09,6.8-5,12.28,2.94,8.18,11.45,1.98,14.39-6.2,1.81-5.13-.28-7.04-2.76-7.68Z"/>
    <path class="cls-17" d="M518.47,76.07c-10.14,3.93-15.38,5.91-20.63,.35-5.25-5.56-19.99-14.73-27.5,3.93-3.54,8.6-6.56,20.6-12.8,25.84-6.24,5.24-4.25,16.67,2.62,21.59,6.88,4.92,9.82,5.56,19.67,1.31,9.85-4.25,12.44-7.54,21.62-4.92,9.18,2.62,18.32,4.25,23.25-4.92,4.93-9.17-2.3-10.44,4.25-25.17,6.56-14.73-.32-21.91-10.49-18.02Zm5.67,22.12c-3.12,6.44-4.15,7.08-3.9,15.47,.25,8.39-9.29,11.65-16.27,8.28-6.98-3.36-12.69-1.03-19.14,1.56s-15.28,6.51-21.51-4.07c-6.24-10.58,0-14.55,3.54-20.74,2.79-4.31,4.9-9.03,6.24-13.98,0,0,2.87-12.14,13.72-9.56s6.52,8.14,16.34,7.61c9.82-.53,10.85-6.73,18.32-2.19,8.93,5.45,5.74,11.22,2.66,17.63Z"/>
    <path class="cls-64" d="M577.59,79.82c-2.87,.39-4.86,10.62-6.42,19.72-2.73,15.82-4.25,26.66-21.27,50.59-17.01,23.93-33.64,23.93-59.54,22.37-25.91-1.56-26.65-10.62-51.39,.78-6,2.97-12.42,5.03-19.03,6.09l.43,.21c11.16,5.03,17.72-5.38,34.88-4.67,17.15,.71,35.23,6.83,54.26,5.77,19.03-1.06,18.68-4.32,27.33,3.54,8.65,7.86,24.07,1.45,20.49-13.63-3.58-15.08,3.23-29.1,9.32-41.28,5.07-10.02,4.54-34.76,10.95-49.49Z"/>
    <path class="cls-74" d="M466.02,39.71s-17.97-.35-25.91,13.45c-7.94,13.81,10.63,11.75,28,1.03,17.37-10.73,9.25-14.48-2.09-14.48Z"/>
    <path class="cls-78" d="M492.92,39.71s-5.88,2.05-2.09,6.05c3.79,4,14.18,3.12,15.56-1.38,1.38-4.5-8.47-6.51-13.47-4.67Z"/>
    <path class="cls-86" d="M443.94,18.79s-7.09,1.17-2.02,3.96c5.07,2.8,8.61,.67,7.94-1.06-.57-1.03-1.45-1.86-2.5-2.38-1.06-.52-2.25-.7-3.41-.53Z"/>
    <path class="cls-103" d="M424.76,156.14c-1.47,.26-2.79,1.07-3.69,2.27-.9,1.2-1.3,2.69-1.13,4.17,.39,5.49,12.33-7.08,4.82-6.44Z"/>
    <path class="cls-88" d="M549.45,166.97s-3.33,1.38,0,6.09c3.33,4.71,4.43-.25,3.33-2.76-1.1-2.51-1.95-4.43-3.33-3.33Z"/>
    <path class="cls-95" d="M575.89,51.04s-5.53-.81-5.81,1.95c-.28,2.76,7.76,3.33,9.43,1.95,1.66-1.38-.36-3.89-3.62-3.89Z"/>
  </g>
  <g>
    <path class="cls-22" d="M774.39,44.44c-13.28,3.32-11.59,13.01-20.59,7.11-13.82-8.53-29.18-14.27-45.2-16.9-16.07-1.89-37.16,1.43-44.24-3.32-6.64-4.35-4.28-21.51-21.62-18.99-1.8,.2-3.53,.8-5.06,1.76-1.53,.96-2.83,2.25-3.8,3.78-.92,1.56-1.46,3.31-1.58,5.12-.12,1.81,.2,3.61,.91,5.28,4.02,10.39,13.02,10.39,6.87,21.51-5.63,9.44-10.46,19.34-14.45,29.58-4.48,11.82-2.36,35.96,1.89,48.24,4.25,12.29,5.91,20.12-3.79,25.33-9.7,5.21-16.21,11.02-12.89,20.35,3.32,9.33,18.23,14.18,25.08,2.36,6.84-11.82,6.18-16.6,15.41-13.48,9.23,3.12,14.91,10.66,39.85,10.66s39.85-8.3,45.43,3.79c5.58,12.08,19.93,15.97,24.28,4.25,3.69-9.76-2.39-13.61-9.1-18.86-5.51-4.35,0-4.35,8.97-23.74,8.97-19.39,9.6-42.33,9.6-54.88s14.22-7.57,19.16-20.82c4.95-13.25-3.06-21.28-15.14-18.13Zm-44.87,91.4c-2.13,10.99-9.96,6.97-26.24,5.35-16.27-1.63-16.07,5.64-28.96,2.42-12.89-3.22-11.82-9.79-18.67-19.49-8.17-11.65-9.2-17.36-5.11-26.79,2.23-5.08,4.25-19.52,8.87-23.24,13.12-10.69,17.14-9.1,26.24-15.8,9.1-6.71,15.28-2.92,24.64,4.58,7.83,6.69,17.24,11.26,27.33,13.28,8.04,1.06-3.32,12.58,1.89,26.23,5.21,13.65-7.77,22.48-10,33.47Z"/>
    <g class="cls-71">
      <path class="cls-99" d="M651.34,162.17l.56,.2-.56-.2Z"/>
      <path class="cls-91" d="M763.26,132.62c-4.91,6.94-11.92,14.21-19.33,13.88-7.9-.37-11.29-5.18-13.28-14.64-.54,1.29-.95,2.62-1.23,3.98-1.56,8-6.14,8.03-14.85,6.84-2.29,10.62-7.27,15.44-22.65,20.78-11.72,4.57-24.71,4.71-36.53,.4,10.83,6.45,23.31,9.57,35.9,8.96,25.08,0,39.85-8.3,45.43,3.79,5.58,12.09,19.93,15.97,24.28,4.25,3.69-9.76-2.39-13.61-9.1-18.86-5.51-4.35,0-4.35,8.97-23.74,.9-1.86,1.66-3.72,2.39-5.64Z"/>
      <path class="cls-105" d="M668.54,51.61c6.95-.2,13.83,1.46,19.93,4.81,7.67-4.12,13.48-.43,21.89,6.31,1.76,1.36,3.52,2.69,5.28,3.88-5.28-11.99-8.5-21.32-.23-25.03,3.4-1.56,7.06-2.52,10.79-2.82-5.72-1.93-11.62-3.31-17.6-4.12-9.96-1.16-21.85-.33-31.15-.66-9.54,.69-18.75,3.72-26.84,8.83-5.64,4.09-10.6,9.06-14.68,14.71-3.93,7.02-7.32,14.32-10.16,21.85v.63c1.3,3.35,12.59-27.42,42.78-28.39Z"/>
    </g>
    <path class="cls-32" d="M774.39,44.44c-13.28,3.32-11.59,13.01-20.59,7.11-13.82-8.53-29.18-14.27-45.2-16.9-16.07-1.89-37.16,1.43-44.24-3.32-6.64-4.35-4.28-21.51-21.62-18.99-1.8,.2-3.53,.8-5.06,1.76-1.53,.96-2.83,2.25-3.8,3.78-.92,1.56-1.46,3.31-1.58,5.12-.12,1.81,.2,3.61,.91,5.28,4.02,10.39,13.02,10.39,6.87,21.51-5.63,9.44-10.46,19.34-14.45,29.58-4.48,11.82-2.36,35.96,1.89,48.24,4.25,12.29,5.91,20.12-3.79,25.33-9.7,5.21-16.21,11.02-12.89,20.35,3.32,9.33,18.23,14.18,25.08,2.36,6.84-11.82,6.18-16.6,15.41-13.48,9.23,3.12,14.91,10.66,39.85,10.66s39.85-8.3,45.43,3.79c5.58,12.08,19.93,15.97,24.28,4.25,3.69-9.76-2.39-13.61-9.1-18.86-5.51-4.35,0-4.35,8.97-23.74,8.97-19.39,9.6-42.33,9.6-54.88s14.22-7.57,19.16-20.82c4.95-13.25-3.06-21.28-15.14-18.13Zm12.95,17.4c-.86,2.15-2.19,4.09-3.88,5.67-1.69,1.58-3.71,2.78-5.92,3.49-4.48,2.12-9.53,4.52-9.53,12.48,0,15.8-1.03,36.22-9.23,53.89-2.42,5.26-5.24,10.32-8.44,15.14-3.02,4.68-4.88,7.5,0,11.45l1.29,1c6.64,5.18,9.73,7.97,7.01,15.17-.41,1.57-1.34,2.96-2.62,3.96-1.28,1-2.86,1.54-4.49,1.55-2.84-.32-5.54-1.42-7.8-3.18-2.26-1.76-3.98-4.1-4.99-6.78-3.32-7.04-9.23-7.93-14.15-7.93-4.03,.12-8.04,.48-12.02,1.1-7.04,1.06-14.14,1.64-21.26,1.76-17.87,0-25.34-3.85-31.92-7.24-2.36-1.29-4.81-2.4-7.34-3.32-1.67-.61-3.43-.96-5.21-1.03-4.88,0-6.64,3.68-9.33,8.83-1,1.93-2.13,4.15-3.62,6.64-.87,1.73-2.2,3.18-3.85,4.2-1.65,1.01-3.55,1.55-5.48,1.55-2.46-.03-4.86-.77-6.91-2.15-2.04-1.38-3.64-3.32-4.59-5.59-2.39-6.64,1.06-11.69,11.89-17.5,11.56-6.14,9.13-15.94,4.92-28.16-4.22-12.22-6.04-35.79-1.93-46.48,3.68-9.52,8.12-18.72,13.28-27.52l1-1.76c4.72-8.53,1.56-12.15-1.79-15.97-2.11-2.18-3.78-4.74-4.95-7.54-.61-1.33-.9-2.79-.84-4.26,.06-1.47,.48-2.9,1.2-4.17,.78-1.27,1.85-2.35,3.12-3.14,1.27-.79,2.7-1.29,4.19-1.44,.97-.15,1.94-.23,2.92-.23,7.24,0,9.2,4.75,11.46,10.26,.95,3.38,2.88,6.41,5.55,8.7,3.92,2.59,10.56,3.12,19.93,3.12h10.93c4.78-.06,9.56,.15,14.31,.63,15.65,2.58,30.65,8.16,44.17,16.43,1.76,1.34,3.87,2.12,6.08,2.26,2.49-.22,4.8-1.41,6.41-3.32,2.74-2.77,6.18-4.73,9.96-5.68,1.45-.43,2.94-.66,4.45-.7,1.49-.09,2.99,.18,4.35,.8,1.36,.62,2.55,1.57,3.46,2.75,1,1.86,1.54,3.94,1.57,6.05,.03,2.11-.44,4.2-1.37,6.1v.1Z"/>
    <path class="cls-21" d="M744.23,102.97c-3.58-8.22-3.75-17.51-.5-25.86,3.09-6.34-2.39-6.64-12.35-9.26-9.96-2.62-16.27-2.56-22.42-10.79-6.14-8.23-9.76-8.37-15.61-4.95-2.37,1.62-4.97,2.89-7.71,3.75-1.69,.7-2.23,2.59-5.98,4.81-4.65,2.5-9.69,4.17-14.91,4.95-6.84,1.39-10.63,.37-12.16,5.51,0,0,.5,12.65-3.32,19.52-3.82,6.87-11.62,14.87-5.31,22.41,7.2,8.36,13.21,17.66,17.87,27.66,3.59,8.9,15.78,9.96,23.48,6.64,9.85-3.85,20.64-4.58,30.92-2.09,11.13,2.59,13.02,3.62,14.38-2.92,1.36-6.54,4.95-17.96,11.66-24.47,6.71-6.51,5.75-5.64,1.96-14.91Zm-14.71,32.87c-2.12,10.99-9.96,6.97-26.24,5.35-16.27-1.63-16.07,5.64-28.96,2.42-12.89-3.22-11.82-9.79-18.67-19.49-8.17-11.65-9.2-17.36-5.11-26.79,2.23-5.08,4.25-19.52,8.87-23.24,13.12-10.69,17.14-9.1,26.24-15.8,9.1-6.71,15.28-2.92,24.64,4.58,7.83,6.69,17.24,11.26,27.33,13.28,8.04,1.06-3.32,12.58,1.89,26.23,5.21,13.65-7.77,22.48-10,33.47Z"/>
    <path class="cls-69" d="M647.16,15.75s-9.57-1.39-10.43,5.54c-.76,6.11,11.06,9.03,15.98,4.75,4.92-4.28,0-9.96-5.55-10.29Z"/>
    <path class="cls-106" d="M648.42,16.25c-1.11-.16-2.25-.07-3.32,.27-1.66,.53-2.66,2.66,.6,4.42,4.88,2.59,7.11-.43,6.48-2.06-.36-.71-.89-1.32-1.55-1.78-.65-.46-1.41-.75-2.21-.84Z"/>
    <path class="cls-68" d="M771.07,51.08s-6.34,3.32,0,6.11c6.34,2.79,14.25,3.82,14.75-2.09,.5-5.91-9.47-7.67-14.75-4.02Z"/>
    <path class="cls-96" d="M778.08,50.01s-5.28,0-5.11,2.66c.17,2.66,7.67,1.93,9.03,.4,1.36-1.53-.83-3.55-3.92-3.05Z"/>
    <path class="cls-24" d="M677.41,35.74c-9.29-.02-18.32,3.04-25.67,8.7-6.24,4.68-14.55,12.48-8.93,16.4,10.3,7.2,37.76-1.39,44.64-10.33,5.55-7.01,4.22-14.67-10.03-14.77Z"/>
    <path class="cls-15" d="M706.04,37.17c-1.96,.11-3.86,.75-5.48,1.86-2.62,1.83-4.92,5.28,3.06,10.13,12.36,7.54,26.77,13.05,30.22,4.45,3.22-8.07-14.55-17.36-27.8-16.43Z"/>
    <path class="cls-84" d="M670.37,38.06s-11.52-.23-16.61,8.63c-5.08,8.86,6.87,7.54,17.93,.66,11.06-6.87,5.98-9.3-1.33-9.3Z"/>
    <path class="cls-76" d="M707.5,37.8s-4.52,1.06-2.03,4.45c2.49,3.39,10.3,3.32,11.69,.2,1.39-3.12-5.85-5.48-9.66-4.65Z"/>
    <path class="cls-18" d="M628.39,158.15c-1-.49-2.09-.75-3.21-.75s-2.21,.26-3.2,.75c-3.12,1.56-7.74,4.81-7.04,10.26,1.03,8.07,9.96,4.08,14.45-2.79,2.72-4.18,1.16-6.38-1-7.47Z"/>
    <path class="cls-82" d="M623.47,159.65c-1.38-.04-2.72,.44-3.76,1.34-1.04,.9-1.7,2.17-1.85,3.54-.86,5.15,12.59-3.88,5.61-4.88Z"/>
    <path class="cls-30" d="M761.34,134.08c-7.77,16.14-26.1,30.15-62.47,32.6-28.16,1.93-38.73-.8-42.08-2.16,6.94,3.52,14.61,8.3,34.54,8.3,25.08,0,39.86-8.3,45.43,3.79,1.55,3.47,4,6.45,7.11,8.63-2.88-4.03-4.29-8.93-3.99-13.88,.23-2.75,1.32-5.36,3.1-7.47,1.79-2.11,4.18-3.6,6.86-4.28-.96-2.79,3.95-6.01,11.06-21.35-.43-2.96,8.2-20.35,.43-4.18Z"/>
    <path class="cls-35" d="M750.78,166.68c-.69-.3-1.44-.45-2.19-.45s-1.5,.15-2.19,.45c-1.59,.73-3.06,2.39-.2,6.04,4.72,6.08,5.68,9.96,9.96,6.64,3.69-2.79-.07-10.59-5.38-12.68Z"/>
    <path class="cls-104" d="M750.31,169.61s-1.96,1.39,2.16,4.91c4.12,3.52,3.99-1.26,2.39-3.32-1.59-2.06-3.55-2.92-4.55-1.59Z"/>
  </g>
  <g>
    <path class="cls-52" d="M911.02,48.46c-.61,.05-1.21,.25-1.73,.58-.52,.33-.96,.77-1.28,1.3-.32,.53-.51,1.12-.55,1.74-.05,.61,.06,1.23,.29,1.8,1.34,4.95,8.11,10.39,13.89,6.13,5.79-4.27,.26-13-10.62-11.53Z"/>
    <path class="cls-6" d="M911.64,49.86c-.34,.05-.66,.18-.94,.38-.28,.2-.5,.46-.66,.76-.15,.3-.23,.64-.23,.98,0,.34,.09,.67,.25,.97,.95,2.67,4.87,5.34,7.84,2.77s-.36-7.27-6.28-5.87Z"/>
    <path class="cls-10" d="M947.49,89.28s-5.29-1.96-4.41,4.79c.88,6.74,5.39,6.84,6.31,4.5,.91-2.35,2.39-7.95-1.9-9.29Z"/>
    <path class="cls-3" d="M948.08,119.68s-5.56,1.04-5.2,5.64c.36,4.59,5.26,3.26,7.75,0,2.48-3.26,1.21-6.19-2.55-5.64Z"/>
    <path class="cls-36" d="M850.65,135.49c1.54,7.81,5.65,14.88,11.67,20.1,5.35,4.9,12.34,7.65,19.61,7.72,0,0-13.79-3.62-17.29-13.85l-3.79-10.1s-4.12,4.86-10.2-3.88Z"/>
    <path class="cls-45" d="M829.8,99.45c.24,5.19,1.91,10.21,4.84,14.5,5.1,8.24,10.92,8.47,10.92,8.47,0,0-7.26-6.52-8.73-12.32l-1.44-5.8c-2.26-1.09-4.19-2.77-5.59-4.86Z"/>
    <path class="cls-2" d="M838.99,70.55c1.97-2.97,4.59-5.47,7.66-7.29,3.07-1.82,6.52-2.93,10.08-3.24,12.39-1.21,17.71,3.62,17.71,3.62-4.77-1.12-9.71-1.28-14.54-.49-3.76,.51-7.23,2.3-9.8,5.08-3.76,.46-7.48,1.23-11.11,2.31Z"/>
    <path class="cls-27" d="M891.67,42.82c-1.92,.98-3.6,2.36-4.94,4.05s-2.29,3.64-2.81,5.73l-.98,6.29s5.33-10.43,11.11-13.69c5.78-3.26,1.76-3.58-2.39-2.38Z"/>
    <path class="cls-51" d="M936.35,58.23c-.82,.39,8.73,3.26,12.85,9.45,2.16,2.64,3.59,5.82,4.12,9.19,.43-4.52-.72-9.04-3.27-12.81-3.99-5.83-10.56-7.43-13.69-5.83Z"/>
    <path class="cls-54" d="M959.42,83.48s3.63,12.35,1.7,17.17l-2.42,6.06s5.1,8.96,4.84,10.65c2.85-11.42,1.38-23.48-4.12-33.89Z"/>
    <path class="cls-20" d="M936.35,144.22c4.53-.36,8.81-2.24,12.13-5.34,6.05-5.31,6.31-6.78,6.31-6.78,0,0-1.96,9.78-7.29,13.03-5.33,3.26-14.22,8.28-20.39,7.3,0,0,7.29-3.39,9.25-8.21Z"/>
    <g class="cls-72">
      <path class="cls-31" d="M829.21,15.25c-1.31,9.35,4.41,14.01,13.53,16.68,10.2,3.03,11.18-2.38,12.03-10.69,.85-8.31-.85-12.41-5.36-14.47-9.09-3.94-18.96-.49-20.2,8.47Z"/>
      <path class="cls-9" d="M849.41,6.78c-9.09-4.11-18.96-.49-20.2,8.47-1.24,8.96,4.41,14.01,13.53,16.68,10.2,3.03,11.18-2.38,12.03-10.69,.85-8.31-.85-12.41-5.36-14.47Zm3.07,14.21c-.82,7.72-1.73,9.51-4.84,9.51-1.44-.06-2.87-.31-4.25-.75-9.35-2.77-12.91-7.01-11.9-14.21,.36-2.4,1.62-4.58,3.52-6.09,1.9-1.51,4.31-2.25,6.74-2.06,2.26,.04,4.49,.55,6.54,1.5,2.65,1.14,5.1,3.45,4.18,12.09Z"/>
      <path class="cls-101" d="M906.64,35.65c-11.41-1.91-23.07-1.91-34.48,0-19.61,3.26-35.1,17.53-40.27,30.73,0,0,4.48-9.58,20.23-10.39,15.75-.81,20.56-.85,28.99-8.11,8.43-7.27,11.6-11.05,25.53-12.22Z"/>
      <path class="cls-59" d="M996.39,47.19c-1.73-2.64-4.31-4.61-7.32-5.57-1.87-.75-3.89-1.02-5.89-.79-2,.23-3.91,.95-5.55,2.1-2.7,2.31-4.83,5.21-6.2,8.48-1.38,3.27-1.97,6.81-1.74,10.35,.49,3.78,4.31,7.1,14.9,4.95,10.59-2.15,12.75-6.13,13.76-10.92,.47-3.01-.23-6.09-1.96-8.6Z"/>
      <path class="cls-40" d="M996.39,47.19c-1.73-2.64-4.31-4.61-7.32-5.57-1.87-.75-3.89-1.02-5.89-.79-2,.23-3.91,.95-5.55,2.1-2.7,2.31-4.83,5.21-6.2,8.48-1.38,3.27-1.97,6.81-1.74,10.35,.49,3.78,4.31,7.1,14.9,4.95,10.59-2.15,12.75-6.13,13.76-10.92,.47-3.01-.23-6.09-1.96-8.6Zm-.29,8.15c-.82,3.81-2.26,7.14-11.96,9.12-1.83,.37-3.69,.58-5.56,.62-2.81,0-6.21-.62-6.54-3.62-.19-3.13,.35-6.26,1.56-9.15,1.21-2.89,3.07-5.47,5.44-7.53,1.52-1.14,3.36-1.74,5.26-1.73,1.38,.02,2.75,.28,4.05,.75,2.51,.82,4.66,2.46,6.11,4.66,1.39,2.01,1.97,4.46,1.63,6.88Z"/>
      <path class="cls-102" d="M824.74,104.96c-.83,14.94,3.82,29.67,13.07,41.45,9.91,11.8,23.77,19.63,39.02,22.03,0,0-26.41-10.23-32.29-27.5-5.88-17.27-6.9-14.92-11.6-21.34-3.2-4.6-5.95-9.5-8.2-14.63Z"/>
      <path class="cls-42" d="M840.06,81.27c-.89-.18-1.81-.11-2.66,.2-.85,.3-1.6,.83-2.18,1.53-.92,1.02-1.57,2.25-1.9,3.58-.33,1.33-.31,2.72,.03,4.05,1.5,5.93,7.29,6.09,9.58,1.63,2.09-3.68,1.41-10.04-2.88-10.98Z"/>
      <path class="cls-26" d="M837.55,83.35c-.36,0-.72,.08-1.05,.23-.33,.15-.63,.36-.88,.62-.55,.56-.94,1.25-1.14,2-.2,.75-.2,1.55,0,2.3,.78,3.26,3.92,3.26,5.2,.91,1.27-2.35,.65-5.96-2.12-6.06Z"/>
      <path class="cls-75" d="M935.76,43.57c9.4,3.51,17.61,9.61,23.66,17.6,9.22,12.84,10.23,30.43,7.75,41.97-.02-8.23-1.76-16.37-5.13-23.88-2.96-6.52-6.55-12.74-10.72-18.57-3.96-5.28-9.58-4.63-15.2-9.55-3.24-2.79-5.87-6.2-7.74-10.04l7.39,2.48Z"/>
      <path class="cls-93" d="M959.95,128.65s2.65,9.58-8.79,22.81c-11.44,13.23-37.72,19.09-47.03,17.17,0,0,13.07,0,21.28-5.96,8.2-5.96,1.96-6.88,11.41-8.57,9.45-1.69,19.09-11.96,23.14-25.45Z"/>
      <path class="cls-100" d="M944.19,169.02s-2.81,2.15-1.99,9.78c.82,7.62,5.46,17.56,15.36,15.93,11.05-1.79,12.39-13.82,3.79-20.72-8.6-6.91-16.18-7.2-17.16-4.99Z"/>
      <path class="cls-70" d="M961.35,174.03c-8.6-6.91-16.34-7.23-17.16-5.12,0,0-2.81,2.15-1.99,9.78,.82,7.62,5.46,17.56,15.36,15.93,11.05-1.66,12.39-13.68,3.79-20.59Zm-4.18,18.48c-.58,.05-1.16,.05-1.73,0-7.45,0-10.36-8.83-10.92-14.08-.64-2.65-.24-5.45,1.11-7.82l.56-.36v-.19c.32-.05,.65-.05,.98,0,4.73,.53,9.17,2.54,12.68,5.73,1.71,1.21,3.03,2.88,3.82,4.81,.79,1.93,1.01,4.05,.63,6.1-.47,1.57-1.4,2.96-2.67,3.99-1.27,1.04-2.82,1.66-4.46,1.81Z"/>
      <path class="cls-94" d="M831.76,157.71c-.62-.31-1.3-.47-1.99-.46-3.63,0-18.43-1.17-24.48,8.02-6.05,9.19-2.12,18.9,10.69,21.77,11.86,2.67,18.66-8.7,19.15-16.68,.42-7.14-.39-11.11-3.37-12.64Z"/>
      <path class="cls-77" d="M831.76,157.71c-.62-.31-1.3-.47-1.99-.46-3.63,0-18.43-1.17-24.48,8.02-6.05,9.19-2.12,18.9,10.69,21.77,11.86,2.67,18.66-8.7,19.15-16.68,.42-7.14-.39-11.11-3.37-12.64Zm1.08,12.48c-.39,6.26-5.26,14.92-13.43,14.92-.99,0-1.98-.11-2.94-.33-2.31-.3-4.51-1.15-6.42-2.49-1.91-1.33-3.46-3.11-4.53-5.17-.61-1.77-.77-3.66-.47-5.51,.3-1.85,1.04-3.59,2.17-5.08,3.07-4.69,9.45-7.07,18.92-7.07h3.6c.33-.01,.65,.05,.95,.19,1.27,.75,2.61,2.51,2.16,10.53Z"/>
    </g>
    <path class="cls-44" d="M896.18,145.23s-8.63,.75-8.43,6.52c.2,5.77,11.67,7.66,17.03,2.31,5.36-5.34,1.34-9.97-8.6-8.83Z"/>
    <path class="cls-66" d="M894.42,146.21s-4.77,.42-4.64,3.58c.13,3.16,6.54,4.24,9.41,1.27,2.88-2.96,.72-5.51-4.77-4.85Z"/>
    <path class="cls-33" d="M978.44,46.37s-6.24,3.26,0,6c6.24,2.74,14.02,3.75,14.51-2.05,.49-5.8-9.31-7.69-14.51-3.94Z"/>
    <path class="cls-83" d="M985.34,45.2s-5.16,0-5.03,2.61c.13,2.61,7.58,1.89,8.89,.39,1.31-1.5-.82-3.49-3.86-3Z"/>
    <path class="cls-48" d="M843.59,8.54s-9.38-1.37-10.26,5.44c-.75,6,10.92,8.86,15.75,4.66,4.84-4.2-.03-9.81-5.49-10.1Z"/>
    <path class="cls-80" d="M844.84,9.03c-1.04-.14-2.09-.03-3.07,.33-1.63,.52-2.61,2.61,.62,4.33,4.77,2.54,6.99-.42,6.34-2.02-.36-.74-.9-1.38-1.59-1.84-.68-.46-1.48-.74-2.3-.8Z"/>
    <path class="cls-41" d="M956.87,175.27c-.57-.1-1.16-.07-1.72,.08-.56,.15-1.09,.41-1.54,.77-1.11,.82-2.16,2.31-.65,4.95,3.27,5.51,3.76,9.77,8.14,6.16,4.38-3.62,.1-11.14-4.22-11.96Z"/>
    <path class="cls-73" d="M956.32,177.81s-1.57,1.47,1.54,4.24c3.89,3.52,3.79-1.69,2.29-3.45-1.5-1.76-2.94-2.08-3.82-.78Z"/>
    <path class="cls-7" d="M820.49,162.5c-.98-.49-2.06-.75-3.15-.75s-2.18,.26-3.15,.75c-3.07,1.53-7.65,4.72-6.96,10.07,1.05,7.95,9.8,4.04,14.22-2.74,2.68-4.07,1.14-6.22-.95-7.33Z"/>
    <path class="cls-81" d="M815.62,163.97c-1.36-.03-2.68,.45-3.7,1.34-1.02,.89-1.67,2.14-1.82,3.48-.82,5.02,12.42-3.81,5.52-4.82Z"/>
    <path class="cls-56" d="M877.19,37.28s-17.71,2.51-22.88,8.83c-5.16,6.32,33.83-1.69,22.88-8.83Z"/>
  </g>
  <g>
    <path class="cls-58" d="M1028.87,12.19c-2.1,8.15,7.7,14.55,15.46,9.78,7.76-4.76,7.86-9.46,6.19-13.05-4.19-8.97-19.55-4.89-21.65,3.26Z"/>
    <path class="cls-87" d="M1087.4,32.64c-8.83-.74-17.73,.21-26.2,2.8-13.36,4.34-23.81,17.32-23.81,17.32,6.14-5.74,13.8-9.62,22.08-11.15,9.71-1.57,19.13-4.59,27.94-8.97Z"/>
    <path class="cls-92" d="M1028.64,125.52s4.75,14.84,13.1,22.83c8.35,7.99,12.87,8.77,12.87,8.77,0,0-10.38-8.32-13.43-14.84-3.59-6-7.79-11.62-12.54-16.76Z"/>
    <path class="cls-85" d="M1152.64,144.76c-6.14,2.85-11.93,6.4-17.26,10.57-4.67,4.06-9.79,7.57-15.26,10.47-1.7,.55,24.4-5.87,32.52-21.04Z"/>
    <path class="cls-97" d="M1147.34,47.93c4.37,2.89,8.18,6.54,11.27,10.76,4.64,6.32,7.39,13.81,7.93,21.62,0,0-6.75-14.84-9.14-18.23-2.39-3.39-10.06-14.15-10.06-14.15Z"/>
    <path class="cls-63" d="M1188.11,39.13c-1.35-.55-2.81-.77-4.26-.65-1.45,.11-2.85,.57-4.1,1.32-1.24,.75-2.29,1.78-3.07,3.01-.77,1.23-1.25,2.62-1.39,4.06-2.33,11.55,9.53,13.21,14.97,10.18,5.44-3.03,6.55-12.92-2.16-17.9Z"/>
    <path class="cls-60" d="M1163.25,176.89c-1.08-1.38-2.49-2.46-4.09-3.15-1.61-.69-3.37-.96-5.11-.8-1.82,.2-3.56,.87-5.05,1.94-1.49,1.07-2.67,2.5-3.43,4.16-4.78,8.9,7.07,16.31,14.87,13.27,6.16-2.38,6.98-10.24,2.82-15.43Z"/>
    <path class="cls-12" d="M1014.33,161.59c-1.38,.27-2.69,.84-3.84,1.65s-2.1,1.87-2.8,3.09c-.7,1.22-1.13,2.57-1.25,3.97-.13,1.4,.05,2.81,.52,4.13,2.72,10.8,14.9,9.46,18.96,1.01,1-1.7,1.45-3.67,1.29-5.64-.16-1.97-.93-3.83-2.2-5.35-1.27-1.51-2.97-2.6-4.89-3.12-1.91-.51-3.94-.43-5.8,.24Z"/>
    <path class="cls-62" d="M1112.46,46.73c-.37,.03-.74,.14-1.06,.34-.32,.19-.59,.46-.78,.78-.2,.32-.31,.68-.34,1.05s.03,.75,.18,1.09c.82,2.97,4.88,6.23,8.32,3.65,3.44-2.58,.2-7.79-6.32-6.91Z"/>
    <path class="cls-55" d="M1147.83,88.15s-3.28-1.21-2.75,2.84c.52,4.04,3.28,4.17,3.9,2.74s1.64-4.76-1.15-5.58Z"/>
    <path class="cls-29" d="M1147.34,119.62s-3.27,.62-2.98,3.26c.29,2.64,2.98,1.86,4.42,0,1.44-1.86,.62-3.42-1.44-3.26Z"/>
    <path class="cls-19" d="M1036.89,82.57c-.45-.08-.92-.04-1.35,.11-.43,.15-.81,.42-1.11,.77-.47,.53-.8,1.16-.96,1.84-.17,.68-.16,1.39,.01,2.07,.75,3.03,3.73,3.26,4.91,.85s.85-5.15-1.51-5.64Z"/>
    <path class="cls-28" d="M1095.49,147.05s-4.45,.39-4.36,3.26c.1,2.87,6.03,3.95,8.78,1.17,2.75-2.77,.69-5.02-4.42-4.43Z"/>
    <path class="cls-13" d="M1043.44,6.61c-1.66-.27-3.36-.12-4.95,.45-1.58,.57-2.99,1.54-4.09,2.81-2.92,4.21,4.32,6.33,8.61,3.52,4.29-2.8,2.78-6.26,.43-6.78Z"/>
    <path class="cls-11" d="M1179.89,41.97s-4.42,2.41,0,4.24c4.42,1.83,9.83,2.64,10.25-1.43,.43-4.08-6.58-5.41-10.25-2.8Z"/>
    <path class="cls-49" d="M1156.54,175.78c-.5-.02-.99,.06-1.46,.23-.47,.17-.89,.44-1.26,.78-.92,.82-1.7,2.18,0,4.37,3.28,4.6,4.09,8.32,7.63,4.76,3.54-3.56-1.02-9.78-4.91-10.14Z"/>
    <path class="cls-43" d="M1018.39,164.63c-.71-.35-1.49-.53-2.28-.53s-1.57,.18-2.28,.53c-1.52,.54-2.82,1.54-3.73,2.87-.91,1.32-1.37,2.9-1.32,4.5,.75,5.74,7.21,2.9,10.32-1.99,1.93-3.07,.82-4.6-.72-5.38Z"/>
  </g>
</svg>