<svg width="359" height="228" viewBox="0 0 359 228" fill="none" xmlns="http://www.w3.org/2000/svg">
<path d="M339.633 67.7561C339.771 64.0969 339.727 60.7566 338.5 57.2647C336.233 50.8574 330.959 46.9938 324.664 46.2663C244.65 39.4037 158.233 31.4592 79.1587 43.8115C70.6488 45.1411 61.8936 45.9782 53.4726 47.3385C46.072 48.352 38.2481 49.0128 31.0285 51.2291C28.4453 52.0271 24.9486 53.2442 23.9556 56.1434C23.0453 58.8604 22.943 62.1452 22.6888 64.9352C20.6333 88.6132 20.7163 104.243 20.9936 128.001C21.1739 141.401 22.6301 144.134 23.9556 157.5C24.2093 160.031 27.6676 166.006 37.9189 166.108C106.59 174.281 213.243 190.079 304.416 181.74C309.383 181.285 314.155 179.589 318.336 176.792C322.518 173.995 325.99 170.176 328.467 165.652C334.469 154.777 333.276 144.844 334.576 132.539C340.5 76.6048 337.425 123.963 339.633 67.7561Z" fill="#E4E4E4"/>
<path d="M88 190L141.5 171.5L104 166C104 174.4 93.3333 185.5 88 190Z" fill="#E4E4E4"/>
<path d="M335.352 178.113L335.023 178.601L334.364 179.498C333.854 180.156 333.322 180.805 332.771 181.424C332.22 182.044 331.692 182.576 331.124 183.122C331.011 183.233 330.903 183.333 330.787 183.436L330.723 183.458C330.434 183.702 330.152 183.943 329.867 184.177C328.566 185.225 327.179 186.165 325.722 186.986C323.964 187.987 323.567 190.768 324.743 192.302C325.342 193.122 326.238 193.679 327.244 193.856C328.25 194.032 329.289 193.815 330.143 193.25C336.564 189.543 341.62 183.884 344.557 177.116C344.776 176.662 344.903 176.171 344.93 175.669C344.958 175.168 344.886 174.667 344.719 174.195C344.551 173.722 344.291 173.288 343.954 172.916C343.617 172.544 343.209 172.243 342.753 172.028C342.297 171.814 341.802 171.691 341.298 171.666C340.793 171.642 340.287 171.716 339.81 171.885C339.333 172.054 338.894 172.315 338.517 172.652C338.14 172.989 337.834 173.396 337.615 173.85C336.962 175.321 336.206 176.746 335.352 178.113Z" fill="#E4E4E4"/>
<path d="M333.17 199.542C333.47 200.395 334.154 201.074 335.071 201.429C335.987 201.784 337.061 201.786 338.056 201.435C339.051 201.084 339.886 200.408 340.377 199.557C340.868 198.705 340.974 197.748 340.674 196.895C340.373 196.042 339.689 195.363 338.772 195.009C337.856 194.654 336.782 194.652 335.787 195.003C334.792 195.354 333.957 196.029 333.466 196.881C332.975 197.732 332.869 198.689 333.17 199.542Z" fill="#E4E4E4"/>
<path d="M19.4793 173.358C18.2721 172.935 16.9655 172.886 15.7298 173.216C14.4941 173.547 13.3867 174.243 12.5518 175.212C11.66 176.245 11.1226 177.537 11.0186 178.898C10.9145 180.259 11.2493 181.617 11.9737 182.774C12.6981 183.93 13.7741 184.824 15.0435 185.324C16.313 185.823 17.7091 185.903 19.0269 185.55C20.3448 185.197 21.5149 184.431 22.3655 183.364C23.2162 182.297 23.7025 180.985 23.7531 179.621C23.8037 178.257 23.4159 176.913 22.6467 175.786C21.8775 174.658 20.7674 173.808 19.4793 173.358ZM19.5826 180.503V180.47C19.5848 180.483 19.5917 180.495 19.602 180.503H19.5826ZM19.5826 180.393C19.4858 180.561 19.3889 180.729 19.2792 180.897C19.2211 180.955 19.1694 181.026 19.1178 181.078L18.9564 181.252C18.8143 181.33 18.6787 181.459 18.5432 181.53L18.3366 181.64L17.8136 181.788H17.7684C17.7215 181.797 17.6733 181.797 17.6264 181.788H17.5683C17.3876 181.798 17.2066 181.798 17.026 181.788L16.7096 181.717L16.4966 181.646C16.4966 181.646 16.4966 181.646 16.4578 181.646L16.3481 181.614C16.2125 181.569 16.2512 181.543 16.3481 181.569C16.2318 181.504 16.0898 181.452 16.0059 181.401L15.8509 181.297C15.767 181.213 15.6056 181.007 15.4765 180.884C15.5539 180.974 15.5604 181.078 15.4765 180.929C15.4573 180.893 15.4357 180.859 15.4119 180.826C15.4014 180.823 15.3902 180.823 15.3796 180.826L15.2634 180.645L15.1472 180.445C15.1149 180.283 15.0116 180.096 14.9793 179.947C14.947 179.799 14.9406 179.799 14.9277 179.721C14.9147 179.538 14.9147 179.355 14.9277 179.172C14.9277 179.172 14.9277 179.211 14.9277 179.243C14.9489 179.165 14.9641 179.085 14.9729 179.004C15.0181 178.823 15.0762 178.649 15.1343 178.474C15.1924 178.3 15.2376 178.274 15.2957 178.177L15.4119 177.996C15.4119 177.996 15.4119 177.996 15.4442 177.996V177.938C15.5281 177.803 15.5668 177.809 15.5475 177.861C15.6378 177.764 15.7218 177.647 15.7799 177.596C15.838 177.544 16.1221 177.363 15.8445 177.525C15.5668 177.686 15.8767 177.525 15.9219 177.473C16.1208 177.384 16.3129 177.28 16.4966 177.163L16.716 177.092C16.7919 177.067 16.8696 177.047 16.9485 177.034H17.7232C17.9363 177.092 18.1429 177.144 18.3689 177.208C18.4722 177.273 18.5819 177.318 18.6852 177.376L18.8789 177.499C18.8911 177.513 18.9066 177.524 18.9241 177.531L19.3308 177.938C19.3825 178.022 19.4406 178.1 19.4923 178.19C19.5439 178.281 19.602 178.384 19.6536 178.487C19.7053 178.591 19.7634 178.855 19.8086 179.049V179.133C19.8086 179.243 19.8086 179.269 19.8086 179.23C19.8139 179.308 19.8139 179.385 19.8086 179.463C19.8086 179.547 19.8086 179.631 19.8086 179.715C19.8086 179.799 19.7376 180.115 19.6924 180.244C19.6648 180.295 19.6346 180.345 19.602 180.393H19.5826Z" fill="#E4E4E4"/>
<path d="M15.5281 177.79C15.4879 177.84 15.4425 177.885 15.3925 177.925C15.4527 177.898 15.5009 177.85 15.5281 177.79Z" fill="#E4E4E4"/>
<path d="M17.6135 181.827H17.8007C17.6651 181.775 17.5554 181.821 17.6135 181.827Z" fill="#E4E4E4"/>
<path d="M14.9277 179.107C14.9277 178.933 15.031 178.746 14.9277 179.107V179.107Z" fill="#E4E4E4"/>
<path d="M19.8021 179.153C19.7957 179.093 19.7957 179.032 19.8021 178.972C19.7894 179.031 19.7894 179.093 19.8021 179.153Z" fill="#E4E4E4"/>
<path d="M16.4707 181.672C16.4313 181.632 16.3824 181.603 16.3287 181.588C16.3789 181.611 16.4266 181.639 16.4707 181.672Z" fill="#E4E4E4"/>
<path d="M8.74902 49.7914C8.27035 50.6649 8.11329 51.6958 8.30666 52.695C8.54263 53.688 9.13893 54.5535 9.96851 55.1072C11.5428 56.0561 14.1738 55.8776 15.0373 53.9444C15.7667 52.2922 16.6228 50.7062 17.5973 49.2016C17.8357 48.8346 18.0839 48.474 18.334 48.1217L18.7625 47.5376L18.8636 47.4016L19.153 47.0402C19.2758 46.8906 19.3987 46.741 19.5312 46.5978C19.8442 46.231 20.1904 45.8653 20.4895 45.5104C21.6722 44.248 22.9487 43.085 24.3074 42.0319C24.5086 41.899 24.698 41.7515 24.8913 41.6204C25.2483 41.3736 25.6072 41.1351 25.9699 40.9131C26.7367 40.4336 27.519 39.9852 28.3264 39.5744C28.7629 39.3471 29.1496 39.03 29.4636 38.6417C29.7777 38.2533 30.0127 37.8017 30.155 37.3134C30.2973 36.8251 30.3438 36.3099 30.2919 35.7983C30.24 35.2867 30.0907 34.789 29.8528 34.3346C29.6149 33.8801 29.2933 33.478 28.9068 33.1521C28.5203 32.8262 28.0768 32.583 27.6024 32.4368C27.128 32.2906 26.6324 32.2445 26.1447 32.3011C25.657 32.3576 25.1871 32.5158 24.7627 32.7662C17.7298 36.3959 12.0978 42.3836 8.74902 49.7914Z" fill="#E4E4E4"/>
<path d="M13.8775 24.0126C9.63147 26.7137 5.92173 30.2173 2.93797 34.3442C2.43273 35.1899 2.27474 36.2135 2.49849 37.1917C2.72762 38.1702 3.3155 39.0238 4.13702 39.5709C4.54687 39.8382 5.00242 40.0199 5.4775 40.1056C5.95257 40.1913 6.43781 40.1793 6.90531 40.0704C7.82904 39.8137 8.63101 39.2282 9.17131 38.416C9.36493 38.1498 9.56822 37.89 9.76371 37.6319C11.5152 35.4882 13.4981 33.5597 15.6748 31.8829C16.2397 31.4803 16.8125 31.076 17.4004 30.7023C18.2214 30.2218 18.8406 29.4462 19.1427 28.5198C19.4184 27.5455 19.3124 26.492 18.8474 25.585C17.8943 23.9015 15.6355 22.9013 13.8775 24.0126Z" fill="#E4E4E4"/>
</svg>
