<svg width="360" height="228" viewBox="0 0 360 228" fill="none" xmlns="http://www.w3.org/2000/svg">
<path d="M341.078 67.5589C341.215 63.8997 341.172 60.5594 339.944 57.0675C337.677 50.6602 332.404 46.7966 326.109 46.0691C246.095 39.2065 159.678 31.262 80.6034 43.6144C72.0935 44.9439 63.3383 45.781 54.9173 47.1413C47.5167 48.1548 39.6928 48.8156 32.4732 51.0319C29.89 51.8299 26.3933 53.047 25.4003 55.9462C24.49 58.6632 24.3877 61.948 24.1335 64.738C22.078 88.416 22.161 112.198 22.4383 135.956C22.6186 149.355 24.0748 152.089 25.4003 165.455C25.654 167.986 29.1123 173.961 39.3636 174.063C108.034 182.236 214.688 189.881 305.861 181.543C310.828 181.088 315.599 179.392 319.781 176.595C323.963 173.797 327.435 169.979 329.911 165.455C335.914 154.58 334.721 144.647 336.021 132.341C341.944 76.4076 338.869 123.766 341.078 67.5589Z" fill="#F7EDC9"/>
<path d="M164 214L254 183.167L190.916 174C190.916 188 172.972 206.5 164 214Z" fill="#F7EDC9"/>
<path d="M7.40943 49.9432C7.619 50.6952 8.11774 51.3335 8.79652 51.7185C9.47531 52.1035 10.2789 52.2038 11.0314 51.9974C11.3997 51.9018 11.745 51.733 12.0467 51.5011C12.3484 51.2691 12.6003 50.9788 12.7875 50.6473C13.6185 48.7802 14.6419 47.0049 15.8412 45.3503C15.9768 45.1694 16.4869 44.504 15.9381 45.2146C16.0995 45.0144 16.248 44.8141 16.4094 44.6203C16.7322 44.2327 17.055 43.8516 17.3972 43.4834C18.0981 42.7207 18.8372 41.9941 19.6117 41.3064C20.1593 40.7515 20.4664 40.003 20.4664 39.2231C20.4664 38.4432 20.1593 37.6948 19.6117 37.1398C19.05 36.6054 18.3046 36.3074 17.5295 36.3074C16.7545 36.3074 16.0091 36.6054 15.4474 37.1398C12.1476 40.06 9.50661 43.6493 7.69995 47.6693C7.32851 48.3663 7.22515 49.1752 7.40943 49.9432Z" fill="#F7EDC9"/>
<path d="M1.47616 46.4032C2.15344 46.783 2.95142 46.8855 3.70259 46.6891C4.45377 46.4928 5.09972 46.0129 5.50484 45.3503C6.13465 44.3065 6.82 43.2973 7.55792 42.3271C8.79045 40.767 10.158 39.3187 11.6447 37.999C12.1939 37.4449 12.5021 36.6961 12.5021 35.9157C12.5021 35.1353 12.1939 34.3865 11.6447 33.8324C11.083 33.298 10.3376 33 9.56257 33C8.78752 33 8.0421 33.298 7.48044 33.8324C4.689 36.2973 2.29364 39.1777 0.378605 42.3723C-0.00203791 43.0542 -0.100306 43.8583 0.104895 44.612C0.310096 45.3656 0.802408 46.0087 1.47616 46.4032Z" fill="#F7EDC9"/>
<path d="M330.375 195.872L330.454 195.931C330.431 195.907 330.405 195.887 330.375 195.872Z" fill="#F7EDC9"/>
<path d="M331.46 196.673C331.421 196.632 331.372 196.601 331.318 196.583C331.369 196.608 331.416 196.638 331.46 196.673Z" fill="#F7EDC9"/>
<path d="M334.488 188.36C333.281 187.936 331.975 187.885 330.74 188.215C329.504 188.544 328.396 189.239 327.561 190.207C326.666 191.24 326.126 192.533 326.019 193.895C325.913 195.258 326.246 196.619 326.97 197.778C327.694 198.937 328.771 199.833 330.041 200.335C331.312 200.836 332.71 200.917 334.03 200.565C335.35 200.213 336.522 199.447 337.374 198.379C338.227 197.311 338.715 195.998 338.766 194.632C338.817 193.266 338.429 191.92 337.659 190.791C336.889 189.662 335.778 188.81 334.488 188.36ZM334.566 195.504C334.563 195.491 334.563 195.478 334.566 195.465C334.566 195.465 334.572 195.491 334.572 195.504H334.566ZM334.598 195.388C334.501 195.562 334.398 195.73 334.294 195.898L334.127 196.079C334.076 196.136 334.022 196.19 333.965 196.241C333.823 196.318 333.681 196.441 333.552 196.518L333.345 196.628C333.171 196.68 332.997 196.732 332.816 196.77H332.88H332.771C332.726 196.782 332.68 196.782 332.635 196.77H332.551C332.364 196.77 332.19 196.77 332.002 196.77L331.693 196.699L331.479 196.628C331.479 196.628 331.479 196.628 331.479 196.596L331.37 196.564C331.228 196.518 331.266 196.486 331.37 196.512C331.254 196.454 331.111 196.402 331.028 196.35L330.873 196.241C330.782 196.157 330.627 195.944 330.498 195.827C330.576 195.918 330.582 196.021 330.498 195.872L330.434 195.769C330.395 195.704 330.35 195.646 330.317 195.588C330.285 195.53 330.24 195.453 330.201 195.382C330.201 195.226 330.072 195.039 330.033 194.891C329.995 194.742 330.033 194.736 329.982 194.664C329.969 194.48 329.969 194.294 329.982 194.109V194.174C329.982 194.102 329.982 194.018 330.027 193.941C330.066 193.76 330.13 193.586 330.182 193.411C330.233 193.237 330.292 193.205 330.35 193.108C330.408 193.011 330.421 192.991 330.459 192.933L330.498 192.882C330.582 192.739 330.621 192.752 330.601 192.804C330.685 192.707 330.776 192.591 330.827 192.539C330.879 192.487 331.17 192.307 330.892 192.468L330.976 192.416C331.175 192.327 331.367 192.224 331.55 192.106L331.77 192.029L332.002 191.971H332.777C332.99 192.022 333.197 192.081 333.423 192.145L333.733 192.313C333.8 192.35 333.864 192.391 333.926 192.436L333.972 192.468L334.378 192.875C334.436 192.953 334.495 193.037 334.546 193.121C334.598 193.205 334.649 193.321 334.708 193.418C334.766 193.515 334.817 193.792 334.863 193.98C334.859 193.956 334.859 193.932 334.863 193.909C334.859 193.934 334.859 193.96 334.863 193.986V194.07C334.863 194.18 334.863 194.199 334.863 194.167C334.863 194.251 334.863 194.335 334.863 194.393C334.863 194.451 334.863 194.568 334.863 194.652C334.811 194.825 334.773 195.002 334.746 195.181C334.669 195.226 334.63 195.31 334.604 195.388H334.598Z" fill="#F7EDC9"/>
<path d="M332.603 196.828H332.751C332.622 196.777 332.551 196.816 332.603 196.828Z" fill="#F7EDC9"/>
<path d="M334.792 194.154C334.785 194.094 334.785 194.033 334.792 193.973C334.774 194.032 334.774 194.095 334.792 194.154Z" fill="#F7EDC9"/>
<path d="M330.517 192.791C330.477 192.841 330.429 192.885 330.375 192.92C330.435 192.893 330.485 192.848 330.517 192.791Z" fill="#F7EDC9"/>
<path d="M329.911 194.109C329.911 193.928 330.02 193.741 329.911 194.109Z" fill="#F7EDC9"/>
</svg>
