<svg width="267" height="201" viewBox="0 0 267 201" fill="none" xmlns="http://www.w3.org/2000/svg">
<path d="M182.5 32L203.5 58.0651L180 58.0651C184.5 50.5651 182.5 43.5 182.5 32Z" fill="white"/>
<path d="M245.806 137.494C245.806 150.467 220.454 149.938 207.943 149.743C142.288 146.882 99.599 156.743 37.7618 145.533C15.6724 139.82 15.7067 132.524 16.8927 109.965C17.6359 96.015 12.356 69.0036 26.1887 59.5261C30.491 56.5785 37.247 53.5941 46.9929 53.7124C56.7389 53.8307 58.5011 53.9293 72.6381 53.5941C75.1815 53.6273 77.7623 53.1836 80.2896 52.943C82.817 52.7024 85.4927 52.4545 88.089 52.2283C93.2909 51.7824 98.497 51.3994 103.707 51.0793C124.404 49.7942 145.128 49.4663 165.878 50.0957C176.322 50.4078 186.752 50.959 197.169 51.7493C202.375 52.1417 207.577 52.5985 212.775 53.1195C217.742 53.6164 222.898 53.8709 227.784 54.9162C231.311 55.6708 234.608 57.251 237.404 59.5262C240.199 61.8014 242.414 64.7063 243.864 68.0013C253.131 88.8592 247.218 115.357 245.806 137.494Z" fill="white"/>
</svg>
