<svg width="323" height="195" viewBox="0 0 323 195" fill="none" xmlns="http://www.w3.org/2000/svg">
<path d="M317.916 175.5C317.916 193.437 282.862 192.705 265.563 192.437C174.785 188.481 115.76 202.115 30.2602 186.615C-0.28208 178.716 -0.234649 168.628 1.40523 137.437C2.43289 118.148 -4.86751 41.301 14.2585 28.1968C20.2071 24.1211 36.2325 20.1606 43.0237 20.1584C44.218 11.2756 43.0237 0.687687 43.0237 0.687687C43.0237 0.687687 65.7782 14.5672 74.6809 19.1256C75.8559 19.7273 77.1629 20.0261 78.4824 19.9948C81.999 20.0407 85.5674 19.4271 89.0619 19.0945C92.5564 18.7618 96.256 18.419 99.8457 18.1063C107.038 17.4898 114.237 16.9602 121.441 16.5177C150.057 14.7408 178.711 14.2875 207.402 15.1577C221.842 15.5892 236.264 16.3514 250.667 17.444C257.865 17.9866 265.057 18.6181 272.245 19.3386C279.112 20.0256 286.241 20.3775 292.997 21.8228C297.873 22.8662 302.432 25.051 306.298 28.1968C310.163 31.3426 313.225 35.3592 315.229 39.915C328.043 68.7545 319.867 144.892 317.916 175.5Z" fill="#E4E4E4"/>
</svg>
