<?xml version="1.0" encoding="utf-8"?>
<!-- Generator: Adobe Illustrator 26.3.1, SVG Export Plug-In . SVG Version: 6.00 Build 0)  -->
<svg version="1.1" id="圖層_1" xmlns="http://www.w3.org/2000/svg" xmlns:xlink="http://www.w3.org/1999/xlink" x="0px" y="0px"
	 viewBox="0 0 359 228" style="enable-background:new 0 0 359 228;" xml:space="preserve">
<style type="text/css">
	.st0{fill:#E4E4E4;}
	.st1{fill:#E4E4E4;}
</style>
<path class="st0" d="M339.6,67.8c0.1-3.7,0.1-7-1.1-10.5c-2.3-6.4-7.5-10.3-13.8-11c-80-6.9-166.4-14.8-245.5-2.5
	c-8.5,1.3-17.3,2.2-25.7,3.5c-7.4,1-15.2,1.7-22.4,3.9c-2.6,0.8-6.1,2-7.1,4.9c-0.9,2.7-1,6-1.3,8.8c-2.1,23.7-2,39.3-1.7,63.1
	c0.2,13.4,1.6,16.1,3,29.5c0.3,2.5,3.7,8.5,14,8.6c68.7,8.2,175.3,24,266.5,15.6c5-0.5,9.7-2.2,13.9-4.9c4.2-2.8,7.7-6.6,10.1-11.1
	c6-10.9,4.8-20.8,6.1-33.1C340.5,76.6,337.4,124,339.6,67.8z"/>
<path class="st0" d="M191,202l53.5-18.5L207,178C207,186.4,196.3,197.5,191,202z"/>
<path class="st1" d="M335.4,178.1l-0.3,0.5l-0.7,0.9c-0.5,0.7-1,1.3-1.6,1.9c-0.6,0.6-1.1,1.2-1.6,1.7c-0.1,0.1-0.2,0.2-0.3,0.3
	l-0.1,0c-0.3,0.2-0.6,0.5-0.9,0.7c-1.3,1-2.7,2-4.1,2.8c-1.8,1-2.2,3.8-1,5.3c0.6,0.8,1.5,1.4,2.5,1.6c1,0.2,2,0,2.9-0.6
	c6.4-3.7,11.5-9.4,14.4-16.1c0.2-0.5,0.3-0.9,0.4-1.4c0-0.5,0-1-0.2-1.5c-0.2-0.5-0.4-0.9-0.8-1.3c-0.3-0.4-0.7-0.7-1.2-0.9
	c-0.5-0.2-1-0.3-1.5-0.4c-0.5,0-1,0.1-1.5,0.2c-0.5,0.2-0.9,0.4-1.3,0.8c-0.4,0.3-0.7,0.7-0.9,1.2
	C337,175.3,336.2,176.7,335.4,178.1z"/>
<path class="st1" d="M333.2,199.5c0.3,0.9,1,1.5,1.9,1.9c0.9,0.4,2,0.4,3,0s1.8-1,2.3-1.9c0.5-0.9,0.6-1.8,0.3-2.7s-1-1.5-1.9-1.9
	c-0.9-0.4-2-0.4-3,0c-1,0.4-1.8,1-2.3,1.9C333,197.7,332.9,198.7,333.2,199.5z"/>
<path class="st1" d="M19.5,173.4c-1.2-0.4-2.5-0.5-3.7-0.1c-1.2,0.3-2.3,1-3.2,2c-0.9,1-1.4,2.3-1.5,3.7c-0.1,1.4,0.2,2.7,1,3.9
	c0.7,1.2,1.8,2.1,3.1,2.6c1.3,0.5,2.7,0.6,4,0.2c1.3-0.4,2.5-1.1,3.3-2.2c0.9-1.1,1.3-2.4,1.4-3.7s-0.3-2.7-1.1-3.8
	C21.9,174.7,20.8,173.8,19.5,173.4z M19.6,180.5L19.6,180.5C19.6,180.5,19.6,180.5,19.6,180.5L19.6,180.5z M19.6,180.4
	c-0.1,0.2-0.2,0.3-0.3,0.5c-0.1,0.1-0.1,0.1-0.2,0.2l-0.2,0.2c-0.1,0.1-0.3,0.2-0.4,0.3l-0.2,0.1l-0.5,0.1h0c0,0-0.1,0-0.1,0h-0.1
	c-0.2,0-0.4,0-0.5,0l-0.3-0.1l-0.2-0.1c0,0,0,0,0,0l-0.1,0c-0.1,0-0.1-0.1,0,0c-0.1-0.1-0.3-0.1-0.3-0.2l-0.2-0.1
	c-0.1-0.1-0.2-0.3-0.4-0.4c0.1,0.1,0.1,0.2,0,0c0,0,0-0.1-0.1-0.1c0,0,0,0,0,0l-0.1-0.2l-0.1-0.2c0-0.2-0.1-0.3-0.2-0.5
	c0-0.1,0-0.1-0.1-0.2c0-0.2,0-0.4,0-0.5c0,0,0,0,0,0.1c0-0.1,0-0.2,0-0.2c0-0.2,0.1-0.4,0.2-0.5c0.1-0.2,0.1-0.2,0.2-0.3l0.1-0.2
	c0,0,0,0,0,0v-0.1c0.1-0.1,0.1-0.1,0.1-0.1c0.1-0.1,0.2-0.2,0.2-0.3c0.1-0.1,0.3-0.2,0.1-0.1c-0.3,0.2,0,0,0.1-0.1
	c0.2-0.1,0.4-0.2,0.6-0.3l0.2-0.1c0.1,0,0.2,0,0.2-0.1h0.8c0.2,0.1,0.4,0.1,0.6,0.2c0.1,0.1,0.2,0.1,0.3,0.2l0.2,0.1c0,0,0,0,0,0
	l0.4,0.4c0.1,0.1,0.1,0.2,0.2,0.3c0.1,0.1,0.1,0.2,0.2,0.3c0.1,0.1,0.1,0.4,0.2,0.6v0.1c0,0.1,0,0.1,0,0.1c0,0.1,0,0.2,0,0.2
	c0,0.1,0,0.2,0,0.3s-0.1,0.4-0.1,0.5C19.7,180.3,19.6,180.3,19.6,180.4L19.6,180.4z"/>
<path class="st1" d="M15.5,177.8c0,0.1-0.1,0.1-0.1,0.1C15.5,177.9,15.5,177.9,15.5,177.8z"/>
<path class="st1" d="M17.6,181.8h0.2C17.7,181.8,17.6,181.8,17.6,181.8z"/>
<path class="st1" d="M14.9,179.1C14.9,178.9,15,178.7,14.9,179.1L14.9,179.1z"/>
<path class="st1" d="M19.8,179.2c0-0.1,0-0.1,0-0.2C19.8,179,19.8,179.1,19.8,179.2z"/>
<path class="st1" d="M16.5,181.7c0,0-0.1-0.1-0.1-0.1C16.4,181.6,16.4,181.6,16.5,181.7z"/>
<path class="st1" d="M8.7,49.8c-0.5,0.9-0.6,1.9-0.4,2.9c0.2,1,0.8,1.9,1.7,2.4c1.6,0.9,4.2,0.8,5.1-1.2c0.7-1.7,1.6-3.2,2.6-4.7
	c0.2-0.4,0.5-0.7,0.7-1.1l0.4-0.6l0.1-0.1l0.3-0.4c0.1-0.1,0.2-0.3,0.4-0.4c0.3-0.4,0.7-0.7,1-1.1c1.2-1.3,2.5-2.4,3.8-3.5
	c0.2-0.1,0.4-0.3,0.6-0.4c0.4-0.2,0.7-0.5,1.1-0.7c0.8-0.5,1.5-0.9,2.4-1.3c0.4-0.2,0.8-0.5,1.1-0.9c0.3-0.4,0.5-0.8,0.7-1.3
	c0.1-0.5,0.2-1,0.1-1.5c-0.1-0.5-0.2-1-0.4-1.5c-0.2-0.5-0.6-0.9-0.9-1.2s-0.8-0.6-1.3-0.7c-0.5-0.1-1-0.2-1.5-0.1
	c-0.5,0.1-1,0.2-1.4,0.5C17.7,36.4,12.1,42.4,8.7,49.8z"/>
<path class="st1" d="M13.9,24c-4.2,2.7-8,6.2-10.9,10.3c-0.5,0.8-0.7,1.9-0.4,2.8c0.2,1,0.8,1.8,1.6,2.4C4.5,39.8,5,40,5.5,40.1
	c0.5,0.1,1,0.1,1.4,0c0.9-0.3,1.7-0.8,2.3-1.7c0.2-0.3,0.4-0.5,0.6-0.8c1.8-2.1,3.7-4.1,5.9-5.7c0.6-0.4,1.1-0.8,1.7-1.2
	c0.8-0.5,1.4-1.3,1.7-2.2c0.3-1,0.2-2-0.3-2.9C17.9,23.9,15.6,22.9,13.9,24z"/>
</svg>
