<svg width="323" height="194" viewBox="0 0 323 194" fill="none" xmlns="http://www.w3.org/2000/svg">
<path d="M317.916 175.159C317.916 193.096 282.862 192.365 265.563 192.096C174.785 188.14 115.76 201.775 30.2602 186.275C-0.28208 178.376 -0.234649 168.287 1.40523 137.096C2.43289 117.808 -4.86751 40.9603 14.2585 27.8562C20.2071 23.7805 36.2325 19.82 43.0237 19.8177C44.218 10.935 43.0237 0.34705 43.0237 0.34705C43.0237 0.34705 65.7782 14.2266 74.6809 18.785C75.8559 19.3867 77.1629 19.6855 78.4824 19.6542C81.999 19.7 85.5674 19.0865 89.0619 18.7538C92.5564 18.4212 96.256 18.0784 99.8457 17.7657C107.038 17.1492 114.237 16.6196 121.441 16.177C150.057 14.4001 178.711 13.9468 207.402 14.8171C221.842 15.2486 236.264 16.0107 250.667 17.1034C257.865 17.646 265.057 18.2775 272.245 18.9979C279.112 19.6849 286.241 20.0369 292.997 21.4821C297.873 22.5255 302.432 24.7104 306.298 27.8562C310.163 31.002 313.225 35.0186 315.229 39.5744C328.043 68.4138 319.867 144.551 317.916 175.159Z" fill="#F1E3E3"/>
</svg>
