<svg width="251" height="116" viewBox="0 0 251 116" fill="none" xmlns="http://www.w3.org/2000/svg">
<path d="M48.5896 89.3406L48.5264 89.8366L48.5266 89.8366L48.5896 89.3406ZM73.9647 90.8679L73.9512 91.3677L73.9647 90.8679ZM5.25938 65.3372L5.71079 65.1222L5.7104 65.1214L5.25938 65.3372ZM9.26694 20.8037L8.87775 20.4898L8.87741 20.4902L9.26694 20.8037ZM30.5657 7.08356L30.4032 6.61072L30.4028 6.61084L30.5657 7.08356ZM56.3827 2.33986L56.4185 2.83858L56.4186 2.83857L56.3827 2.33986ZM83.137 1.58863L83.1339 1.08864L83.137 1.58863ZM87.2561 1.56066L87.26 2.06064L87.2602 2.06064L87.2561 1.56066ZM115.226 1.51638L115.225 2.01638L115.226 1.51638ZM120.089 1.52447L120.09 1.02447L120.09 1.02447L120.089 1.52447ZM153.366 1.34493L153.374 1.84486L153.374 1.84486L153.366 1.34493ZM160.2 1.19595L160.188 0.696098L160.2 1.19595ZM184.586 1.41374L184.548 1.91233V1.91233L184.586 1.41374ZM199.005 2.83462L199.064 2.33803L199.063 2.33799L199.005 2.83462ZM199.977 2.94838L200.035 2.45176L199.977 2.94838ZM212.906 4.8744L213.011 4.38559L213.011 4.38548L212.906 4.8744ZM238.111 16.7504L237.783 17.1282L237.786 17.13L238.111 16.7504ZM250.173 39.6348L249.676 39.6893L249.676 39.6894L250.173 39.6348ZM244.47 60.5711L244.883 60.8523L244.47 60.5711ZM206.599 84.7316L206.703 85.2208L206.715 85.2181L206.599 84.7316ZM196.07 86.4066L196.017 85.9092L196.007 85.9106L196.07 86.4066ZM178.522 88.4014L178.571 88.8989L178.571 88.8989L178.522 88.4014ZM177.477 88.5036L177.429 88.0059L177.262 88.0221L177.138 88.1357L177.477 88.5036ZM148.023 115.612L147.575 115.39L148.362 115.98L148.023 115.612ZM153.963 90.3252L154.458 90.25L154.389 89.7993L153.934 89.826L153.963 90.3252ZM108.388 91.5506L108.389 91.0506H108.389L108.388 91.5506ZM78.0209 90.9779L78.0345 90.4781H78.0345L78.0209 90.9779ZM75.2051 90.9015L75.1915 91.4013H75.1916L75.2051 90.9015ZM48.5266 89.8366C56.9714 90.9097 65.4936 91.1394 73.9512 91.3677L73.9781 90.3681C65.5122 90.1395 57.0398 89.9104 48.6526 88.8446L48.5266 89.8366ZM4.80798 65.5523C12.65 82.0158 32.1482 87.7503 48.5264 89.8366L48.6528 88.8446C32.2916 86.7605 13.3075 81.0708 5.71079 65.1222L4.80798 65.5523ZM8.87741 20.4902C-1.00691 32.7721 -1.85426 51.6297 4.80836 65.5531L5.7104 65.1214C-0.813331 51.4883 0.0505992 33.0531 9.65646 21.1172L8.87741 20.4902ZM30.4028 6.61084C22.3956 9.36983 14.3516 13.7031 8.87775 20.4898L9.65612 21.1176C14.9652 14.5351 22.8124 10.2839 30.7286 7.55629L30.4028 6.61084ZM56.347 1.84114C47.6057 2.46792 38.7646 3.73606 30.4032 6.61072L30.7283 7.5564C38.9745 4.72134 47.7196 3.46232 56.4185 2.83858L56.347 1.84114ZM83.1339 1.08864C74.2171 1.14458 65.2426 1.2007 56.3468 1.84115L56.4186 2.83857C65.2762 2.20087 74.2178 2.14459 83.1401 2.08862L83.1339 1.08864ZM87.2522 1.06067C85.8808 1.07141 84.508 1.08002 83.1339 1.08864L83.1401 2.08862C84.5142 2.08 85.8877 2.07138 87.26 2.06064L87.2522 1.06067ZM115.227 1.01638C105.904 0.999934 96.5792 0.98348 87.252 1.06067L87.2602 2.06064C96.5816 1.98349 105.902 1.99993 115.225 2.01638L115.227 1.01638ZM120.09 1.02447C118.469 1.0221 116.848 1.01924 115.227 1.01638L115.225 2.01638C116.846 2.01924 118.467 2.0221 120.089 2.02446L120.09 1.02447ZM153.358 0.844996C142.27 1.0282 131.184 1.04321 120.09 1.02447L120.089 2.02446C131.184 2.04321 142.277 2.02822 153.374 1.84486L153.358 0.844996ZM160.188 0.696098C157.912 0.751658 155.636 0.807198 153.358 0.844997L153.374 1.84486C155.657 1.80698 157.937 1.75134 160.213 1.6958L160.188 0.696098ZM184.624 0.915163C176.456 0.298671 168.318 0.497696 160.188 0.696098L160.213 1.6958C168.35 1.4972 176.438 1.30021 184.548 1.91233L184.624 0.915163ZM199.063 2.33799C194.264 1.77805 189.449 1.2793 184.624 0.915163L184.548 1.91233C189.355 2.2751 194.156 2.77226 198.948 3.33125L199.063 2.33799ZM200.035 2.45176C199.711 2.41389 199.387 2.37604 199.064 2.33803L198.947 3.33121C199.271 3.36925 199.595 3.40713 199.919 3.445L200.035 2.45176ZM213.011 4.38548C208.716 3.4661 204.355 2.95672 200.035 2.45176L199.919 3.445C204.247 3.95088 208.561 4.4555 212.801 5.36332L213.011 4.38548ZM238.439 16.3726C231.224 10.1176 222.221 6.36731 213.011 4.38559L212.801 5.36321C221.895 7.32015 230.73 11.0124 237.783 17.1281L238.439 16.3726ZM250.67 39.5802C249.68 30.5576 245.304 22.2559 238.436 16.3707L237.786 17.13C244.46 22.8493 248.714 30.9182 249.676 39.6893L250.67 39.5802ZM244.883 60.8523C249.747 53.7013 251.502 47.1398 250.67 39.5801L249.676 39.6894C250.479 46.984 248.803 53.3107 244.056 60.2899L244.883 60.8523ZM206.715 85.2181C220.697 81.8989 236.617 73.007 244.883 60.8523L244.056 60.2899C235.969 72.1808 220.301 80.9653 206.484 84.2451L206.715 85.2181ZM196.123 86.9038C199.676 86.5277 203.208 85.9659 206.703 85.2206L206.495 84.2426C203.033 84.9806 199.536 85.5369 196.017 85.9093L196.123 86.9038ZM178.571 88.8989C184.433 88.3141 190.287 87.6486 196.133 86.9025L196.007 85.9106C190.17 86.6555 184.325 87.3199 178.472 87.9038L178.571 88.8989ZM177.525 89.0012C177.874 88.9675 178.222 88.9334 178.571 88.8989L178.472 87.9038C178.125 87.9381 177.777 87.9722 177.429 88.0059L177.525 89.0012ZM148.362 115.98L177.815 88.8715L177.138 88.1357L147.685 115.244L148.362 115.98ZM153.469 90.4004C154.062 94.2987 153.278 99.1654 151.986 103.778C150.697 108.38 148.919 112.67 147.575 115.39L148.471 115.833C149.84 113.064 151.641 108.716 152.949 104.048C154.253 99.3925 155.083 94.3606 154.458 90.25L153.469 90.4004ZM108.387 92.0506C123.595 92.086 138.812 91.7169 153.993 90.8243L153.934 89.826C138.776 90.7173 123.58 91.0859 108.389 91.0506L108.387 92.0506ZM78.0073 91.4777C88.1282 91.7532 98.2524 92.0288 108.387 92.0506L108.389 91.0506C98.2692 91.0288 88.1575 90.7536 78.0345 90.4781L78.0073 91.4777ZM75.1916 91.4013C76.1302 91.4266 77.0687 91.4522 78.0073 91.4777L78.0345 90.4781C77.0959 90.4525 76.1573 90.427 75.2186 90.4016L75.1916 91.4013ZM73.9512 91.3677C74.3647 91.3789 74.7781 91.39 75.1915 91.4013L75.2187 90.4016C74.8052 90.3904 74.3917 90.3792 73.9781 90.3681L73.9512 91.3677Z" fill="#FFE7A6"/>
</svg>
