<svg width="186" height="109" viewBox="0 0 186 109" fill="none" xmlns="http://www.w3.org/2000/svg">
<path d="M186 66.3599C186 75.5 186 89.5 174.536 93.9385C155.317 101.38 101.157 105.044 60.5001 104C34.776 103.34 13.8547 97.7567 10.6848 93.9385C7.0001 89.5 1.78018 83.0994 2.00508 66.3599C2.43663 34.0154 20.4344 0 71.2425 0C122.051 0 186 33.9969 186 66.3599Z" fill="#E18890"/>
<path d="M77.4955 56C60.8498 56 60.8198 81 77.4955 81C94.1712 81 94.1652 56 77.4955 56Z" fill="#271915"/>
<path d="M42 56L78 60" stroke="#271915" stroke-width="4" stroke-miterlimit="10" stroke-linecap="round"/>
<path d="M85 68.5C85 72.0815 83.4308 75 81.5 75C79.5692 75 78 72.0945 78 68.5C78 64.9055 79.5692 62 81.5 62C83.4308 62 85 64.9185 85 68.5Z" fill="white"/>
<path d="M110.504 56C127.15 56 127.18 81 110.504 81C93.8288 81 93.8348 56 110.504 56Z" fill="#271915"/>
<path d="M145 56L109 60" stroke="#271915" stroke-width="4" stroke-miterlimit="10" stroke-linecap="round"/>
<path d="M102 68.5C102 72.0815 103.575 75 105.5 75C107.425 75 109 72.0945 109 68.5C109 64.9055 107.431 62 105.5 62C103.569 62 102 64.9185 102 68.5Z" fill="white"/>
<path d="M29.9605 93L27 88.0313L45.3524 78L48 82.4349L29.9605 93Z" fill="#F5F8FF"/>
<path d="M5.34938 108.529C4.97462 108.758 4.56045 108.907 4.13055 108.969C3.70065 109.03 3.26342 109.001 2.84393 108.886C2.42444 108.77 2.03089 108.569 1.68577 108.294C1.34064 108.018 1.05067 107.675 0.832528 107.282L0.445262 106.584C0.00700863 105.791 -0.113655 104.849 0.10964 103.963C0.332935 103.077 0.882045 102.32 1.63703 101.857L26.0683 88L29 93.282L5.34938 108.529Z" fill="#433A60"/>
<g opacity="0.35">
<path d="M88.5524 86.6047C99.6763 76.7677 100.719 59.7765 90.8805 48.6538C81.0425 37.5311 64.0495 36.4889 52.9256 46.326C41.8018 56.163 40.7595 73.1542 50.5976 84.2769C60.4357 95.3996 77.4286 96.4418 88.5524 86.6047Z" fill="white"/>
</g>
<g opacity="0.35">
<path d="M88.5524 86.6047C99.6763 76.7677 100.719 59.7765 90.8805 48.6538C81.0425 37.5311 64.0495 36.4889 52.9256 46.326C41.8018 56.163 40.7595 73.1542 50.5976 84.2769C60.4357 95.3996 77.4286 96.4418 88.5524 86.6047Z" fill="white"/>
</g>
<path d="M96.0126 52.1915C93.0832 47.3163 88.7232 43.3899 83.4839 40.9089C78.2445 38.4278 72.3613 37.5036 66.5782 38.253C60.7952 39.0024 55.372 41.3917 50.9947 45.1189C46.6173 48.8462 43.4823 53.7438 41.9862 59.1924C40.4901 64.641 40.7001 70.3959 42.5897 75.7292C44.4792 81.0625 47.9633 85.7346 52.6015 89.1548C57.2397 92.575 62.8235 94.5896 68.6469 94.9437C74.4702 95.2978 80.2714 93.9756 85.3169 91.1442C92.0812 87.3484 97.0079 81.1123 99.0137 73.8075C101.019 66.5027 99.94 58.7274 96.0126 52.1915ZM48.7731 78.6882C46.2805 74.5367 45.1178 69.7645 45.432 64.9748C45.7461 60.1851 47.523 55.5929 50.538 51.7785C53.553 47.9642 57.6707 45.0989 62.3708 43.545C67.0709 41.991 72.1424 41.8182 76.9442 43.0481C81.746 44.2781 86.0626 46.8556 89.3485 50.4551C92.6343 54.0546 94.7419 58.5144 95.4048 63.2708C96.0677 68.0272 95.2561 72.8667 93.0728 77.1776C90.8894 81.4885 87.4322 85.0773 83.1381 87.4905C80.2837 89.0937 77.1303 90.1378 73.8581 90.563C70.5859 90.9883 67.259 90.7865 64.0676 89.969C60.8762 89.1515 57.8828 87.7345 55.2585 85.7989C52.6341 83.8633 50.4304 81.447 48.7731 78.6882Z" fill="#433A60"/>
<g opacity="0.35">
<path d="M81.4921 85.0107C72.0665 90.4902 60.248 87.7201 55.0967 78.8434C54.6706 78.1082 54.2981 77.3431 53.9824 76.5542C59.6695 83.7323 70.3068 85.6257 78.9469 80.615C87.5871 75.6044 91.21 65.3943 87.7941 56.9316C88.3262 57.594 88.8066 58.2961 89.2311 59.0321C94.3762 67.9088 90.9177 79.5374 81.4921 85.0107Z" fill="white"/>
</g>
</svg>
