<svg width="198" height="90" viewBox="0 0 198 90" fill="none" xmlns="http://www.w3.org/2000/svg">
<path d="M175.351 65.144C175.351 70.0938 178.068 76.2534 172.385 79.4524C140.877 97.1576 51.3772 88.2701 3.39464 83.5239C1.96379 79.5687 0 69.3726 0 65.144C0 34.631 23.7509 0 88.2605 0C147.667 0.0174493 175.351 34.631 175.351 65.144Z" fill="#22ACB2"/>
<path d="M63 66C70.1797 66 76 60.4036 76 53.5C76 46.5965 70.1797 41 63 41C55.8203 41 50 46.5965 50 53.5C50 60.4036 55.8203 66 63 66Z" fill="white"/>
<path d="M55 62.057C55 62.1151 55 62.1673 55 62.2254C57.307 64.6422 60.4359 66 63.6985 66C66.961 66 70.09 64.6422 72.397 62.2254C74.7039 59.8086 76 56.5307 76 53.1127C76 49.6948 74.7039 46.4168 72.397 44H72.2363C67.6658 44.0031 63.2834 45.9065 60.0516 49.2922C56.8198 52.6779 55.0029 57.269 55 62.057Z" fill="black"/>
<path d="M114.5 66C121.404 66 127 60.4036 127 53.5C127 46.5965 121.404 41 114.5 41C107.596 41 102 46.5965 102 53.5C102 60.4036 107.596 66 114.5 66Z" fill="white"/>
<path d="M105 62.057C105 62.1151 105 62.1673 105 62.2254C107.417 64.6422 110.695 66 114.113 66C117.531 66 120.809 64.6422 123.225 62.2254C125.642 59.8086 127 56.5307 127 53.1127C127 49.6948 125.642 46.4168 123.225 44H123.057C118.269 44.0015 113.677 45.9045 110.29 49.2905C106.904 52.6765 105.002 57.2685 105 62.057Z" fill="black"/>
<path d="M96.7982 50.878C96.5032 48.3889 92.5728 48.3592 92.8738 50.878C93.2692 54.2048 94.1308 61.4881 89.1854 62.0109C83.8741 62.605 83.7856 54.7752 83.9567 51.3593C84.0807 48.8166 80.1562 48.8226 80.0323 51.3593C79.7372 57.3 81.366 66.1813 89.0969 65.9972C96.8277 65.813 97.471 56.5395 96.7982 50.878Z" fill="black"/>
<path d="M159.082 60.4895C162.66 59.5818 166.179 58.4683 169.622 57.1547C173.247 55.6892 178.319 52.7525 176.53 48.8639C174.517 44.5079 175.154 41.4616 176.967 38.1845C178.478 35.4498 182.647 33.0554 182.647 33.0554C182.647 33.0554 186.933 23.2184 189.685 19.5606C192.436 15.9027 197.225 19.4337 195.347 22.405C193.47 25.3763 189.124 35.4498 189.124 35.4498C189.124 35.4498 197.254 38.8249 197.98 45.9618C198.376 49.7178 192.667 54.8468 190.464 55.8334C186.922 57.3854 183.527 65.5839 182.328 67.2859C181.129 68.9879 180.132 71.6246 174.788 75.5594C169.445 79.4942 162.838 81 162.838 81L148 62.5376L159.082 60.4895Z" fill="#22ACB2"/>
</svg>
