<svg width="67" height="33" viewBox="0 0 67 33" fill="none" xmlns="http://www.w3.org/2000/svg">
<g clip-path="url(#clip0_336_1280)">
<path d="M66.5295 21.2899C66.5295 23.1572 67.4631 25.3389 65.4163 26.6904C57.6605 31.8109 3.63532 31.6654 1.55929 25.9304C1.02107 24.4435 0.744373 22.8731 0.741699 21.2899C0.741699 9.7732 7.63182 -2.47932 25.3656 0.438082C40.327 2.89973 52.3461 0.249494 58.1315 3.45978C65.0202 7.28869 66.5295 15.0308 66.5295 21.2899Z" fill="#0A88C7"/>
<path d="M19.4885 15.2274C19.489 16.2332 19.1942 17.2165 18.6414 18.0531C18.0886 18.8897 17.3025 19.5418 16.3827 19.9271C15.4628 20.3124 14.4505 20.4135 13.4738 20.2176C12.4971 20.0218 11.5998 19.5377 10.8954 18.8267C10.1911 18.1157 9.71134 17.2097 9.51686 16.2233C9.32239 15.2369 9.42192 14.2143 9.80286 13.2851C10.1838 12.3558 10.8291 11.5615 11.657 11.0026C12.485 10.4438 13.4584 10.1455 14.4542 10.1455C15.1151 10.1453 15.7696 10.2766 16.3803 10.5319C16.991 10.7872 17.5459 11.1615 18.0134 11.6334C18.4809 12.1053 18.8517 12.6655 19.1048 13.2822C19.3579 13.8989 19.4883 14.5598 19.4885 15.2274V15.2274Z" fill="white"/>
<path d="M15.0185 10.1768C14.1915 13.4915 14.2032 16.963 15.0524 20.2719C16.2771 20.1233 17.405 19.5256 18.2219 18.5922C19.0388 17.6588 19.4878 16.4549 19.4836 15.2091C19.4794 13.9633 19.0223 12.7625 18.1992 11.8347C17.376 10.907 16.2441 10.317 15.0185 10.1768V10.1768Z" fill="black"/>
<path d="M36.9914 15.2274C36.9919 16.2332 36.6972 17.2165 36.1443 18.0531C35.5915 18.8897 34.8055 19.5418 33.8856 19.9271C32.9658 20.3124 31.9535 20.4135 30.9767 20.2176C30 20.0218 29.1027 19.5377 28.3984 18.8267C27.694 18.1157 27.2143 17.2097 27.0198 16.2233C26.8253 15.2369 26.9248 14.2143 27.3058 13.2851C27.6867 12.3558 28.332 11.5615 29.1599 11.0026C29.9879 10.4438 30.9613 10.1455 31.9571 10.1455C32.618 10.1453 33.2725 10.2766 33.8832 10.5319C34.4939 10.7872 35.0488 11.1615 35.5163 11.6334C35.9838 12.1053 36.3546 12.6655 36.6077 13.2822C36.8608 13.8989 36.9912 14.5598 36.9914 15.2274V15.2274Z" fill="white"/>
<path d="M32.5219 10.1768C31.6949 13.4915 31.7066 16.963 32.5559 20.2719C33.7805 20.1233 34.9084 19.5256 35.7253 18.5922C36.5422 17.6588 36.9912 16.4549 36.9871 15.2091C36.9829 13.9633 36.5258 12.7625 35.7026 11.8347C34.8794 10.907 33.7475 10.317 32.5219 10.1768V10.1768Z" fill="black"/>
<path d="M25.3246 19.5749C25.3246 20.9865 24.3995 22.1309 23.258 22.1309C22.1165 22.1309 21.1899 20.9879 21.1899 19.5749C21.1899 18.162 22.1165 17.0176 23.258 17.0176C24.3995 17.0176 25.3246 18.1563 25.3246 19.5749Z" fill="black"/>
<path d="M22.4054 19.5752C21.9715 19.5799 21.5537 19.7421 21.2285 20.0324C21.4039 21.2253 22.2427 22.1311 23.2583 22.1311C23.6923 22.1254 24.1099 21.9627 24.4352 21.6725C24.2598 20.4753 23.4196 19.5752 22.4054 19.5752Z" fill="#F17253"/>
<path d="M54.735 16.3432L52.5015 14.2888C52.2868 14.0912 52.0033 13.9878 51.7131 14.0012C51.423 14.0145 51.15 14.1437 50.954 14.3602L39.4823 27.0456C39.4353 27.0962 39.4035 27.1591 39.3903 27.2271L38.5006 31.5446C38.4872 31.6101 38.4909 31.6781 38.5113 31.7417C38.5317 31.8054 38.5682 31.8626 38.6172 31.9077C38.6661 31.9528 38.7258 31.9843 38.7904 31.999C38.8551 32.0138 38.9224 32.0113 38.9858 31.9918L43.1614 30.706C43.2275 30.6868 43.2868 30.6491 43.3326 30.5974L54.8043 17.912C54.902 17.8045 54.9776 17.6786 55.027 17.5415C55.0764 17.4044 55.0985 17.2588 55.092 17.1131C55.0856 16.9673 55.0507 16.8243 54.9895 16.6922C54.9282 16.5601 54.8417 16.4415 54.735 16.3432V16.3432ZM43.0271 29.7887L40.3013 27.2757L49.0642 17.5848L51.79 20.0993L43.0271 29.7887ZM41.2363 30.4874L39.7737 29.1387L40 28.04L42.3 30.1616L41.2363 30.4874ZM39.594 30.0145L40.389 30.7488L39.3776 31.0588L39.594 30.0145ZM52.3035 19.5307L49.5791 17.0162L50.077 16.4661L52.7957 18.9792L52.3035 19.5307ZM54.2414 17.3876L53.3163 18.4106L50.5905 15.8975L51.517 14.8731C51.5765 14.8074 51.6593 14.7682 51.7474 14.7642C51.8355 14.7601 51.9215 14.7916 51.9866 14.8517L54.2201 16.9119C54.2853 16.9722 54.3241 17.0561 54.3281 17.1453C54.3321 17.2345 54.3009 17.3216 54.2414 17.3876V17.3876Z" fill="white"/>
</g>
<defs>
<clipPath id="clip0_336_1280">
<rect width="66" height="32" fill="white" transform="translate(0.741699 0.00195312)"/>
</clipPath>
</defs>
</svg>
