<svg width="173" height="126" viewBox="0 0 173 126" fill="none" xmlns="http://www.w3.org/2000/svg">
<path d="M26.7825 75.277C25.1448 73.7104 21.3234 70.6481 21.8693 61.8708C22.0127 59.7385 22.6538 57.6693 23.7412 55.8294C24.8286 53.9895 26.332 52.43 28.1309 51.2759C26.1632 48.8354 24.9712 45.8618 24.7085 42.738C24.4458 39.6142 25.1244 36.4832 26.6569 33.7485C31.9523 23.8085 42.6412 24.6054 42.6412 24.6054C42.6412 24.6054 42.2154 12.4984 54.1762 7.50931C66.1371 2.52022 74.5386 7.64031 74.5386 7.64031C74.5386 7.64031 87.5749 -5.05067 103.406 2.28013C119.238 9.61093 118.899 18.4264 118.899 18.4264C118.899 18.4264 128.78 19.9766 134.136 26.2321C139.491 32.4875 138.672 41.0029 138.672 41.0029C138.672 41.0029 154.967 46.3849 151.168 65.4843C150.593 68.888 148.857 71.9876 146.255 74.2562C143.018 77.0673 137.52 78.6612 128.813 78.6612H42.4611C31.8813 78.6394 29.4301 77.8479 26.7825 75.277Z" fill="#D6D6D6"/>
<path d="M172.141 104.376C172.141 109.218 174.582 114.862 169.226 118.366C148.929 131.631 25.9143 124.807 2.13992 116.401C0.730431 112.554 0.00619685 108.49 0 104.393C0 86.0465 2.27644 61.8544 24.5659 52.0945C38.5084 45.9919 68.053 65.3315 86.341 65.3315C107.14 65.3315 133.726 49.0486 148.575 56.7505C167.736 66.6305 172.141 87.6021 172.141 104.376Z" fill="#504E50"/>
<path d="M98.089 88.9016C94.3386 93.6068 87.5093 93.9125 83.5405 89.2782C79.4135 84.4583 72.4695 91.4616 76.5747 96.2433C83.7425 104.606 98.1436 104.535 105.055 95.8667C108.969 90.9649 102.047 83.9507 98.089 88.9016Z" fill="black"/>
<path fill-rule="evenodd" clip-rule="evenodd" d="M46.879 79.248C48.8216 76.9869 51.7111 75.5339 55.399 75.5339C59.0913 75.5339 61.9837 76.9861 63.9279 79.2476C65.8393 81.471 66.7506 84.3741 66.7506 87.2093C66.7506 90.0444 65.8393 92.9476 63.9279 95.171C61.9837 97.4325 59.0913 98.8847 55.399 98.8847C51.7066 98.8847 48.8152 97.4324 46.8726 95.1703C44.9629 92.9464 44.0541 90.043 44.0557 87.2083C44.0572 84.3735 44.9692 81.4711 46.879 79.248ZM49.6465 92.7882C50.875 94.2188 52.7425 95.2283 55.399 95.2283C58.0557 95.2283 59.9249 94.2187 61.1552 92.7875C62.4183 91.3182 63.0942 89.2977 63.0942 87.2093C63.0942 85.1208 62.4183 83.1004 61.1552 81.6311C59.9249 80.1999 58.0557 79.1903 55.399 79.1903C52.7489 79.1903 50.8822 80.1991 49.6524 81.6307C48.3898 83.1003 47.7131 85.1215 47.712 87.2103C47.7108 89.2992 48.3852 91.3194 49.6465 92.7882Z" fill="white"/>
<path d="M55.399 77.3621C42.723 77.3621 42.7011 97.0565 55.399 97.0565C68.0968 97.0565 68.0968 77.3621 55.399 77.3621Z" fill="black"/>
<path fill-rule="evenodd" clip-rule="evenodd" d="M114.844 79.248C116.787 76.9869 119.676 75.5339 123.364 75.5339C127.057 75.5339 129.949 76.9861 131.893 79.2476C133.805 81.471 134.716 84.3741 134.716 87.2093C134.716 90.0444 133.805 92.9476 131.893 95.171C129.949 97.4325 127.057 98.8847 123.364 98.8847C119.672 98.8847 116.781 97.4324 114.838 95.1703C112.928 92.9464 112.019 90.043 112.021 87.2083C112.023 84.3735 112.935 81.4711 114.844 79.248ZM117.612 92.7882C118.84 94.2188 120.708 95.2283 123.364 95.2283C126.021 95.2283 127.89 94.2187 129.121 92.7875C130.384 91.3182 131.06 89.2977 131.06 87.2093C131.06 85.1208 130.384 83.1004 129.121 81.6311C127.89 80.1999 126.021 79.1903 123.364 79.1903C120.714 79.1903 118.848 80.1991 117.618 81.6307C116.355 83.1003 115.678 85.1215 115.677 87.2103C115.676 89.2992 116.351 91.3194 117.612 92.7882Z" fill="white"/>
<path d="M123.364 77.3621C110.688 77.3621 110.666 97.0565 123.364 97.0565C136.062 97.0565 136.062 77.3621 123.364 77.3621Z" fill="black"/>
</svg>
