<svg width="179" height="101" viewBox="0 0 179 101" fill="none" xmlns="http://www.w3.org/2000/svg">
<path d="M50 21C50 21 51.1765 1.70107 72.1511 0.113568C94.9327 -1.60669 97.6516 16.785 97.6516 16.785C97.6516 16.785 137 10.4461 137 13.8921C137 17.3382 117.821 20.1978 117.821 20.1978L50 21Z" fill="#22ACB2"/>
<path d="M178.421 77.3737C178.421 82.3784 180.967 88.2672 175.383 91.9096C163.176 99.8559 117.387 102.636 76.6006 100.078C46.4745 98.1765 21.8767 91.9152 1.01458 89.8688C-7.52906 34.6278 39.2823 17 88.88 17C138.478 17 178.421 46.3778 178.421 77.3737Z" fill="#ECCB4D"/>
<path d="M76.2564 60.9975C78.8259 60.9468 81.3227 60.1356 83.4314 58.6665C85.5401 57.1974 87.166 55.1363 88.1037 52.7434C89.0415 50.3506 89.2489 47.7335 88.6999 45.2228C88.1509 42.7122 86.87 40.4206 85.0191 38.6376C83.1682 36.8546 80.8304 35.6602 78.3009 35.2053C75.7715 34.7504 73.164 35.0554 70.8079 36.0818C68.4518 37.1082 66.4527 38.81 65.0634 40.9721C63.674 43.1342 62.9567 45.6596 63.002 48.2292C63.0322 49.9384 63.3991 51.6249 64.0819 53.1921C64.7646 54.7593 65.7497 56.1765 66.9809 57.3625C68.212 58.5485 69.665 59.4799 71.2566 60.1037C72.8482 60.7274 74.5472 61.0312 76.2564 60.9975Z" fill="white"/>
<path d="M67 39.1395C67 39.0831 67 39.0323 67 38.9759C69.3536 36.4956 72.5811 35.0662 75.9726 35.0022C79.364 34.9382 82.6417 36.2449 85.0844 38.6346C87.5271 41.0244 88.9348 44.3015 88.9978 47.7451C89.0608 51.1887 87.774 54.5167 85.4204 56.997H85.2593C80.5066 57.0846 75.914 55.2531 72.4903 51.9048C69.0667 48.5564 67.092 43.9652 67 39.1395Z" fill="black"/>
<path d="M127.256 59.9975C129.826 59.9468 132.323 59.1356 134.431 57.6665C136.54 56.1974 138.166 54.1361 139.104 51.7433C140.041 49.3505 140.249 46.7335 139.7 44.2228C139.151 41.7122 137.87 39.4206 136.019 37.6376C134.168 35.8546 131.83 34.6602 129.301 34.2053C126.772 33.7504 124.164 34.0554 121.808 35.0818C119.452 36.1082 117.453 37.81 116.063 39.9721C114.674 42.1342 113.957 44.6596 114.002 47.2292C114.032 48.9384 114.399 50.6249 115.082 52.1921C115.765 53.7593 116.75 55.1765 117.981 56.3625C119.212 57.5485 120.665 58.4799 122.257 59.1037C123.848 59.7274 125.547 60.0312 127.256 59.9975Z" fill="white"/>
<path d="M118 38.1451C118 38.0887 118 38.0323 118 37.9759C120.354 35.4956 123.581 34.0662 126.973 34.0022C130.364 33.9382 133.642 35.2449 136.084 37.6346C138.527 40.0244 139.935 43.3014 139.998 46.745C140.061 50.1886 138.774 53.5166 136.42 55.9969H136.254C131.502 56.086 126.91 54.2556 123.487 50.908C120.064 47.5604 118.09 42.9698 118 38.1451Z" fill="black"/>
<path d="M105.064 50.7775C104.653 51.2859 104.126 51.7009 103.522 51.9918C102.918 52.2828 102.253 52.4423 101.576 52.4587C100.898 52.4751 100.225 52.348 99.6062 52.0866C98.9874 51.8253 98.4386 51.4364 98.0002 50.9486C95.9932 48.7393 92.6257 51.9436 94.5986 54.1582C98.0795 57.9938 105.075 57.9564 108.432 53.9871C110.342 51.719 106.98 48.504 105.064 50.7775Z" fill="black"/>
<path d="M130.5 45C132.985 45 135 42.9853 135 40.5C135 38.0147 132.985 36 130.5 36C128.015 36 126 38.0147 126 40.5C126 42.9853 128.015 45 130.5 45Z" fill="white"/>
<path d="M80 46C82.2091 46 84 44.2091 84 42C84 39.7909 82.2091 38 80 38C77.7909 38 76 39.7909 76 42C76 44.2091 77.7909 46 80 46Z" fill="white"/>
</svg>
