<svg width="195" height="131" viewBox="0 0 195 131" fill="none" xmlns="http://www.w3.org/2000/svg">
<path d="M40.5398 71.3325L2.27881 55.0646L97.9849 0.485169L194.489 52.3978C194.489 52.3978 182.388 61.1333 174.26 67.2145C169.698 62.5703 159.296 56.4907 151.343 52.3978C119.13 35.8251 62.4554 35.1623 40.5398 71.3325Z" fill="#D8D8D8"/>
<path fill-rule="evenodd" clip-rule="evenodd" d="M9.18759 56.3209C9.18759 56.3209 9.18858 56.3195 11.1569 57.737C13.1251 59.1545 13.1259 59.1534 13.1259 59.1534L13.1145 59.1696C13.1028 59.1861 13.0833 59.214 13.0564 59.2531C13.0026 59.3312 12.9194 59.4538 12.8114 59.6185C12.5952 59.948 12.2798 60.4455 11.9006 61.0932C11.1413 62.3901 10.1311 64.2801 9.1488 66.6208C7.17616 71.3214 5.36295 77.7273 5.816 84.7512C6.26827 91.7629 8.70016 96.7977 10.983 100.066C12.128 101.705 13.2383 102.902 14.0468 103.679C14.4507 104.067 14.7778 104.348 14.9942 104.526C15.1024 104.615 15.1827 104.677 15.2308 104.714C15.2549 104.732 15.2709 104.744 15.2784 104.75L15.2762 104.748C15.2762 104.748 15.2744 104.747 13.8665 106.722C12.4587 108.698 12.4567 108.696 12.4567 108.696L12.4544 108.695L12.4492 108.691L12.4363 108.681L12.4001 108.655C12.3716 108.634 12.3341 108.606 12.2884 108.571C12.1969 108.501 12.0721 108.404 11.9186 108.278C11.6117 108.026 11.189 107.661 10.687 107.179C9.68376 106.215 8.35823 104.779 7.00678 102.845C4.29675 98.9652 1.4932 93.0926 0.975321 85.0636C0.458222 77.0467 2.52561 69.8674 4.6761 64.743C5.75534 62.1713 6.86736 60.0888 7.71485 58.6413C8.13904 57.9168 8.49824 57.3492 8.75577 56.9567C8.88457 56.7603 8.98807 56.6076 9.06169 56.5007C9.09851 56.4472 9.12787 56.4052 9.1492 56.3749L9.17511 56.3383L9.18343 56.3267L9.18759 56.3209ZM15.2784 104.75C15.2821 104.752 15.283 104.753 15.283 104.753L15.2804 104.751L15.2784 104.75ZM13.1259 59.1534L13.1265 59.1526L13.1271 59.1517L13.1259 59.1534Z" fill="#D8D8D8"/>
<path d="M11.1807 101.079C11.1807 101.079 7.4901 114.426 13.257 118.836C13.257 118.836 25.5434 115.861 24.2913 111.404C21.3251 107.393 17.6626 103.105 11.1807 101.079Z" fill="#D8D8D8"/>
<path d="M59.2178 54.6123C59.2178 54.6123 68.8564 35.5518 96.4765 34.9299C124.097 34.3079 142.487 44.6391 139.452 47.0327C136.417 49.4262 59.2178 54.6123 59.2178 54.6123Z" fill="#7C7C7C"/>
<path d="M145.619 65.2074C147.524 65.2074 149.069 63.6534 149.069 61.7364C149.069 59.8194 147.524 58.2654 145.619 58.2654C143.713 58.2654 142.168 59.8194 142.168 61.7364C142.168 63.6534 143.713 65.2074 145.619 65.2074Z" fill="white"/>
<path d="M104.251 66.6397C106.156 66.6397 107.701 65.0857 107.701 63.1688C107.701 61.2518 106.156 59.6978 104.251 59.6978C102.345 59.6978 100.801 61.2518 100.801 63.1688C100.801 65.0857 102.345 66.6397 104.251 66.6397Z" fill="white"/>
<path d="M187.08 96.6784C187.08 101.242 187.08 122.188 178.003 125.319C162.907 130.527 148.962 128.977 113.992 126.633C94.451 125.324 75.2902 131.007 59.664 130.515C54.6395 130.357 41.6536 130.191 39.776 122.752C22.1193 52.7924 67.8134 41.8058 110.336 41.8058C152.859 41.8058 187.08 68.5149 187.08 96.6784Z" fill="#ECCB4D"/>
<path d="M99.4146 81.4784C105.503 81.4784 110.44 76.2708 110.44 69.8468C110.44 63.4228 105.503 58.2151 99.4146 58.2151C93.3257 58.2151 88.3896 63.4228 88.3896 69.8468C88.3896 76.2708 93.3257 81.4784 99.4146 81.4784Z" fill="white"/>
<path d="M91.481 61.9217C91.481 61.8683 91.481 61.8212 91.481 61.7709C92.462 60.6822 93.6531 59.8058 94.9816 59.195C96.3102 58.5842 97.7484 58.2519 99.2087 58.2183C105.294 58.0989 110.321 63.2064 110.433 69.6332C110.499 72.6875 109.399 75.6509 107.358 77.9132C107.311 77.9132 107.264 77.9132 107.214 77.9132C98.6842 78.0891 91.6371 70.9242 91.481 61.9217Z" fill="black"/>
<path d="M143.196 80.6241C149.284 80.5047 154.124 75.1993 154.015 68.7757C153.905 62.3521 148.872 57.2415 142.774 57.3608C136.676 57.4802 131.846 62.7856 131.958 69.2092C132.071 75.6328 137.11 80.7435 143.196 80.6241Z" fill="white"/>
<path d="M135.056 61.0642C135.056 61.014 135.056 60.9637 135.056 60.9134C136.037 59.8247 137.228 58.9483 138.557 58.3375C139.885 57.7267 141.324 57.3944 142.784 57.3608C148.869 57.2415 153.896 62.3521 154.024 68.7757C154.092 71.8309 152.99 74.7956 150.946 77.0558L150.805 77.0558C142.262 77.2348 135.215 70.0699 135.056 61.0642Z" fill="black"/>
<path d="M124.384 72.0644C122.842 74.103 120.044 74.2318 118.417 72.2278C116.722 70.1421 113.874 73.1701 115.56 75.2433C118.498 78.8619 124.403 78.8304 127.238 75.0799C128.846 72.9565 126.004 69.919 124.384 72.0644Z" fill="black"/>
</svg>
