<svg width="54" height="54" viewBox="0 0 54 54" fill="none" xmlns="http://www.w3.org/2000/svg">
<path d="M-13.5402 29.4045C-9.95674 31.1487 -3.57391 27.39 -1.29304 24.1244C0.624248 21.3387 1.51597 17.6503 4.43693 15.9455C6.44052 14.7649 9.01503 14.8412 10.9751 13.5793C13.9848 11.6564 14.4575 7.52322 16.3455 4.50161C18.2335 1.47999 21.7971 -0.357856 25.2011 0.344909C28.6052 1.04768 31.3451 4.69488 30.5575 8.11801C29.7699 11.5411 26.3624 13.4582 24.3088 16.2884C22.7343 18.4923 22.0624 21.4603 23.005 24.0217C23.9477 26.5831 26.6904 28.486 29.3438 28.0241C31.4393 27.6434 33.0297 25.9877 34.3606 24.2883C35.6914 22.5889 36.879 20.728 38.7422 19.6289C40.6055 18.5298 43.2677 18.539 44.5369 20.279C45.8061 22.019 44.878 24.878 43.0583 26.1875C41.2386 27.4971 38.8945 27.7451 36.6659 27.9757C34.4372 28.2064 32.0946 28.5113 30.3297 29.892C27.5375 32.0924 27.1731 36.4399 28.6682 39.6749C29.5184 41.471 30.8164 43.014 32.4335 44.1504C34.0505 45.2869 35.9301 45.9772 37.8855 46.1529C40.3522 46.3521 42.8351 45.7073 45.281 46.0629C50.1297 46.7714 53.9056 51.9786 53.0609 56.8452C52.2163 61.7118 46.8397 65.2449 42.0962 63.9909C37.6495 62.8134 33.9202 58.1889 29.4638 59.1953C26.1321 59.9436 24.2943 63.5613 23.2654 66.8783C22.2365 70.1954 21.3474 73.919 18.5844 75.9679C15.6424 78.1376 11.5044 77.7509 8.40106 79.6419C4.76451 81.8585 3.45268 86.5949 0.173007 89.2877C-3.55765 92.348 -9.19177 92.0772 -13.4571 89.7809C-17.7224 87.4846 -23.062 80.9338 -25.7834 76.9156C-27.2407 74.1796 -30.7124 73.3591 -33.7691 73.1494C-36.8258 72.9398 -40.1515 72.9617 -42.5601 71.039C-44.9688 69.1163 -45.8294 65.5638 -45.113 62.5261C-44.3966 59.4884 -42.4058 56.9193 -40.0807 54.847C-38.8952 53.8045 -37.604 52.812 -36.7643 51.4625C-35.9246 50.113 -35.6433 48.2493 -36.5863 46.9509C-37.5294 45.6524 -39.2281 45.3647 -40.7488 44.978C-43.3792 44.319 -45.8618 43.15 -48.0586 41.5359C-49.3942 40.5603 -50.6688 39.3168 -51.0684 37.7044C-51.4679 36.0919 -50.5692 34.0805 -48.9631 33.7981C-47.743 33.5784 -46.5599 34.3591 -45.6853 35.253C-44.8107 36.1469 -44.0593 37.2108 -42.9716 37.8239C-41.884 38.437 -40.2881 38.4013 -39.6483 37.3291C-38.8415 35.9886 -40.0774 34.3184 -41.3487 33.3969C-43.7949 31.6208 -46.6833 30.5543 -49.3747 29.2256C-52.0662 27.897 -54.7248 26.0428 -56.0725 23.3198C-57.4202 20.5968 -57.0052 16.7951 -54.4834 15.1567C-52.118 13.6186 -48.8652 14.492 -46.6357 16.2773C-44.4062 18.0626 -42.9474 20.5973 -41.2157 22.8634C-39.4839 25.1296 -37.224 27.2581 -34.4275 27.6539C-31.631 28.0496 -28.7404 26.5182 -25.8626 26.1527C-21.5837 25.5824 -17.4238 27.5202 -13.5402 29.4045Z" fill="#FFDA4F"/>
</svg>
