<svg width="390" height="31" viewBox="0 0 390 31" fill="none" xmlns="http://www.w3.org/2000/svg">
<path d="M1.43719e-05 2.21682L1.30751e-05 30.9999L390 31L390 24.4243C390 24.4243 341.56 26.2724 326.546 24.4243C311.532 22.5761 239.95 15.3646 214.459 16.6103C188.968 17.8559 122.975 23.9437 97.8278 19.2494C72.6809 14.5551 51.9629 -6.85759 1.43719e-05 2.21682Z" fill="#ECCB4D" fill-opacity="0.3"/>
<path d="M0.0964418 20.0033L1.30751e-05 31L390 31L390 15.2255C390 15.2255 361.113 4.97376 327.593 5.00009C309.428 5.00008 277.31 20.9552 243.44 20.0034C228.429 19.5782 170.277 8.07747 136.501 7.58839C102.725 7.09932 20.729 20.4661 0.0964418 20.0033Z" fill="#ECCB4D" fill-opacity="0.71"/>
</svg>
