<svg width="76" height="71" viewBox="0 0 76 71" fill="none" xmlns="http://www.w3.org/2000/svg">
<g clip-path="url(#clip0_5_10138)">
<path d="M66.7108 23.1172C66.0189 23.5024 65.503 24.0695 65.0318 24.6912C64.9721 24.7689 64.9007 24.8565 64.8244 24.9458C64.1873 23.4892 63.4391 22.0838 61.9808 21.2754C60.4876 20.4487 58.6626 20.4487 57.3354 21.5928C56.8289 22.0633 56.3995 22.61 56.0629 23.2131C55.9567 23.3916 55.8306 23.6777 55.683 23.9505C55.1089 23.1238 54.6394 22.231 53.9526 21.487C53.428 20.8997 52.7751 20.4403 52.0442 20.1441C51.3132 19.848 50.5239 19.7231 49.7369 19.7791C47.4142 19.9543 45.7551 21.2754 44.486 22.9767C43.8068 20.6278 43.1211 18.2795 42.4287 15.9317C41.5527 12.9424 40.8377 9.72006 39.1388 7.06147C37.717 4.83605 35.6431 3.1827 32.9803 2.79416C32.2095 2.6824 31.4258 2.69133 30.6577 2.82061C30.3102 2.62408 29.8994 2.57068 29.5129 2.67181C28.7105 2.85862 27.9836 3.2828 27.4275 3.88868C27.2049 3.98731 27.0092 4.13753 26.8567 4.32682C24.7199 6.92093 24.116 10.0507 23.9816 13.3293C23.8273 17.1172 23.902 20.9232 23.8754 24.7143C23.8638 26.5529 23.9185 28.4079 23.8323 30.2448C23.8107 30.7061 23.8207 31.5476 23.4839 31.9097C22.9862 32.4454 20.8957 32.9447 20.2852 32.7C17.1214 31.4286 15.308 28.5303 11.8621 28.0938C9.16948 27.7499 6.23626 28.3319 4.10602 30.0778C1.52286 32.1908 1.07989 35.6166 2.21469 38.6273C3.41585 41.8199 5.73688 44.6935 8.20059 47.0197C10.6643 49.346 14.7472 48.9178 16.9438 51.5665C18.8866 53.9093 18.8368 59.162 20.6585 61.5924C22.7224 64.3436 25.4947 65.7374 28.7879 66.5657C32.7066 67.5577 36.7132 68.429 40.758 68.6621C44.5407 68.8787 48.3764 68.639 52.1359 68.2025C58.4403 67.4701 64.758 65.6481 68.6834 60.3226C72.5573 55.0666 73.2939 48.0299 73.6124 41.7108C73.79 38.3049 73.9509 19.0929 66.7108 23.1172Z" fill="#FFE4CA"/>
<path d="M71.4543 51.4375C66.1453 57.1829 59.9122 60.9063 51.9172 61.4502C44.7285 61.9462 36.5393 61.2055 30.2034 57.5946C27.4692 56.0355 24.8131 53.9787 23.1125 51.297C21.9512 49.4783 21.4535 47.2992 19.6285 45.9682C17.3489 44.3148 14.1353 44.2206 11.6401 42.9393C7.57706 40.8544 4.31368 37.3509 4.65711 32.5397C4.72181 31.6419 3.2635 31.2021 2.89187 32.0635C-0.122649 39.044 3.68324 45.4242 10.0673 48.7177C11.6666 49.5444 14.3411 49.8751 15.67 50.9961C16.9358 52.0674 17.4634 54.3193 18.3643 55.799C20.5 59.3494 23.5264 62.2844 27.1457 64.3155C40.0383 71.4381 69.1532 70.4478 72.5377 52.0707C72.6455 51.4788 71.9288 50.9233 71.4543 51.4375Z" fill="#F8B6AB"/>
<path d="M30.4835 2.72143C18.9447 8.73964 26.6677 22.7882 22.9198 32.1974C22.7672 32.581 23.1488 32.9315 23.4972 32.9514C27.396 33.1795 27.0924 28.3021 27.1471 25.5559C27.2931 18.7358 25.1795 7.84186 31.1189 3.00746C31.7626 2.4883 31.1538 2.37091 30.4835 2.72143Z" fill="#F8B6AB"/>
<path d="M70.0737 34.77C69.6771 32.6521 65.9973 33.1067 66.2578 35.2842C66.6178 38.338 66.2877 41.3884 66.6543 44.4223C66.8883 46.3584 69.5146 46.9321 70.1798 44.8985C71.245 41.6281 70.6958 38.0949 70.0737 34.77Z" fill="white"/>
<path d="M69.3008 49.222C69.2328 48.4218 68.6372 47.6431 67.7562 47.6811C66.9383 47.7175 66.1868 48.359 66.21 49.222C66.2141 49.377 66.2091 49.5322 66.1951 49.6866C66.1768 49.7461 66.1337 49.9594 66.1221 50.004C66.1104 50.0487 66.0806 50.1396 66.0557 50.2074C66.1669 49.9677 66.1304 50.0553 65.9495 50.4719C65.8981 50.7382 65.8659 51.0079 65.8533 51.2788C65.7869 51.8343 66.2714 52.3981 66.7426 52.6015C67.305 52.8379 67.8674 52.6891 68.3203 52.3039C69.183 51.5747 69.3921 50.2934 69.3008 49.222Z" fill="white"/>
<path d="M16.9889 49.753C11.9255 46.5472 4.87776 43.5017 3.39953 37.0801C2.77738 34.3917 3.81264 31.7893 6.45718 30.7097C9.62267 29.4101 12.6538 30.9825 15.4526 32.406C18.1071 33.7634 22.6231 36.2087 24.687 32.6375C25.6326 31.0007 25.3506 28.8629 25.339 27.0591L25.2792 20.2886C25.2427 16.2511 24.8462 11.9044 26.2133 8.01739C27.3398 4.79501 30.4157 2.41252 33.9478 3.36155C37.3373 4.2742 38.5418 8.09675 39.2569 11.1191C40.4331 16.1354 41.3589 21.2128 42.0391 26.3184C42.1519 27.1765 42.6895 27.899 43.6335 27.9089C44.4082 27.9089 45.3423 27.1698 45.2278 26.3184C44.5642 21.3583 43.7197 16.428 42.6231 11.544C41.8599 8.14139 40.8861 4.40481 38.0955 2.05374C35.2137 -0.363461 31.0727 -0.637918 27.8176 1.18573C24.1046 3.264 22.7094 7.39573 22.2531 11.3836C21.704 16.1998 22.0955 21.188 22.1386 26.0241C22.1486 27.1136 22.8504 31.4537 21.11 31.3347C19.232 31.2057 17.2096 29.7127 15.5621 28.9009C12.3203 27.3021 8.81637 26.3448 5.31907 27.7618C2.278 28.9935 0.224085 31.7017 0.0183609 34.9886C-0.230498 38.9698 2.08389 42.8106 4.92421 45.4163C8.03495 48.2782 11.8342 50.2623 15.378 52.4992C17.1167 53.5987 18.7177 50.8459 16.9889 49.753Z" fill="#231F20"/>
<path d="M45.1981 27.2704C45.4984 25.1442 46.1172 21.611 48.488 20.7827C51.2138 19.8287 53.0106 23.5785 53.3125 25.6716C53.5515 27.325 55.9671 27.0241 56.3885 25.6716C56.9144 24.0183 58.3113 22.1318 60.274 22.4311C61.6012 22.6311 63.7763 24.0001 63.4262 25.5807C62.9749 27.578 65.88 28.3815 66.5021 26.4256C66.8024 25.4799 67.1906 24.5011 68.2839 24.8698C69.3391 25.2269 70.2184 26.3082 70.7559 27.2324C71.4411 28.4129 71.6618 29.891 71.9256 31.212C72.2689 32.9667 72.5032 34.7408 72.6274 36.5243C73.1251 43.4684 72.6274 51.4392 68.9476 57.55C62.1454 68.8259 45.5017 69.0424 34.0608 66.7906C26.0276 65.2083 20.7601 58.828 18.2234 51.3797C17.5597 49.4535 14.4855 50.2802 15.1475 52.2245C17.7522 59.868 22.8953 66.7145 30.8588 69.2557C34.3644 70.375 38.2466 70.7189 41.9065 70.9091C45.7422 71.1335 49.591 70.9327 53.3822 70.3106C60.7236 69.0722 67.8974 65.582 71.7862 59C76.0036 51.8624 76.5378 42.4582 75.617 34.4129C75.1856 30.6433 74.7327 26.2487 71.8227 23.4892C70.6348 22.3633 69.0587 21.4407 67.3648 21.6011C65.1948 21.8078 64.0251 23.6744 63.4212 25.5691L66.4971 26.414C67.2586 23.0478 64.2939 19.9957 61.1251 19.3525C57.3607 18.5903 54.3876 21.4407 53.3142 24.8086H56.3901C55.8443 21.0208 52.483 16.7336 48.2325 17.557C44.2143 18.3357 42.6232 22.8576 42.1238 26.4074C42.0027 27.2638 42.3345 28.1037 43.2387 28.3617C43.9836 28.5749 45.0803 28.1004 45.1997 27.2523L45.1981 27.2704Z" fill="#231F20"/>
</g>
<defs>
<clipPath id="clip0_5_10138">
<rect width="76" height="71" fill="white"/>
</clipPath>
</defs>
</svg>
