<svg width="150" height="42" viewBox="0 0 150 42" fill="none" xmlns="http://www.w3.org/2000/svg">
<g clip-path="url(#clip0_337_3876)">
<path d="M149.754 15.9815C148.51 8.76134 143.632 3.05672 136.631 0.8987C132.353 -0.396627 127.27 -0.303363 124.13 1.27435C121.021 2.71475 118.254 4.52044 115.995 7.06964C110.323 13.4763 109.748 23.5592 114.847 30.4995C115.75 31.7243 116.8 32.8336 117.974 33.8026C117.609 34.5047 115.502 37.2948 113.647 38.0254C113.373 38.1102 113.14 38.2933 112.993 38.5396C112.845 38.7859 112.794 39.0779 112.849 39.3596C112.3 40.2352 112.269 41.4606 113.652 41.4606C116.655 41.4606 121.251 39.9062 122.638 39.0176C123.49 38.4787 124.249 37.9114 124.905 37.5383C129.255 38.9401 133.968 38.7014 138.154 36.8674C145.969 33.3182 151.236 24.611 149.754 15.9815Z" fill="#FF6D58"/>
<path opacity="0.9" d="M41.2188 26.3128C39.9052 24.7947 37.4309 26.0537 37.4076 27.8905C37.3739 30.3464 36.4049 31.2583 33.8918 31.5019C32.7557 31.6137 31.6087 31.4884 30.5236 31.134C34.7467 29.2558 42.9599 24.1651 37.7211 19.8983C33.0393 16.0901 26.0828 18.9139 24.0748 24.1833C23.1188 26.6884 22.9789 30.0304 24.5101 32.3594C26.1553 34.8645 29.6608 36.1055 32.5212 36.3075C35.2364 36.4967 38.3611 35.8205 40.3923 33.8956C42.5531 31.8464 43.2242 28.6262 41.2188 26.3128ZM29.7567 23.932C30.749 23.09 33.0678 22.4864 34.4047 23.2714C33.6068 24.0978 32.2025 24.9993 31.6765 25.4527C30.4407 26.5175 29.14 27.5097 28.0752 28.7506C28.0752 28.7143 28.0545 28.6832 28.0467 28.647C27.9303 27.7814 28.025 26.9006 28.3228 26.0796C28.6205 25.2585 29.1125 24.5217 29.7567 23.932Z" fill="#26B7BC"/>
<path opacity="0.9" d="M57.6789 26.3128C56.3654 24.7947 53.891 26.0537 53.8677 27.8905C53.834 30.3464 52.8651 31.2583 50.3519 31.5019C49.2158 31.6137 48.0689 31.4884 46.9837 31.134C51.2043 29.2558 59.42 24.1651 54.1812 19.8983C49.4995 16.0901 42.5429 18.9139 40.5324 24.1833C39.5789 26.6884 39.439 30.0304 40.9677 32.3594C42.6155 34.8645 46.1209 36.1055 48.9813 36.3075C51.6966 36.4967 54.8212 35.8205 56.8499 33.8956C59.0133 31.8464 59.6817 28.6262 57.6789 26.3128ZM46.2168 23.932C47.2091 23.09 49.528 22.4864 50.8649 23.2714C50.0669 24.0978 48.6626 24.9993 48.1367 25.4527C46.9008 26.5175 45.6002 27.5097 44.5353 28.7506C44.5353 28.7143 44.5146 28.6832 44.5068 28.647C44.3904 27.7814 44.4851 26.9006 44.7829 26.0796C45.0807 25.2585 45.5726 24.5217 46.2168 23.932Z" fill="#26B7BC"/>
<path opacity="0.9" d="M95.524 20.0488C94.8334 18.975 93.9106 18.0698 92.8237 17.4C91.7368 16.7301 90.5134 16.3127 89.2437 16.1783C87.1347 15.9193 83.4375 16.2975 82.7354 18.7224C82.7074 18.8189 82.6883 18.9177 82.6784 19.0177C81.5892 20.4608 80.8768 22.1525 80.6056 23.9399C79.8931 29.6394 85.5283 33.8777 90.8967 32.4088C96.0681 30.9995 98.2471 24.5125 95.524 20.0488ZM91.547 27.4788C90.1401 29.0539 87.4482 29.0669 85.847 27.7638C85.2933 27.2734 84.8752 26.6488 84.6329 25.9501C84.3906 25.2513 84.3322 24.502 84.4635 23.7741C84.623 23.0302 84.8846 22.3118 85.2408 21.6394L85.5439 21.0151C85.6453 20.926 85.7326 20.822 85.803 20.7068C87.4741 20.0825 89.5028 19.8312 91.192 21.1757C93.0704 22.6757 93.1404 25.7171 91.5651 27.4788H91.547Z" fill="#26B7BC"/>
<path opacity="0.9" d="M108.965 18.5828C108.274 17.5097 107.351 16.6051 106.264 15.9354C105.177 15.2656 103.954 14.8477 102.685 14.7123C100.579 14.4533 96.8788 14.8341 96.1767 17.2589C96.1494 17.3555 96.1312 17.4543 96.1223 17.5543C95.0336 18.9976 94.3213 20.6892 94.0496 22.4765C93.3397 28.176 98.9723 32.4143 104.341 30.9454C109.512 29.5335 111.691 23.0568 108.965 18.5828ZM104.991 26.0154C103.581 27.5905 100.89 27.6034 99.291 26.3003C98.7379 25.8095 98.3205 25.1848 98.0786 24.4861C97.8368 23.7874 97.7787 23.0383 97.91 22.3107C98.0691 21.5675 98.3307 20.8499 98.6873 20.1786L98.9723 19.5543C99.0737 19.4651 99.161 19.3612 99.2314 19.246C100.902 18.6216 102.931 18.3703 104.62 19.7149C106.486 21.2123 106.564 24.2537 104.991 26.0154Z" fill="#26B7BC"/>
<path opacity="0.9" d="M28.7332 15.1348C27.0206 9.52604 22.8778 5.08307 16.9939 3.88619C14.1646 3.29552 0.894033 3.15821 0.0779007 7.99237C-0.372915 10.6711 1.2464 18.9353 1.73867 21.7617C2.68693 27.1839 3.81138 32.5751 4.86329 37.9818C5.39701 40.7357 8.82736 42.4869 11.4001 41.689C16.9343 39.9714 22.3907 37.2072 26.0128 32.5673C29.9717 27.5181 30.5728 21.184 28.7332 15.1348ZM13.3977 29.2953C12.4365 26.2772 11.9183 23.9327 10.983 20.9068C10.3301 18.8058 9.71345 16.0519 9.11495 13.9379C11.2628 13.0571 13.7267 12.6763 15.8668 13.5493C18.3515 14.5623 19.0614 17.2954 19.3101 19.7514C19.7946 24.5441 16.9939 27.3368 13.3951 29.2953H13.3977Z" fill="#26B7BC"/>
<path opacity="0.9" d="M83.168 20.145C82.4017 18.9223 81.2492 17.9905 79.8931 17.4974C78.6598 17.0673 70.869 16.8419 68.8507 17.8367C67.2961 18.6139 66.1976 19.7694 66.3815 22.202C66.5707 24.6813 68.7004 25.2797 70.1332 25.1787C71.5659 25.0776 74.0895 24.2952 74.5973 25.2616C76.1518 27.8833 73.592 30.8936 70.8301 31.2771C67.4619 31.7434 64.2544 29.2745 63.4201 26.2823C62.4252 22.7072 62.4848 17.9145 64.9747 14.8419C68.0086 11.0881 74.2604 12.8446 77.8644 14.5129C79.4189 15.228 81.6212 11.9948 80.1185 10.6969C74.4392 5.79279 66.1509 3.96119 59.6167 9.29794C53.2975 14.4559 53.1135 24.4895 56.1734 31.4662C57.741 35.0469 60.6263 37.8874 64.2313 39.3989C67.8364 40.9105 71.8848 40.9772 75.5378 39.5853C83.1887 36.6164 87.4403 27.5906 83.168 20.145Z" fill="#26B7BC"/>
<path opacity="0.9" d="M86.795 38.4947C90.842 40.6863 95.1844 41.9946 99.8065 41.1604C101.786 40.8137 103.661 40.0257 105.294 38.8548C106.652 37.8677 108.59 36.3315 108.382 34.4688C108.38 34.3352 108.352 34.2033 108.299 34.0809C108.245 33.9584 108.168 33.8476 108.072 33.7551C107.975 33.6626 107.862 33.5901 107.737 33.5419C107.613 33.4936 107.48 33.4705 107.346 33.474C107.267 33.4738 107.189 33.4842 107.113 33.5051C105.698 33.9714 104.926 35.3626 103.745 36.2175C102.324 37.2225 100.709 37.9196 99.0033 38.2641C95.2025 39.0646 91.0907 38.0802 87.5464 36.7097C86.51 36.303 85.8209 37.9817 86.7873 38.5076L86.795 38.4947Z" fill="#26B7BC"/>
<g opacity="0.9">
<path d="M91.3968 26.013C91.8607 26.005 92.3039 25.8196 92.6352 25.4948C92.8793 25.2498 93.0453 24.938 93.1124 24.5987C93.1795 24.2594 93.1446 23.9079 93.0121 23.5884C92.8796 23.2689 92.6556 22.9958 92.3681 22.8035C92.0806 22.6112 91.7427 22.5083 91.3968 22.5078C90.9329 22.5158 90.4897 22.7012 90.1583 23.0259C89.9143 23.271 89.7483 23.5828 89.6812 23.9221C89.6141 24.2614 89.649 24.6129 89.7815 24.9324C89.9139 25.2518 90.138 25.5249 90.4255 25.7173C90.7129 25.9096 91.0509 26.0125 91.3968 26.013Z" fill="#26B7BC"/>
</g>
<g opacity="0.9">
<path opacity="0.9" d="M105.382 23.3165C105.29 23.345 105.19 23.336 105.104 23.2914C105.018 23.2468 104.954 23.1702 104.924 23.0781" fill="#26B7BC"/>
<path opacity="0.9" d="M104.986 24.9507C105.452 24.9447 105.899 24.7591 106.232 24.4326C106.479 24.1862 106.647 23.8722 106.715 23.5304C106.783 23.1885 106.748 22.8342 106.614 22.5122C106.481 22.1902 106.255 21.915 105.965 21.7214C105.675 21.5279 105.334 21.4246 104.986 21.4248C104.519 21.4308 104.073 21.6163 103.74 21.9429C103.493 22.1893 103.325 22.5033 103.257 22.8451C103.189 23.187 103.224 23.5413 103.357 23.8633C103.491 24.1853 103.717 24.4605 104.007 24.6541C104.296 24.8476 104.637 24.9509 104.986 24.9507Z" fill="#26B7BC"/>
</g>
<path d="M127.835 25.7067C126.703 26.2248 125.604 26.7844 124.529 27.3984C124.078 25.9545 123.668 24.4994 123.298 23.0331L124.433 22.7559C125.923 22.3958 127.695 22.3285 129.097 21.7456C131.188 20.8751 131.032 17.787 128.545 17.6627C126.9 17.5798 124.964 18.6627 123.472 19.287C123.148 19.4217 122.824 19.5616 122.503 19.7041C122.402 19.2715 122.301 18.8362 122.21 18.4088C121.993 17.4036 121.951 16.7508 121.669 15.7585C122.578 15.6679 128.387 14.5202 130.307 13.8596C132.12 13.2327 131.177 10.642 129.553 11.1213C127.625 11.5073 125.731 12.1316 123.806 12.5539C122.138 12.9218 120.233 13.1472 118.65 13.8492C118.511 13.879 118.382 13.9442 118.275 14.0386C118.168 14.133 118.088 14.2534 118.042 14.3881V14.4218C117.991 14.6168 118.018 14.8239 118.117 14.9993C118.216 15.1747 118.38 15.3048 118.573 15.3622C118.78 15.3933 118.987 15.528 119.197 15.5435C119.077 17.5006 119.211 19.465 119.593 21.388C119.381 21.5513 119.174 21.7196 118.974 21.9062C118.834 22.0615 118.744 22.2557 118.716 22.4632C118.689 22.6706 118.724 22.8816 118.819 23.0684C118.913 23.2551 119.062 23.4089 119.246 23.5094C119.429 23.6099 119.639 23.6525 119.847 23.6315H119.98C120.427 26.0262 121.001 28.3956 121.697 30.7299C121.765 30.9681 121.88 31.1905 122.034 31.3845C122.188 31.5785 122.378 31.7402 122.595 31.8605C122.811 31.9808 123.05 32.0572 123.296 32.0855C123.542 32.1138 123.791 32.0933 124.029 32.0253C124.171 31.984 124.307 31.9266 124.436 31.8543C126.814 30.4372 129.32 29.5538 131.812 28.4061C132.768 27.9683 133.108 26.4839 132.538 25.6419C131.33 23.8025 129.351 25.0305 127.835 25.7067Z" fill="white"/>
<path d="M142.663 23.8079C141.419 22.8157 140.186 21.8053 138.955 20.795C139.784 19.4513 140.613 18.1059 141.443 16.7587C142.761 14.6266 139.484 12.7665 138.108 14.8106C137.341 15.9487 136.612 17.1102 135.921 18.295C134.468 17.0748 132.913 15.8028 131.214 15.0929C130.281 14.7017 129.633 15.9271 130.009 16.6603C130.934 18.4737 132.69 20.1084 134.191 21.5385C134.105 21.7146 134.017 21.8882 133.932 22.0566C133.362 23.2665 131.229 27.0695 133.185 27.94C133.647 28.1472 134.341 27.9529 134.403 27.3934C134.442 27.3934 134.538 27.2742 134.696 27.0333C134.901 26.8512 135.085 26.6471 135.245 26.4245C135.543 26.0566 135.836 25.6473 136.11 25.2716C136.385 24.896 136.629 24.4944 136.888 24.1058C137.826 24.9953 138.768 25.8787 139.714 26.7561C141.722 28.6136 144.723 25.4556 142.663 23.8079Z" fill="white"/>
</g>
<defs>
<clipPath id="clip0_337_3876">
<rect width="150" height="41.8831" fill="white"/>
</clipPath>
</defs>
</svg>
