<svg width="236" height="113" viewBox="0 0 236 113" fill="none" xmlns="http://www.w3.org/2000/svg">
<g filter="url(#filter0_d_330_994)">
<path opacity="0.9" d="M98.1677 23.3891C95.7522 20.6019 91.2059 22.9314 91.156 26.2907C91.0944 30.8031 89.3129 32.452 84.6991 32.9273C82.6103 33.1322 80.5017 32.9025 78.5062 32.2525C86.2693 28.7992 101.382 19.443 91.7401 11.6006C83.1288 4.60319 70.3323 9.7933 66.6459 19.4782C64.8849 24.0844 64.6355 30.2251 67.4442 34.5028C70.4732 39.1061 76.9184 41.3887 82.175 41.7584C87.1644 42.1075 92.9111 40.8635 96.6445 37.3282C100.621 33.561 101.851 27.6462 98.1677 23.3891ZM77.0827 19.0146C78.9083 17.4655 83.1729 16.3594 85.6353 17.797C84.1678 19.3227 81.5821 20.9774 80.6165 21.8106C78.3565 23.7646 75.9645 25.5925 74.0098 27.8721C73.9951 27.8076 73.9717 27.7489 73.9599 27.6844C73.3993 24.7035 74.8404 20.9363 77.0945 19.0176" fill="#26B7BC"/>
<path opacity="0.9" d="M128.427 23.3891C126.012 20.6019 121.462 22.9314 121.415 26.2907C121.354 30.8031 119.572 32.452 114.958 32.9273C112.87 33.1322 110.761 32.9025 108.766 32.2525C116.526 28.7992 131.638 19.443 121.988 11.6006C113.379 4.60319 100.589 9.7933 96.8965 19.4782C95.1355 24.0844 94.8831 30.2251 97.6948 34.5028C100.721 39.1061 107.166 41.3887 112.426 41.7584C117.415 42.1075 123.162 40.8635 126.895 37.3282C130.872 33.561 132.102 27.6462 128.418 23.3891M107.345 19.0146C109.171 17.4655 113.435 16.3594 115.895 17.797C114.427 19.3227 111.844 20.9774 110.879 21.8106C108.616 23.7646 106.224 25.5925 104.269 27.8721C104.254 27.8076 104.231 27.7489 104.219 27.6844C103.659 24.7035 105.1 20.9363 107.354 19.0176" fill="#26B7BC"/>
<path opacity="0.9" d="M125.052 63.6372C122.581 59.5855 118.155 57.0916 113.506 56.5224C109.634 56.0501 102.834 56.7454 101.543 61.1991C101.494 61.378 101.46 61.5605 101.44 61.7448C99.3326 64.3413 97.9649 68.2581 97.645 70.8018C96.3331 81.273 106.699 89.0626 116.561 86.3516C126.059 83.7522 130.062 71.8317 125.052 63.6255M117.747 77.2829C115.155 80.1787 110.21 80.1992 107.26 77.8081C105.118 76.0712 104.325 73.1343 104.715 70.4732C104.921 69.1148 105.569 67.7887 106.136 66.5535C106.324 66.1721 106.509 65.7907 106.694 65.4064C106.874 65.2429 107.028 65.0518 107.149 64.8401C110.219 63.693 113.952 63.2294 117.057 65.7027C120.509 68.4547 120.641 74.0468 117.747 77.2829Z" fill="#26B7BC"/>
<path opacity="0.9" d="M149.765 60.9468C147.291 56.895 142.868 54.4041 138.219 53.832C134.344 53.3597 127.547 54.055 126.256 58.5087C126.206 58.6873 126.171 58.8699 126.153 59.0544C124.043 61.6509 122.675 65.5706 122.358 68.1114C121.043 78.5826 131.412 86.3722 141.274 83.6612C150.769 81.0618 154.775 69.1412 149.765 60.935M142.457 74.5925C139.868 77.4882 134.92 77.5088 131.973 75.1176C129.83 73.3807 129.038 70.4439 129.428 67.7828C129.634 66.4244 130.282 65.0983 130.849 63.8631C131.034 63.4817 131.222 63.1003 131.406 62.7159C131.585 62.5509 131.739 62.36 131.861 62.1497C134.931 61.0025 138.665 60.539 141.767 63.0123C145.221 65.7643 145.354 71.3563 142.457 74.5925Z" fill="#26B7BC"/>
<path opacity="0.9" d="M66.5164 25.1084C62.786 12.9092 53.7727 3.24775 40.982 0.618952C34.8185 -0.645569 5.94702 -0.941896 4.17136 9.57035C3.18813 15.3942 6.71012 33.3733 7.78139 39.4964C9.83589 51.2907 12.313 63.0176 14.5818 74.7738C15.7558 80.7825 23.2048 84.5995 28.8253 82.8568C40.8587 79.1248 52.7308 73.1103 60.6171 63.0235C69.2019 52.0389 70.5227 38.2612 66.5106 25.1084M33.1456 55.9058C31.0705 49.3367 29.9376 44.2376 27.8949 37.6568C26.4773 33.0887 25.136 27.0947 23.8299 22.5001C28.4995 20.5872 33.8617 19.7599 38.5049 21.6552C43.9141 23.8586 45.4549 29.8027 45.9979 35.1512C47.0662 45.5666 40.982 51.6369 33.1456 55.9058Z" fill="#26B7BC"/>
<path opacity="0.9" d="M102.324 66.9667C101.056 64.7633 98.5669 62.8915 96.3011 62.1022C94.0353 61.313 79.7125 60.8964 76.0027 62.7242C73.1293 64.1413 71.1247 66.2801 71.4652 70.7514C71.8145 75.3078 75.7297 76.408 78.3624 76.2203C80.9452 76.0384 85.6324 74.6007 86.5804 76.3787C89.4097 81.1962 84.7137 86.7296 79.6391 87.4308C73.4492 88.2875 67.5529 83.7516 66.0179 78.2535C64.1894 71.6844 64.2979 62.8738 68.8648 57.226C74.4413 50.3255 85.9347 53.5557 92.559 56.6217C95.4 57.9331 99.4679 51.9919 96.7061 49.6096C86.2663 40.5936 71.0279 37.2314 59.012 47.0395C47.3983 56.519 47.0578 74.9587 52.6842 87.7799C58.6452 101.361 74.3444 108.1 88.2856 102.702C102.374 97.2448 110.192 80.6534 102.321 66.9667" fill="#26B7BC"/>
<path opacity="0.9" d="M108.982 97.5411C116.423 101.569 124.409 103.972 132.903 102.441C136.54 101.802 139.987 100.353 142.987 98.2012C145.482 96.388 149.048 93.5685 148.666 90.1388C148.543 89.0268 147.583 87.9589 146.339 88.3784C143.739 89.2351 142.321 91.7935 140.155 93.3661C137.541 95.2084 134.571 96.4846 131.435 97.1127C124.45 98.5797 116.892 96.7724 110.374 94.2345C108.454 93.4893 107.204 96.5817 108.982 97.5381" fill="#26B7BC"/>
<path opacity="0.9" d="M117.468 74.6011C118.319 74.5906 119.134 74.2522 119.742 73.6564C120.187 73.2045 120.488 72.632 120.609 72.0101C120.73 71.3882 120.665 70.7444 120.422 70.1591C120.18 69.5738 119.77 69.0728 119.245 68.7186C118.72 68.3643 118.101 68.1725 117.468 68.167C116.617 68.1776 115.802 68.5147 115.193 69.1088C114.594 69.7145 114.256 70.5307 114.251 71.3826C114.327 73.1253 115.663 74.6099 117.479 74.6099" fill="#26B7BC"/>
<path opacity="0.9" d="M143.178 69.6334C143.009 69.6853 142.825 69.6685 142.668 69.5868C142.51 69.505 142.391 69.3649 142.336 69.1963" fill="#26B7BC"/>
<path opacity="0.9" d="M142.448 72.65C143.306 72.6394 144.126 72.299 144.74 71.6994C145.342 71.0888 145.682 70.2679 145.688 69.4109C145.609 67.6506 144.264 66.1836 142.459 66.1836C141.602 66.194 140.782 66.5345 140.17 67.1342C139.712 67.5849 139.399 68.1621 139.271 68.7919C139.143 69.4216 139.206 70.0753 139.452 70.669C139.698 71.2627 140.115 71.7696 140.651 72.1246C141.187 72.4796 141.817 72.6666 142.459 72.6617" fill="#26B7BC"/>
<g clip-path="url(#clip0_330_994)">
<path d="M231.479 34.7412C228.91 19.7571 218.773 7.92105 204.252 3.43745C195.375 0.74031 184.831 0.943978 178.31 4.21721C171.883 7.2053 166.119 10.9499 161.432 16.2452C149.663 29.536 148.473 50.4527 159.049 64.8578C160.924 67.4004 163.104 69.7035 165.54 71.7156C164.781 73.1704 160.414 78.9603 156.561 80.4762C155.159 81.029 154.702 82.1899 154.903 83.2461C153.765 85.0616 153.701 87.6104 156.576 87.6104C162.802 87.6104 172.34 84.3604 175.217 82.5391C176.984 81.4218 178.56 80.2405 179.919 79.4666C188.869 82.2336 198.712 82.0299 207.411 78.0817C223.635 70.7118 234.563 52.6639 231.479 34.7412Z" fill="#FF6D58"/>
<path d="M186.009 54.9212C183.661 55.9687 181.38 57.1529 179.151 58.4127C178.214 55.4333 177.362 52.419 176.596 49.3698C177.385 49.1807 178.167 48.9829 178.947 48.7879C182.037 48.0402 185.715 47.9005 188.633 46.6872C192.971 44.8833 192.645 38.4765 187.484 38.2176C184.071 38.0459 180.059 40.295 176.96 41.5868C176.287 41.8661 175.617 42.1571 174.95 42.4597C174.743 41.5577 174.533 40.6558 174.336 39.7509C173.885 37.6619 173.809 36.3118 173.218 34.2519C175.101 34.0628 187.155 31.6828 191.138 30.3124C194.921 29.0118 192.948 23.6204 189.57 24.63C185.572 25.4331 181.644 26.7249 177.641 27.6036C174.176 28.363 170.227 28.8372 166.945 30.2775C166.656 30.3385 166.388 30.4736 166.167 30.6694C165.945 30.8652 165.778 31.1151 165.683 31.3947L165.656 31.4675C165.395 32.2094 165.947 33.2888 166.762 33.4168C167.19 33.4838 167.62 33.7602 168.057 33.7951C167.667 37.8015 168.22 41.8894 168.88 45.922C168.438 46.2595 168.007 46.6116 167.591 46.9898C166.122 48.3428 167.53 50.941 169.407 50.5773L169.698 50.5569C170.62 55.5277 171.806 60.4459 173.25 65.2908C173.393 65.7845 173.633 66.2451 173.954 66.6463C174.275 67.0475 174.672 67.3814 175.123 67.629C175.573 67.8765 176.068 68.0328 176.579 68.0889C177.09 68.145 177.607 68.0998 178.101 67.956C178.391 67.8768 178.672 67.7635 178.936 67.6185C183.882 64.6827 189.07 62.8497 194.243 60.4697C196.224 59.5561 196.911 56.4778 195.75 54.7292C193.259 50.9672 189.151 53.5159 186.009 54.9212Z" fill="white"/>
<path d="M216.774 50.9785C214.193 48.9156 211.636 46.8237 209.081 44.7288C210.803 41.9376 212.524 39.1454 214.242 36.3523C216.98 31.9268 210.169 28.063 207.321 32.308C205.732 34.6676 204.213 37.0767 202.785 39.5382C199.756 37.0069 196.541 34.3738 193.014 32.8957C191.08 32.084 189.738 34.624 190.515 36.1457C192.438 39.9106 196.084 43.3031 199.194 46.268C199.017 46.6317 198.834 46.9983 198.662 47.362C197.478 49.87 193.058 57.7636 197.114 59.582C198.074 60.0097 199.511 59.6082 199.642 58.4473C199.721 58.4473 199.933 58.2 200.253 57.7025C200.67 57.3168 201.043 56.8876 201.368 56.4223C201.99 55.6541 202.596 54.8366 203.169 54.0306C203.742 53.2247 204.26 52.4304 204.786 51.6128C206.726 53.4516 208.682 55.2837 210.655 57.1089C214.801 60.9466 221.054 54.3972 216.774 50.9785Z" fill="white"/>
</g>
</g>
<defs>
<filter id="filter0_d_330_994" x="0" y="0" width="236" height="112.565" filterUnits="userSpaceOnUse" color-interpolation-filters="sRGB">
<feFlood flood-opacity="0" result="BackgroundImageFix"/>
<feColorMatrix in="SourceAlpha" type="matrix" values="0 0 0 0 0 0 0 0 0 0 0 0 0 0 0 0 0 0 127 0" result="hardAlpha"/>
<feOffset dy="4"/>
<feGaussianBlur stdDeviation="2"/>
<feComposite in2="hardAlpha" operator="out"/>
<feColorMatrix type="matrix" values="0 0 0 0 0 0 0 0 0 0 0 0 0 0 0 0 0 0 0.25 0"/>
<feBlend mode="normal" in2="BackgroundImageFix" result="effect1_dropShadow_330_994"/>
<feBlend mode="normal" in="SourceGraphic" in2="effect1_dropShadow_330_994" result="shape"/>
</filter>
<clipPath id="clip0_330_994">
<rect width="80.1927" height="86.0351" fill="white" transform="translate(151.807 1.57227)"/>
</clipPath>
</defs>
</svg>
