<svg width="228" height="105" viewBox="0 0 228 105" fill="none" xmlns="http://www.w3.org/2000/svg">
<g clip-path="url(#clip0_5_10069)">
<path d="M227.477 34.5964C224.898 19.5358 214.757 7.63638 200.211 3.13175C191.321 0.418364 180.761 0.621647 174.233 3.91247C167.797 6.91752 162.024 10.6886 157.331 15.9916C145.544 29.3552 144.352 50.3876 154.942 64.862C156.821 67.4174 159.005 69.7317 161.446 71.753C160.683 73.226 156.312 79.0387 152.453 80.5648C151.05 81.1187 150.589 82.2824 150.792 83.346C149.65 85.1726 149.588 87.7298 152.465 87.7298C158.701 87.7298 168.252 84.4626 171.134 82.633C172.895 81.5105 174.483 80.3232 175.83 79.5455C184.797 82.3266 194.652 82.1204 203.366 78.1519C219.612 70.7454 230.553 52.6061 227.466 34.5846" fill="#E65642"/>
<path opacity="0.9" d="M94.1669 23.4865C91.7514 20.6877 87.2051 23.0269 87.1552 26.4003C87.0935 30.9314 85.312 32.5871 80.6982 33.0644C78.6094 33.2702 76.5008 33.0395 74.5053 32.3868C82.2684 28.9192 97.3807 19.524 87.7392 11.649C79.1279 4.62247 66.3313 9.83418 62.645 19.5593C60.884 24.1848 60.6345 30.351 63.4433 34.6465C66.4722 39.2689 72.9175 41.561 78.1741 41.9322C83.1636 42.2828 88.9103 41.0337 92.6436 37.4836C96.6206 33.7008 97.8503 27.7614 94.1669 23.4865ZM73.0818 19.0939C74.9074 17.5383 79.172 16.4276 81.6344 17.8712C80.1669 19.4032 77.5812 21.0648 76.6156 21.9015C74.3556 23.8636 71.9636 25.6991 70.0089 27.9882C69.9942 27.9234 69.9707 27.8645 69.959 27.7997C69.3984 24.8064 70.8395 21.0236 73.0936 19.0968" fill="#22ACB2"/>
<path opacity="0.9" d="M124.427 23.4865C122.011 20.6877 117.462 23.0269 117.415 26.4003C117.353 30.9314 115.572 32.5871 110.958 33.0644C108.869 33.2702 106.761 33.0395 104.765 32.3868C112.525 28.9192 127.638 19.524 117.987 11.649C109.379 4.62247 96.5882 9.83418 92.896 19.5593C91.135 24.1848 90.8826 30.351 93.6943 34.6465C96.7203 39.2689 103.166 41.561 108.425 41.9322C113.415 42.2828 119.161 41.0337 122.895 37.4836C126.872 33.7008 128.101 27.7614 124.418 23.4865M103.345 19.0939C105.17 17.5383 109.435 16.4276 111.894 17.8712C110.427 19.4032 107.844 21.0648 106.878 21.9015C104.615 23.8636 102.223 25.6991 100.269 27.9882C100.254 27.9234 100.231 27.8645 100.219 27.7997C99.6582 24.8064 101.099 21.0236 103.353 19.0968" fill="#22ACB2"/>
<path opacity="0.9" d="M121.051 63.9015C118.58 59.8329 114.154 57.3287 109.505 56.7572C105.634 56.2828 98.8331 56.9811 97.5417 61.4533C97.4931 61.6329 97.4587 61.8162 97.439 62.0013C95.3317 64.6086 93.964 68.5417 93.644 71.096C92.3321 81.6107 102.699 89.4327 112.56 86.7105C122.058 84.1002 126.061 72.1301 121.051 63.8897M113.746 77.604C111.154 80.5118 106.209 80.5324 103.259 78.1313C101.117 76.3872 100.324 73.4381 100.714 70.766C100.92 69.4019 101.569 68.0703 102.135 66.83C102.323 66.447 102.508 66.064 102.693 65.678C102.873 65.5139 103.027 65.322 103.148 65.1094C106.218 63.9575 109.951 63.492 113.056 65.9756C116.508 68.7391 116.64 74.3544 113.746 77.604Z" fill="#22ACB2"/>
<path opacity="0.9" d="M145.764 61.1999C143.29 57.1313 138.867 54.6301 134.218 54.0556C130.343 53.5812 123.546 54.2795 122.255 58.7517C122.205 58.931 122.17 59.1144 122.152 59.2997C120.042 61.907 118.674 65.843 118.357 68.3944C117.042 78.9091 127.411 86.7311 137.273 84.0088C146.768 81.3986 150.774 69.4285 145.764 61.1881M138.456 74.9024C135.867 77.8102 130.919 77.8308 127.972 75.4297C125.829 73.6856 125.037 70.7365 125.427 68.0644C125.633 66.7003 126.281 65.3687 126.848 64.1284C127.033 63.7454 127.221 63.3624 127.406 62.9764C127.585 62.8107 127.738 62.6191 127.86 62.4078C130.93 61.2559 134.664 60.7904 137.766 63.274C141.221 66.0375 141.353 71.6528 138.456 74.9024Z" fill="#22ACB2"/>
<path opacity="0.9" d="M62.5158 25.213C58.7854 12.963 49.772 3.26138 36.9812 0.621649C30.8177 -0.648132 1.94606 -0.945693 0.17038 9.61028C-0.812847 15.4583 2.70916 33.5122 3.78044 39.6608C5.83494 51.5042 8.31208 63.2799 10.5808 75.085C11.7548 81.1187 19.2039 84.9516 24.8244 83.2016C36.8579 79.4541 48.73 73.4146 56.6164 63.2858C65.2013 52.2555 66.522 38.4205 62.5099 25.213M29.1448 56.1385C27.0697 49.5421 25.9368 44.4217 23.894 37.8136C22.4764 33.2264 21.1351 27.2075 19.829 22.5939C24.4986 20.673 29.8609 19.8422 34.5041 21.7454C39.9133 23.9579 41.4542 29.9268 41.9971 35.2976C43.0655 45.7563 36.9812 51.8519 29.1448 56.1385Z" fill="#22ACB2"/>
<path opacity="0.9" d="M98.3225 67.2454C97.0546 65.0328 94.5657 63.1532 92.2999 62.3607C90.034 61.5682 75.7112 61.1498 72.0014 62.9853C69.128 64.4082 67.1234 66.556 67.4638 71.0459C67.8131 75.6212 71.7284 76.726 74.3611 76.5374C76.9439 76.3548 81.6311 74.9112 82.5791 76.6965C85.4085 81.5341 80.7125 87.0905 75.6378 87.7946C69.4479 88.6549 63.5515 84.1002 62.0165 78.5791C60.188 71.9827 60.2966 63.1355 64.8634 57.4642C70.4399 50.5349 81.9334 53.7786 88.5577 56.8573C91.3988 58.1742 95.4667 52.2083 92.7049 49.8161C82.2651 40.7626 67.0265 37.3864 55.0106 47.2353C43.3968 56.7542 43.0563 75.2706 48.6827 88.1452C54.6437 101.783 70.3431 108.55 84.2844 103.129C98.3724 97.6494 106.191 80.989 98.3195 67.2454" fill="#22ACB2"/>
<path opacity="0.9" d="M104.982 97.947C112.422 101.992 120.408 104.405 128.902 102.867C132.54 102.226 135.986 100.771 138.987 98.6099C141.482 96.7892 145.048 93.9579 144.666 90.5139C144.543 89.3973 143.583 88.3249 142.339 88.7462C139.738 89.6065 138.321 92.1755 136.155 93.7546C133.541 95.6046 130.571 96.8861 127.435 97.5168C120.449 98.9899 112.892 97.1751 106.373 94.6267C104.454 93.8784 103.203 96.9836 104.982 97.944" fill="#22ACB2"/>
<path opacity="0.9" d="M113.467 74.9112C114.319 74.9007 115.134 74.5609 115.742 73.9626C116.186 73.5088 116.487 72.9339 116.608 72.3094C116.729 71.6849 116.665 71.0385 116.422 70.4508C116.179 69.863 115.77 69.3599 115.245 69.0042C114.719 68.6485 114.101 68.4559 113.467 68.4503C112.616 68.461 111.802 68.7995 111.193 69.3961C110.593 70.0043 110.255 70.8239 110.25 71.6793C110.327 73.4293 111.662 74.92 113.479 74.92" fill="#22ACB2"/>
<path opacity="0.9" d="M139.178 69.9234C139.008 69.9754 138.825 69.9586 138.667 69.8765C138.51 69.7945 138.391 69.6537 138.335 69.4844" fill="#22ACB2"/>
<path opacity="0.9" d="M138.447 72.952C139.305 72.9414 140.126 72.5996 140.739 71.9975C141.341 71.3844 141.681 70.5601 141.687 69.6995C141.608 67.9318 140.264 66.4587 138.459 66.4587C137.602 66.4691 136.782 66.8111 136.17 67.4133C135.711 67.8659 135.398 68.4455 135.27 69.0779C135.142 69.7103 135.205 70.3666 135.451 70.9628C135.697 71.559 136.115 72.068 136.65 72.4245C137.186 72.7809 137.816 72.9687 138.459 72.9638" fill="#22ACB2"/>
<path d="M203.883 27.5758C200.968 23.3923 196.751 20.3813 191.75 19.2677C187.054 18.2277 180.597 18.7315 176.411 21.1827C167.762 26.4562 162.285 35.9428 163.136 46.3396C163.553 51.3952 165.989 56.0766 169.3 59.936C172.342 63.4737 176.599 65.7337 181.225 66.2673C186.012 66.8123 191.119 65.1271 195.186 62.6553C199.005 60.3461 202.199 57.1298 204.487 53.2896C209.048 45.5471 209.087 35.0589 203.883 27.5758ZM182.71 55.7702C176.033 54.6183 171.337 45.612 175.302 37.3392C176.948 33.907 180.831 27.5286 186.047 27.3902C193.872 27.181 195.958 34.4049 196.272 37.7576C197.03 45.8683 192.598 57.476 182.71 55.7702Z" fill="white"/>
<path d="M194.723 59.7799C196.569 61.2117 198.539 62.8969 200.675 63.9045C203.317 65.1654 206.084 65.6338 209.885 64.2492C212.404 63.33 214.819 60.3279 212.806 56.436C211.259 53.4487 207.845 54.253 206.09 54.7126C204.238 55.1987 201.744 54.0232 199.607 52.338C197.032 50.2568 194.273 48.4176 191.363 46.8434C189.502 45.8152 186.76 45.1671 185.719 47.1381C184.712 49.0501 185.768 51.0859 187.168 52.8801C189.229 55.5286 193.059 58.4895 194.723 59.7799Z" fill="white"/>
</g>
<defs>
<clipPath id="clip0_5_10069">
<rect width="228" height="105" fill="white"/>
</clipPath>
</defs>
</svg>
