<svg width="55" height="55" viewBox="0 0 55 55" fill="none" xmlns="http://www.w3.org/2000/svg">
<path d="M54.7995 26.5014C54.7995 12.5 42.9344 0 28.2981 0C19.7494 0 13.1395 3.59341 7.636 8.08518C2.13253 12.5769 0 22.2105 0 28.2981C0 34.2414 1.25262 39.4314 4.90841 43.5C10.2557 49.4511 19.605 55 28.2981 55C35.4533 55 41.8751 50.1162 47.7144 46.7144C53.5537 43.3125 54.7995 33.9825 54.7995 26.5014Z" fill="#EECB47"/>
<path opacity="0.1" d="M28.5696 1.20461C22.3146 1.20342 16.2904 3.56704 11.7051 7.82149C21.5965 8.34744 24.2602 15.1 20.8669 24.1261C17.0664 34.3908 47.5225 46.7144 51.9492 34.4586C53.304 30.7077 53.7351 26.6856 53.2059 22.7327C52.6768 18.7799 51.2029 15.0128 48.9092 11.7503C46.6155 8.48784 43.5694 5.82608 40.0289 3.99039C36.4884 2.1547 32.5577 1.19914 28.5696 1.20461Z" fill="white"/>
<path opacity="0.3" d="M28.0327 4.13863C27.0317 6.51392 31.7483 7.88819 33.2074 5.68257C34.6666 3.47694 29.0168 1.78031 28.0327 4.13863Z" fill="white"/>
<path d="M37.3906 25.4992C38.3561 26.299 38.3561 27.7798 37.3906 28.5796L25.2758 38.6152C23.972 39.6952 21.9999 38.7679 21.9999 37.075L21.9999 17.0038C21.9999 15.3109 23.972 14.3837 25.2758 15.4636L37.3906 25.4992Z" fill="#111111"/>
</svg>
